{
.appVersion = "1286";
DisplayStrings = (
"/VowelAa.bn/a-oriya/aa-oriya/i-oriya/ii-oriya/u-oriya/uu-oriya/rVocalic-oriya/rrVocalic-oriya/lVocalic-oriya/llVocalic-oriya/e-oriya/ai-oriya/o-oriya/au-oriya/ka-oriya/kha-oriya/ga-oriya/gha-oriya/nga-oriya/ca-oriya/ja-oriya/jha-oriya/tta-oriya/ttha-oriya/dda-oriya/ddha-oriya/nna-oriya/ta-oriya/tha-oriya/da-oriya/dha-oriya/na-oriya/pa-oriya/pha-oriya/ba-oriya/bha-oriya/ma-oriya/ya-oriya/ra-oriya/la-oriya/lla-oriya/va-oriya/sha-oriya/ssa-oriya/sa-oriya/ha-oriya",
"/e-oriya/ai-oriya/o-oriya/au-oriya/jha-oriya/nna-oriya/tha-oriya/pa-oriya/pha-oriya/bha-oriya/ya-oriya/sha-oriya/ssa-oriya/sa-oriya/ha-oriya"
);
customParameters = (
{
name = licenseURL;
value = "http://scripts.sil.org/OFL";
},
{
name = license;
value = "This Font Software is licensed under the SIL Open Font License, Version 1.1. This license is available with a FAQ at: http://scripts.sil.org/OFL";
},
{
name = vendorID;
value = SUBY;
},
{
name = panose;
value = (
3,
8,
9,
2,
4,
3,
2,
2,
2,
0
);
},
{
name = unicodeRanges;
value = (
0,
1,
2,
3,
4,
5,
6,
16,
29,
31,
32,
33,
35,
36,
37,
38,
45,
62
);
},
{
name = fsType;
value = (
);
},
{
name = blueScale;
value = 0.03333;
},
{
name = blueShift;
value = 15;
},
{
name = glyphOrder;
value = (
.notdef,
NULL,
CR,
space,
exclam,
quotedbl,
numbersign,
dollar,
percent,
ampersand,
quotesingle,
parenleft,
parenright,
asterisk,
plus,
comma,
hyphen,
period,
slash,
zero,
one,
two,
three,
four,
five,
six,
seven,
eight,
nine,
colon,
semicolon,
less,
equal,
greater,
question,
at,
A,
B,
C,
D,
E,
F,
G,
H,
I,
J,
K,
L,
M,
N,
O,
P,
Q,
R,
S,
T,
U,
V,
W,
X,
Y,
Z,
bracketleft,
backslash,
bracketright,
asciicircum,
underscore,
grave,
a,
b,
c,
d,
e,
f,
g,
h,
i,
j,
k,
l,
m,
n,
o,
p,
q,
r,
s,
t,
u,
v,
w,
x,
y,
z,
braceleft,
bar,
braceright,
asciitilde,
uni00A0,
exclamdown,
cent,
sterling,
currency,
yen,
brokenbar,
section,
dieresis,
copyright,
ordfeminine,
guillemotleft,
logicalnot,
uni00AD,
registered,
macron,
degree,
plusminus,
twosuperior,

glyphs = (
{
glyphname = Candrabindu.bn;
lastChange = "2020-07-15 11:15:54 +0000";
layers = (
{
hints = (
{
horizontal = 1;
place = "{662.24, 117.76}";
type = Stem;
},
{
horizontal = 1;
place = "{815, 108}";
type = Stem;
},
{
place = "{-293.48, 114}";
type = Stem;
}
);
layerId = "555B79C6-6D98-46E7-9307-77C37975E414";
paths = (
{
closed = 1;
nodes = (
"-266 923 OFFCURVE",
"-293 904 OFFCURVE",
"-293.48 869 CURVE SMOOTH",
"-293 837 OFFCURVE",
"-269 815 OFFCURVE",
"-236.48 815 CURVE SMOOTH",
"-207 815 OFFCURVE",
"-179 834 OFFCURVE",
"-179.48 869 CURVE SMOOTH",
"-179 901 OFFCURVE",
"-204 923 OFFCURVE",
"-236.48 923 CURVE SMOOTH"
);
},
{
closed = 1;
nodes = (
"-387.48 887 LINE",
"-387.48 887 OFFCURVE",
"-421 840 OFFCURVE",
"-420 788 CURVE SMOOTH",
"-416 711 OFFCURVE",
"-338 662 OFFCURVE",
"-256.71 662.25 CURVE SMOOTH",
"-194 662 OFFCURVE",
"-145 691 OFFCURVE",
"-105 722 CURVE SMOOTH",
"-28 780 OFFCURVE",
"13 856 OFFCURVE",
"12.52 856.01 CURVE",
"-111.48 891.01 LINE",
"-111 891 OFFCURVE",
"-136 846 OFFCURVE",
"-158 820 CURVE SMOOTH",
"-170 806 OFFCURVE",
"-197 780 OFFCURVE",
"-237.99 780.01 CURVE SMOOTH",
"-264.84 780.01 OFFCURVE",
"-328.36 790.95 OFFCURVE",
"-328.36 830.06 CURVE SMOOTH",
"-328.36 848.41 OFFCURVE",
"-319.47 861.01 OFFCURVE",
"-319.47 861.01 CURVE"
);
}
);
width = 0;
},
{
layerId = "9F2BC935-6AE7-4E60-84C9-D3B586669EA4";
width = 600;
}
);
note = Candrabindu.bn;
unicode = 0981;
},
{
glyphname = Anuswara.bn;
lastChange = "2020-07-15 14:37:54 +0000";
layers = (
{
layerId = "555B79C6-6D98-46E7-9307-77C37975E414";
paths = (
{
closed = 1;
nodes = (
"229 517 OFFCURVE",
"229 499 CURVE SMOOTH",
"229 466 OFFCURVE",
"296 420 OFFCURVE",
"340 421 CURVE SMOOTH",
"359 421 OFFCURVE",
"374 429 OFFCURVE",
"375 448 CURVE SMOOTH",
"377 479 OFFCURVE",
"307 525 OFFCURVE",
"261 524 CURVE SMOOTH",
"242 524 OFFCURVE"
);
},
{
closed = 1;
nodes = (
"169 636 OFFCURVE",
"245 636 CURVE SMOOTH",
"366 636 OFFCURVE",
"497 535 OFFCURVE",
"492 423 CURVE SMOOTH",
"492 350 OFFCURVE",
"430 312 OFFCURVE",
"354 311 CURVE SMOOTH",
"234 311 OFFCURVE",
"106 410 OFFCURVE",
"106 521 CURVE SMOOTH",
"106 596 OFFCURVE"
);
},
{
closed = 1;
nodes = (
"166.74 156.79 OFFCURVE",
"287 92 OFFCURVE",
"316 69 CURVE SMOOTH",
"324 63 OFFCURVE",
"331 54 OFFCURVE",
"331 46 CURVE SMOOTH",
"331 35 OFFCURVE",
"325 25 OFFCURVE",
"320 18 CURVE SMOOTH",
"308 1 OFFCURVE",
"290 -20 OFFCURVE",
"290 -28 CURVE SMOOTH",
"290 -33 OFFCURVE",
"291.97 -34.74 OFFCURVE",
"295.2 -35.62 CURVE SMOOTH",
"302.1 -37.51 OFFCURVE",
"318.76 -38.93 OFFCURVE",
"347.5 -30.05 CURVE SMOOTH",
"380.94 -19.71 OFFCURVE",
"393.01 -3.8 OFFCURVE",
"412.6 24.24 CURVE SMOOTH",
"429 47 OFFCURVE",
"449 89 OFFCURVE",
"449 122 CURVE SMOOTH",
"449 179 OFFCURVE",
"345 224 OFFCURVE",
"205 290.99 CURVE SMOOTH",
"179 304 OFFCURVE",
"161 328 OFFCURVE",
"146 328 CURVE SMOOTH",
"128 328 OFFCURVE",
"92 295 OFFCURVE",
"78.77 280.74 CURVE SMOOTH",
"57 257 OFFCURVE",
"51 250 OFFCURVE",
"51 235 CURVE SMOOTH",
"52 216 OFFCURVE",
"69.91 207.87 OFFCURVE",
"81.16 201.93 CURVE SMOOTH"
);
}
);
width = 580;
},
{
layerId = "9F2BC935-6AE7-4E60-84C9-D3B586669EA4";
width = 600;
}
);
note = Anuswara.bn;
unicode = 0982;
},
{
glyphname = Visarga.bn;
lastChange = "2020-07-15 14:37:54 +0000";
layers = (
{
layerId = "555B79C6-6D98-46E7-9307-77C37975E414";
paths = (
{
closed = 1;
nodes = (
"229 517 OFFCURVE",
"229 499 CURVE SMOOTH",
"229 466 OFFCURVE",
"296 420 OFFCURVE",
"340 421 CURVE SMOOTH",
"359 421 OFFCURVE",
"374 429 OFFCURVE",
"375 448 CURVE SMOOTH",
"377 479 OFFCURVE",
"307 525 OFFCURVE",
"261 524 CURVE SMOOTH",
"242 524 OFFCURVE"
);
},
{
closed = 1;
nodes = (
"169 636 OFFCURVE",
"245 636 CURVE SMOOTH",
"366 636 OFFCURVE",
"497 535 OFFCURVE",
"492 423 CURVE SMOOTH",
"492 350 OFFCURVE",
"430 312 OFFCURVE",
"354 311 CURVE SMOOTH",
"234 311 OFFCURVE",
"106 410 OFFCURVE",
"106 521 CURVE SMOOTH",
"106 596 OFFCURVE"
);
},
{
closed = 1;
nodes = (
"233 165 OFFCURVE",
"233 147 CURVE SMOOTH",
"233 114 OFFCURVE",
"300 68 OFFCURVE",
"344 69 CURVE SMOOTH",
"363 69 OFFCURVE",
"378 77 OFFCURVE",
"379 96 CURVE SMOOTH",
"381 127 OFFCURVE",
"311 173 OFFCURVE",
"265 172 CURVE SMOOTH",
"246 172 OFFCURVE"
);
},
{
closed = 1;
nodes = (
"173 284 OFFCURVE",
"249 284 CURVE SMOOTH",
"370 284 OFFCURVE",
"501 183 OFFCURVE",
"498 71 CURVE SMOOTH",
"496 -2 OFFCURVE",
"434 -40 OFFCURVE",
"358 -40 CURVE SMOOTH",
"238 -41 OFFCURVE",
"110 58 OFFCURVE",
"110 169 CURVE SMOOTH",
"110 244 OFFCURVE"
);
}
);
width = 550;
},
{
layerId = "9F2BC935-6AE7-4E60-84C9-D3B586669EA4";
width = 600;
}
);
note = Visarga.bn;
unicode = 0983;
},
{
glyphname = VowelA.bn;
lastChange = "2020-07-15 11:15:54 +0000";
layers = (
{
hints = (
{
horizontal = 1;
place = "{24.18, 106.45}";
type = Stem;
},
{
horizontal = 1;
place = "{384.38, 109.62}";
type = Stem;
},
{
horizontal = 1;
place = "{511, 119}";
type = Stem;
},
{
place = "{30.58, 131.12}";
type = Stem;
}
);
layerId = "555B79C6-6D98-46E7-9307-77C37975E414";
paths = (
{
closed = 1;
nodes = (
"31 137 OFFCURVE",
"124 24 OFFCURVE",
"267 24 CURVE SMOOTH",
"382 24 OFFCURVE",
"529 136 OFFCURVE",
"529 252.01 CURVE SMOOTH",
"529 345 OFFCURVE",
"484 494 OFFCURVE",
"407 494.01 CURVE SMOOTH",
"376.15 494.01 OFFCURVE",
"308.55 467.58 OFFCURVE",
"276.05 443.23 CURVE SMOOTH",
"254 426 OFFCURVE",
"223 391 OFFCURVE",
"223.14 372.18 CURVE SMOOTH",
"223.14 368.65 OFFCURVE",
"223.89 362.52 OFFCURVE",
"232.42 362.52 CURVE SMOOTH",
"244.73 362.52 OFFCURVE",
"297.49 384.38 OFFCURVE",
"311.2 384.38 CURVE SMOOTH",
"337 384.38 OFFCURVE",
"400.87 247.69 OFFCURVE",
"371.45 198.31 CURVE SMOOTH",
"353.99 169 OFFCURVE",
"305.95 130.63 OFFCURVE",
"265.34 130.63 CURVE SMOOTH",
"200 131 OFFCURVE",
"162 225 OFFCURVE",
"161.69 311.08 CURVE SMOOTH",
"162 384 OFFCURVE",
"179 424 OFFCURVE",
"178.83 464.52 CURVE SMOOTH",
"178.83 470.38 OFFCURVE",
"178.56 477.4 OFFCURVE",
"166.26 477.4 CURVE SMOOTH",
"115 477 OFFCURVE",
"31 340 OFFCURVE",
"31 244 CURVE SMOOTH"
);
},
{
closed = 1;
nodes = (
"486 176 LINE",
"517 176 OFFCURVE",
"579 115 OFFCURVE",
"578.99 79 CURVE",
"592 188 LINE",
"592 237 OFFCURVE",
"525 312 OFFCURVE",
"486 312 CURVE"
);
},
{
closed = 1;
nodes = (
"611.99 541.14 LINE",
"589 295 OFFCURVE",
"572 117 OFFCURVE",
"564.99 63 CURVE SMOOTH",
"560.17 26.82 OFFCURVE",
"547.7 -21 OFFCURVE",
"583.99 -21 CURVE SMOOTH",
"647 -21 OFFCURVE",
"711 94 OFFCURVE",
"715.99 174 CURVE SMOOTH",
"727.92 360.94 OFFCURVE",
"748.99 538 OFFCURVE",
"748.99 538 CURVE"
);
},
{
closed = 1;
nodes = (
"-0.01 630 LINE",
"-32 630 OFFCURVE",
"-42 632 OFFCURVE",
"-49.01 611 CURVE SMOOTH",
"-74.01 533 LINE SMOOTH",
"-79.34 518.33 OFFCURVE",
"-72.34 511 OFFCURVE",
"-53.01 511 CURVE SMOOTH",
"795.13 511 LINE",
"827 511 OFFCURVE",
"837 509 OFFCURVE",
"844.13 530 CURVE SMOOTH",
"869.13 608 LINE SMOOTH",
"874.37 622.67 OFFCURVE",
"867.32 630 OFFCURVE",
"847.99 630 CURVE SMOOTH"
);
}
);
width = 795;
},
{
layerId = "9F2BC935-6AE7-4E60-84C9-D3B586669EA4";
width = 600;
}
);
leftKerningGroup = VowelA.bn;
note = VowelA.bn;
rightKerningGroup = VowelA.bn;
unicode = 0985;
},
{
glyphname = VowelAa.bn;
lastChange = "2020-07-26 09:48:17 +0000";
layers = (
{
background = {
paths = (
{
closed = 1;
nodes = (
"30.58 228.46 OFFCURVE",
"41.87 141.09 OFFCURVE",
"113.99 76.69 CURVE SMOOTH",
"157.38 37.95 OFFCURVE",
"204.87 24.18 OFFCURVE",
"257.97 24.18 CURVE SMOOTH",
"321.25 24.18 OFFCURVE",
"388.74 53.43 OFFCURVE",
"432.2 87.64 CURVE SMOOTH",
"459.81 109.37 OFFCURVE",
"492.7 146.65 OFFCURVE",
"507.77 179.89 CURVE SMOOTH",
"521.02 209.11 OFFCURVE",
"525.78 225.27 OFFCURVE",
"529 252.01 CURVE SMOOTH",
"531.56 273.33 OFFCURVE",
"530.31 311.95 OFFCURVE",
"526 333.01 CURVE SMOOTH",
"513.75 392.88 OFFCURVE",
"477 460.01 OFFCURVE",
"434.85 487.31 CURVE SMOOTH",
"425.88 493.12 OFFCURVE",
"418.79 494.01 OFFCURVE",
"407 494.01 CURVE SMOOTH",
"376.15 494.01 OFFCURVE",
"308.55 467.58 OFFCURVE",
"276.05 443.23 CURVE SMOOTH",
"256.59 428.65 OFFCURVE",
"243.71 414.75 OFFCURVE",
"231.21 393.75 CURVE SMOOTH",
"227.46 387.46 OFFCURVE",
"223.14 376.58 OFFCURVE",
"223.14 372.18 CURVE SMOOTH",
"223.14 368.65 OFFCURVE",
"223.89 362.52 OFFCURVE",
"232.42 362.52 CURVE SMOOTH",
"244.73 362.52 OFFCURVE",
"297.49 384.38 OFFCURVE",
"311.2 384.38 CURVE SMOOTH",
"337 384.38 OFFCURVE",
"400.87 247.69 OFFCURVE",
"371.45 198.31 CURVE SMOOTH",
"353.99 169 OFFCURVE",
"305.95 130.63 OFFCURVE",
"265.34 130.63 CURVE SMOOTH",
"244.74 130.63 OFFCURVE",
"221.56 144.74 OFFCURVE",
"208.97 159.3 CURVE SMOOTH",
"191.85 179.09 OFFCURVE",
"185.21 192.21 OFFCURVE",
"176.82 215.41 CURVE SMOOTH",
"170.07 234.07 OFFCURVE",
"161.69 265.4 OFFCURVE",
"161.69 311.08 CURVE SMOOTH",
"161.69 325.22 OFFCURVE",
"162.57 345.53 OFFCURVE",
"163.6 357.79 CURVE SMOOTH",
"167.21 400.51 OFFCURVE",
"178.83 437.58 OFFCURVE",
"178.83 464.52 CURVE SMOOTH",
"178.83 470.38 OFFCURVE",
"178.56 477.4 OFFCURVE",
"166.26 477.4 CURVE SMOOTH",
"153.97 477.4 OFFCURVE",
"116.58 446.8 OFFCURVE",
"83.99 403.61 CURVE SMOOTH",
"54.06 363.95 OFFCURVE",
"30.57 313.96 OFFCURVE",
"30.57 261.26 CURVE SMOOTH"
);
},
{
closed = 1;
nodes = (
"500.99 186 LINE",
"531.99 165 OFFCURVE",
"567.99 123 OFFCURVE",
"578.99 79 CURVE",
"639.35 185.27 LINE",
"574.99 289 OFFCURVE",
"485.99 317 OFFCURVE",
"485.99 317 CURVE"
);
},
{
closed = 1;
nodes = (
"611.99 541.14 LINE",
"611.99 541.14 OFFCURVE",
"594.52 376.52 OFFCURVE",
"579.99 207 CURVE SMOOTH",
"573.99 137 OFFCURVE",
"570.99 108 OFFCURVE",
"564.99 63 CURVE SMOOTH",
"560.17 26.82 OFFCURVE",
"547.7 -21 OFFCURVE",
"583.99 -21 CURVE SMOOTH",
"628.81 -21 OFFCURVE",
"654.99 22 OFFCURVE",
"672.99 50 CURVE SMOOTH",
"691.14 78.23 OFFCURVE",
"712.99 127 OFFCURVE",
"715.99 174 CURVE SMOOTH",
"727.92 360.94 OFFCURVE",
"748.99 538 OFFCURVE",
"748.99 538 CURVE"
);
},
{
closed = 1;
nodes = (
"1019.99 630 LINE",
"996.99 630 LINE SMOOTH",
"984.99 630 OFFCURVE",
"976.85 622.58 OFFCURVE",
"972.99 611 CURVE SMOOTH",
"969.76 601.32 OFFCURVE",
"965.99 590 OFFCURVE",
"961.99 580 CURVE SMOOTH",
"959.99 575 OFFCURVE",
"957.29 572 OFFCURVE",
"953.99 572 CURVE SMOOTH",
"948.17 572 OFFCURVE",
"945.19 575.94 OFFCURVE",
"933.99 589 CURVE SMOOTH",
"915.99 610 LINE SMOOTH",
"909.99 617 OFFCURVE",
"902.76 623.27 OFFCURVE",
"888.99 626.94 CURVE SMOOTH",
"879.81 629.39 OFFCURVE",
"861.73 630 OFFCURVE",
"852.99 630 CURVE SMOOTH",
"820.99 630 LINE",
"769.99 630 LINE",
"744.99 630 LINE SMOOTH",
"732.99 630 OFFCURVE",
"724.99 623.67 OFFCURVE",
"720.99 611 CURVE SMOOTH",
"706.13 566 LINE",
"695.99 533 LINE SMOOTH",
"690.66 518.33 OFFCURVE",
"697.99 511 OFFCURVE",
"716.99 511 CURVE SMOOTH",
"833.99 511 LINE",
"833.99 511 OFFCURVE",
"818.11 366.71 OFFCURVE",
"805.99 197 CURVE SMOOTH",
"800.99 127 OFFCURVE",
"796.99 98 OFFCURVE",
"790.99 53 CURVE SMOOTH",
"786.17 16.82 OFFCURVE",
"773.7 -31 OFFCURVE",
"809.99 -31 CURVE SMOOTH",
"854.81 -31 OFFCURVE",
"880.99 12 OFFCURVE",
"898.99 40 CURVE SMOOTH",
"917.14 68.23 OFFCURVE",
"938.99 117 OFFCURVE",
"941.99 164 CURVE SMOOTH",
"953.92 350.94 OFFCURVE",
"971.99 511 OFFCURVE",
"971.99 511 CURVE",
"1019.99 511 LINE",
"1044.99 511 LINE SMOOTH",
"1056.9 511 OFFCURVE",
"1064.9 517.33 OFFCURVE",
"1068.99 530 CURVE SMOOTH",
"1083.85 576 LINE",
"1093.99 608 LINE SMOOTH",
"1099.23 622.67 OFFCURVE",
"1091.99 630 OFFCURVE",
"1072.85 630 CURVE SMOOTH"
);
},
{
closed = 1;
nodes = (
"-0.01 630 LINE",
"-25.01 630 LINE SMOOTH",
"-37.01 630 OFFCURVE",
"-45.01 623.67 OFFCURVE",
"-49.01 611 CURVE SMOOTH",
"-63.87 565 LINE",
"-74.01 533 LINE SMOOTH",
"-79.34 518.33 OFFCURVE",
"-72.34 511 OFFCURVE",
"-53.01 511 CURVE SMOOTH",
"775.13 511 LINE",
"800.13 511 LINE SMOOTH",
"812.04 511 OFFCURVE",
"820.04 517.33 OFFCURVE",
"824.13 530 CURVE SMOOTH",
"838.99 575 LINE",
"849.13 608 LINE SMOOTH",
"854.37 622.67 OFFCURVE",
"847.32 630 OFFCURVE",
"827.99 630 CURVE SMOOTH"
);
}
);
};
hints = (
{
horizontal = 1;
place = "{24.18, 106.45}";
type = Stem;
},
{
horizontal = 1;
place = "{384.38, 109.62}";
type = Stem;
},
{
place = "{30.58, 131.12}";
type = Stem;
},
{
horizontal = 1;
place = "{511, 30.14}";
type = Stem;
},
{
horizontal = 1;
place = "{511, 119}";
type = Stem;
}
);
layerId = "555B79C6-6D98-46E7-9307-77C37975E414";
paths = (
{
closed = 1;
nodes = (
"1019.99 630 LINE",
"991 630 OFFCURVE",
"979 631 OFFCURVE",
"974 615 CURVE SMOOTH",
"966 592 OFFCURVE",
"962 572 OFFCURVE",
"954 572 CURVE SMOOTH",
"948 572 OFFCURVE",
"938 584 OFFCURVE",
"915.99 610 CURVE SMOOTH",
"900 629 OFFCURVE",
"879 630 OFFCURVE",
"853 630 CURVE SMOOTH",
"769.99 630 LINE",
"738 630 OFFCURVE",
"728 632 OFFCURVE",
"720.99 611 CURVE SMOOTH",
"695.99 533 LINE SMOOTH",
"690.66 518.33 OFFCURVE",
"697.99 511 OFFCURVE",
"716.99 511 CURVE SMOOTH",
"833.99 511 LINE",
"812 262 OFFCURVE",
"802 138 OFFCURVE",
"790.99 53 CURVE SMOOTH",
"786.17 16.82 OFFCURVE",
"773.7 -31 OFFCURVE",
"809.99 -31 CURVE SMOOTH",
"873 -31 OFFCURVE",
"937 84 OFFCURVE",
"941.99 164 CURVE SMOOTH",
"953.92 350.94 OFFCURVE",
"971.99 511 OFFCURVE",
"971.99 511 CURVE",
"1019.99 511 LINE",
"1060 511 OFFCURVE",
"1063 513 OFFCURVE",
"1071 537 CURVE SMOOTH",
"1093.99 608 LINE SMOOTH",
"1099.23 622.67 OFFCURVE",
"1091.99 630 OFFCURVE",
"1072.85 630 CURVE SMOOTH"
);
},
{
closed = 1;
nodes = (
"-0.01 630 LINE",
"-32 630 OFFCURVE",
"-42 632 OFFCURVE",
"-49.01 611 CURVE SMOOTH",
"-74.01 533 LINE SMOOTH",
"-79.34 518.33 OFFCURVE",
"-72.34 511 OFFCURVE",
"-53.01 511 CURVE SMOOTH",
"775.13 511 LINE",
"807 511 OFFCURVE",
"817 509 OFFCURVE",
"824.13 530 CURVE SMOOTH",
"849.13 608 LINE SMOOTH",
"854.37 622.67 OFFCURVE",
"847.32 630 OFFCURVE",
"827.99 630 CURVE SMOOTH"
);
},
{
closed = 1;
nodes = (
"31 137 OFFCURVE",
"124 24 OFFCURVE",
"267 24 CURVE SMOOTH",
"382 24 OFFCURVE",
"529 136 OFFCURVE",
"529 252.01 CURVE SMOOTH",
"529 345 OFFCURVE",
"484 494 OFFCURVE",
"407 494.01 CURVE SMOOTH",
"376.15 494.01 OFFCURVE",
"308.55 467.58 OFFCURVE",
"276.05 443.23 CURVE SMOOTH",
"254 426 OFFCURVE",
"223 391 OFFCURVE",
"223.14 372.18 CURVE SMOOTH",
"223.14 368.65 OFFCURVE",
"223.89 362.52 OFFCURVE",
"232.42 362.52 CURVE SMOOTH",
"244.73 362.52 OFFCURVE",
"297.49 384.38 OFFCURVE",
"311.2 384.38 CURVE SMOOTH",
"337 384.38 OFFCURVE",
"400.87 247.69 OFFCURVE",
"371.45 198.31 CURVE SMOOTH",
"353.99 169 OFFCURVE",
"305.95 130.63 OFFCURVE",
"265.34 130.63 CURVE SMOOTH",
"200 131 OFFCURVE",
"162 225 OFFCURVE",
"161.69 311.08 CURVE SMOOTH",
"162 384 OFFCURVE",
"179 424 OFFCURVE",
"178.83 464.52 CURVE SMOOTH",
"178.83 470.38 OFFCURVE",
"178.56 477.4 OFFCURVE",
"166.26 477.4 CURVE SMOOTH",
"115 477 OFFCURVE",
"31 340 OFFCURVE",
"31 244 CURVE SMOOTH"
);
},
{
closed = 1;
nodes = (
"486 176 LINE",
"517 176 OFFCURVE",
"579 115 OFFCURVE",
"579 79 CURVE",
"592 188 LINE",
"592 237 OFFCURVE",
"525 312 OFFCURVE",
"486 312 CURVE"
);
},
{
closed = 1;
nodes = (
"611.99 541.14 LINE",
"589 295 OFFCURVE",
"572 117 OFFCURVE",
"564.99 63 CURVE SMOOTH",
"560.17 26.82 OFFCURVE",
"547.7 -21 OFFCURVE",
"583.99 -21 CURVE SMOOTH",
"647 -21 OFFCURVE",
"711 94 OFFCURVE",
"715.99 174 CURVE SMOOTH",
"727.92 360.94 OFFCURVE",
"748.99 538 OFFCURVE",
"748.99 538 CURVE"
);
}
);
width = 1020;
},
{
layerId = "9F2BC935-6AE7-4E60-84C9-D3B586669EA4";
paths = (
{
closed = 1;
nodes = (
"45 139 OFFCURVE",
"142 37 OFFCURVE",
"257 37 CURVE SMOOTH",
"394 37 OFFCURVE",
"510 150 OFFCURVE",
"510 253 CURVE SMOOTH",
"510 343 OFFCURVE",
"459 489 OFFCURVE",
"393 489 CURVE SMOOTH",
"369 489 OFFCURVE",
"330 475 OFFCURVE",
"296 449 CURVE SMOOTH",
"271 430 OFFCURVE",
"254 402 OFFCURVE",
"254 392 CURVE SMOOTH",
"254 389 OFFCURVE",
"255 384 OFFCURVE",
"261 384 CURVE SMOOTH",
"275 384 OFFCURVE",
"307 401 OFFCURVE",
"321 401 CURVE SMOOTH",
"357 401 OFFCURVE",
"393 290 OFFCURVE",
"393 231 CURVE SMOOTH",
"393 178 OFFCURVE",
"324 121 OFFCURVE",
"263 121 CURVE SMOOTH",
"189 121 OFFCURVE",
"149 223 OFFCURVE",
"149 311 CURVE SMOOTH",
"149 396 OFFCURVE",
"179 438 OFFCURVE",
"179 466 CURVE SMOOTH",
"179 470 OFFCURVE",
"177 474 OFFCURVE",
"171 474 CURVE SMOOTH",
"149 474 OFFCURVE",
"45 366 OFFCURVE",
"45 249 CURVE SMOOTH"
);
},
{
closed = 1;
nodes = (
"487 189 LINE",
"521 189 OFFCURVE",
"570 139 OFFCURVE",
"581 95 CURVE",
"590 169 LINE",
"592 219 OFFCURVE",
"522 303 OFFCURVE",
"487 303 CURVE"
);
},
{
closed = 1;
nodes = (
"0 606 LINE",
"-29 606 OFFCURVE",
"-42 609 OFFCURVE",
"-49 587 CURVE SMOOTH",
"-65 534 LINE SMOOTH",
"-70 519 OFFCURVE",
"-63 512 OFFCURVE",
"-44 512 CURVE SMOOTH",
"760 512 LINE",
"789 512 OFFCURVE",
"802 509 OFFCURVE",
"809 531 CURVE SMOOTH",
"826 584 LINE SMOOTH",
"831 599 OFFCURVE",
"824 606 OFFCURVE",
"805 606 CURVE SMOOTH"
);
},
{
closed = 1;
nodes = (
"611 541 LINE",
"611 541 OFFCURVE",
"581 176 OFFCURVE",
"564 56 CURVE SMOOTH",
"559 20 OFFCURVE",
"549 -21 OFFCURVE",
"575 -21 CURVE SMOOTH",
"621 -21 OFFCURVE",
"686 107 OFFCURVE",
"690 174 CURVE SMOOTH",
"701 361 OFFCURVE",
"724 538 OFFCURVE",
"724 538 CURVE"
);
},
{
closed = 1;
nodes = (
"1024 606 LINE",
"976 606 OFFCURVE",
"966 608 OFFCURVE",
"959 587 CURVE SMOOTH",
"951 563 OFFCURVE",
"948 551 OFFCURVE",
"939 551 CURVE SMOOTH",
"929 551 OFFCURVE",
"919 566 OFFCURVE",
"902 586 CURVE SMOOTH",
"888 602 OFFCURVE",
"871 606 OFFCURVE",
"849 606 CURVE",
"779 606 LINE",
"750 606 OFFCURVE",
"737 608 OFFCURVE",
"730 587 CURVE SMOOTH",
"713 534 LINE SMOOTH",
"708 520 OFFCURVE",
"715 512 OFFCURVE",
"734 512 CURVE SMOOTH",
"834 512 LINE",
"834 478 OFFCURVE",
"796 91 OFFCURVE",
"790 46 CURVE SMOOTH",
"785 10 OFFCURVE",
"775 -31 OFFCURVE",
"802 -31 CURVE SMOOTH",
"848 -31 OFFCURVE",
"913 98 OFFCURVE",
"917 164 CURVE SMOOTH",
"928 351 OFFCURVE",
"948 512 OFFCURVE",
"948 512 CURVE",
"1026 512 LINE",
"1055 512 OFFCURVE",
"1068 509 OFFCURVE",
"1075 531 CURVE SMOOTH",
"1092 584 LINE SMOOTH",
"1097 599 OFFCURVE",
"1090 606 OFFCURVE",
"1071 606 CURVE SMOOTH"
);
}
);
width = 1026;
}
);
leftKerningGroup = VowelA.bn;
note = VowelAa.bn;
rightKerningGroup = VowelA.bn;
unicode = 0986;
},
{
glyphname = VowelI.bn;
lastChange = "2020-07-15 14:37:54 +0000";
layers = (
{
background = {
paths = (
{
closed = 1;
nodes = (
"247 85 OFFCURVE",
"304 92 OFFCURVE",
"354 118 CURVE SMOOTH",
"391 137 OFFCURVE",
"426 165 OFFCURVE",
"456 210 CURVE SMOOTH",
"475 238 OFFCURVE",
"480 280 OFFCURVE",
"480 302 CURVE SMOOTH",
"480 327 OFFCURVE",
"474 355 OFFCURVE",
"462 378 CURVE SMOOTH",
"440 420 OFFCURVE",
"418 449 OFFCURVE",
"364 478 CURVE SMOOTH",
"353 484 OFFCURVE",
"333 492 OFFCURVE",
"312 492 CURVE SMOOTH",
"276 492 OFFCURVE",
"206 458 OFFCURVE",
"184 442 CURVE SMOOTH",
"164 427 OFFCURVE",
"153 413 OFFCURVE",
"139 392 CURVE SMOOTH",
"135 386 OFFCURVE",
"131 377 OFFCURVE",
"131 371 CURVE SMOOTH",
"131 364 OFFCURVE",
"134 357 OFFCURVE",
"144 357 CURVE SMOOTH",
"157 357 OFFCURVE",
"210 376 OFFCURVE",
"224 376 CURVE SMOOTH",
"250 376 OFFCURVE",
"316 316 OFFCURVE",
"316 255 CURVE SMOOTH",
"316 214 OFFCURVE",
"227 189 OFFCURVE",
"196 189 CURVE SMOOTH",
"176 189 OFFCURVE",
"158 200 OFFCURVE",
"143 215 CURVE SMOOTH",
"131 227 OFFCURVE",
"115 244 OFFCURVE",
"101 258 CURVE SMOOTH",
"92 267 OFFCURVE",
"79 278 OFFCURVE",
"65 278 CURVE SMOOTH",
"50 278 OFFCURVE",
"40 266 OFFCURVE",
"25 237 CURVE SMOOTH",
"20 227 OFFCURVE",
"-3 179 OFFCURVE",
"-3 165 CURVE SMOOTH",
"-3 153 OFFCURVE",
"1 144 OFFCURVE",
"14 138 CURVE SMOOTH",
"30 131 OFFCURVE",
"37 127 OFFCURVE",
"48 110 CURVE SMOOTH",
"83 56 OFFCURVE",
"116 10 OFFCURVE",
"163 -37 CURVE SMOOTH",
"201 -75 OFFCURVE",
"275 -121 OFFCURVE",
"309 -121 CURVE SMOOTH",
"345 -121 OFFCURVE",
"398 -74 OFFCURVE",
"418 -48 CURVE SMOOTH",
"439 -21 OFFCURVE",
"463 18 OFFCURVE",
"463 53 CURVE SMOOTH",
"463 83 OFFCURVE",
"460 103 OFFCURVE",
"456 109 CURVE SMOOTH",
"454 112 OFFCURVE",
"452 113 OFFCURVE",
"450 113 CURVE SMOOTH",
"446 113 OFFCURVE",
"443 109 OFFCURVE",
"440 105 CURVE SMOOTH",
"427 88 OFFCURVE",
"411 62 OFFCURVE",
"388 39 CURVE SMOOTH",
"381 32 OFFCURVE",
"371 22 OFFCURVE",
"361 22 CURVE SMOOTH",
"358 22 OFFCURVE",
"350 23 OFFCURVE",
"338 28 CURVE SMOOTH",
"306 41 OFFCURVE",
"270 65 OFFCURVE",
"247 85 CURVE SMOOTH"
);
}
);
};
hints = (
{
horizontal = 1;
place = "{-121, 142.59}";
type = Stem;
},
{
horizontal = 1;
place = "{376, 116.43}";
type = Stem;
},
{
horizontal = 1;
place = "{687.3, 130.51}";
type = Stem;
},
{
place = "{66.75, 91.25}";
type = Stem;
},
{
place = "{385.08, 115.44}";
type = Stem;
},
{
horizontal = 1;
place = "{677.02, 110.98}";
type = Stem;
},
{
horizontal = 1;
place = "{619.79, 10.21}";
type = Stem;
},
{
place = "{315.68, 164.32}";
type = Stem;
},
{
horizontal = 1;
place = "{511, 119}";
type = Stem;
}
);
layerId = "555B79C6-6D98-46E7-9307-77C37975E414";
paths = (
{
closed = 1;
nodes = (
"477 650 OFFCURVE",
"501 685 OFFCURVE",
"500.52 734.69 CURVE SMOOTH",
"500 784 OFFCURVE",
"464 818 OFFCURVE",
"404.07 817.82 CURVE SMOOTH",
"348 818 OFFCURVE",
"219 788 OFFCURVE",
"195.01 788 CURVE SMOOTH",
"179.12 788 OFFCURVE",
"158.01 807.1 OFFCURVE",
"158.01 821 CURVE SMOOTH",
"158.01 832.7 OFFCURVE",
"191.01 853.13 OFFCURVE",
"191.01 860 CURVE SMOOTH",
"191.01 866.13 OFFCURVE",
"170.68 867.13 OFFCURVE",
"159.52 867.13 CURVE SMOOTH",
"113 867 OFFCURVE",
"67 817 OFFCURVE",
"66.76 775.3 CURVE SMOOTH",
"67 712 OFFCURVE",
"131 677 OFFCURVE",
"203.83 677.02 CURVE SMOOTH",
"237.24 677.02 OFFCURVE",
"327 688 OFFCURVE",
"352 688 CURVE SMOOTH",
"380 688 OFFCURVE",
"385.09 673.35 OFFCURVE",
"385 665 CURVE SMOOTH",
"385.09 655.32 OFFCURVE",
"373 634 OFFCURVE",
"351 620 CURVE",
"448 620 LINE"
);
},
{
closed = 1;
nodes = (
"0 629.99 LINE",
"-15 630 OFFCURVE",
"-25 628 OFFCURVE",
"-30 610.99 CURVE SMOOTH",
"-55 532.99 LINE SMOOTH",
"-60.33 518.32 OFFCURVE",
"-53.33 510.99 OFFCURVE",
"-34 510.99 CURVE SMOOTH",
"530.14 510.99 LINE",
"562 511 OFFCURVE",
"572 509 OFFCURVE",
"579.14 529.99 CURVE SMOOTH",
"604.14 607.99 LINE SMOOTH",
"609.38 622.66 OFFCURVE",
"602.33 629.99 OFFCURVE",
"583 629.99 CURVE SMOOTH"
);
},
{
closed = 1;
nodes = (
"295 85 OFFCURVE",
"490 141 OFFCURVE",
"490 302 CURVE SMOOTH",
"490 390 OFFCURVE",
"403 492 OFFCURVE",
"322 492 CURVE SMOOTH",
"286 492 OFFCURVE",
"216 458 OFFCURVE",
"194 442 CURVE SMOOTH",
"170 424 OFFCURVE",
"141 389 OFFCURVE",
"141 371 CURVE SMOOTH",
"141 364 OFFCURVE",
"144 357 OFFCURVE",
"154 357 CURVE SMOOTH",
"167 357 OFFCURVE",
"220 376 OFFCURVE",
"234 376 CURVE SMOOTH",
"260 376 OFFCURVE",
"326 316 OFFCURVE",
"326 255 CURVE SMOOTH",
"326 214 OFFCURVE",
"239 189 OFFCURVE",
"202 189 CURVE SMOOTH",
"157 189 OFFCURVE",
"111 278 OFFCURVE",
"75 278 CURVE SMOOTH",
"60 278 OFFCURVE",
"50 266 OFFCURVE",
"35 237 CURVE SMOOTH",
"30 227 OFFCURVE",
"7 179 OFFCURVE",
"7 165 CURVE SMOOTH",
"7 153 OFFCURVE",
"11 144 OFFCURVE",
"24 138 CURVE SMOOTH",
"40 131 OFFCURVE",
"48 127 OFFCURVE",
"58 110 CURVE SMOOTH",
"131 -14 OFFCURVE",
"252 -121 OFFCURVE",
"319 -121 CURVE SMOOTH",
"376 -121 OFFCURVE",
"473 -16 OFFCURVE",
"473 53 CURVE SMOOTH",
"473 77 OFFCURVE",
"472 113 OFFCURVE",
"461 113 CURVE SMOOTH",
"443 113 OFFCURVE",
"403 22 OFFCURVE",
"371 22 CURVE SMOOTH",
"346 22 OFFCURVE",
"280 65 OFFCURVE",
"257 85 CURVE"
);
}
);
width = 530;
},
{
layerId = "9F2BC935-6AE7-4E60-84C9-D3B586669EA4";
width = 600;
}
);
leftKerningGroup = VowelA.bn;
note = VowelI.bn;
rightKerningGroup = VowelA.bn;
unicode = 0987;
},
{
glyphname = VowelIi.bn;
lastChange = "2020-07-15 14:37:54 +0000";
layers = (
{
hints = (
{
horizontal = 1;
place = "{-119.88, 113.17}";
type = Stem;
},
{
horizontal = 1;
place = "{36.59, 141.51}";
type = Stem;
},
{
horizontal = 1;
place = "{371.39, 122.69}";
type = Stem;
},
{
place = "{120.75, 91.25}";
type = Stem;
},
{
place = "{350.24, 132.37}";
type = Stem;
},
{
horizontal = 1;
place = "{687.3, 130.51}";
type = Stem;
},
{
place = "{439.08, 115.44}";
type = Stem;
},
{
horizontal = 1;
place = "{677.02, 110.98}";
type = Stem;
},
{
horizontal = 1;
place = "{619.79, 10.21}";
type = Stem;
},
{
horizontal = 1;
place = "{511, 119}";
type = Stem;
}
);
layerId = "555B79C6-6D98-46E7-9307-77C37975E414";
paths = (
{
closed = 1;
nodes = (
"314.4 338.23 OFFCURVE",
"314.24 391.95 OFFCURVE",
"291.99 424.84 CURVE SMOOTH",
"263 468 OFFCURVE",
"223 494 OFFCURVE",
"175.63 494.08 CURVE SMOOTH",
"139.6 494.08 OFFCURVE",
"91.31 462.63 OFFCURVE",
"61.35 431.74 CURVE SMOOTH",
"45 415 OFFCURVE",
"22 373 OFFCURVE",
"21.83 354.57 CURVE SMOOTH",
"21.83 346.02 OFFCURVE",
"26.51 340.94 OFFCURVE",
"34.72 340.94 CURVE SMOOTH",
"51.42 340.94 OFFCURVE",
"102.71 371.39 OFFCURVE",
"121.52 371.39 CURVE SMOOTH",
"143.93 371.39 OFFCURVE",
"179.67 316.92 OFFCURVE",
"179.67 288.14 CURVE SMOOTH",
"179.67 257.05 OFFCURVE",
"141 210 OFFCURVE",
"122 196 CURVE SMOOTH",
"101 181 OFFCURVE",
"75.28 178.1 OFFCURVE",
"43.25 178.1 CURVE SMOOTH",
"14 178 OFFCURVE",
"0 176 OFFCURVE",
"0 153 CURVE SMOOTH",
"0 124 OFFCURVE",
"31 36 OFFCURVE",
"58 36 CURVE SMOOTH",
"121 36 OFFCURVE",
"248 111 OFFCURVE",
"318.8 163.61 CURVE SMOOTH",
"359.91 194.23 OFFCURVE",
"396.73 223.39 OFFCURVE",
"396.73 223.39 CURVE",
"396.73 223.39 OFFCURVE",
"350.23 129.78 OFFCURVE",
"350.23 11.42 CURVE SMOOTH",
"350.23 -28.08 OFFCURVE",
"444.17 -119.88 OFFCURVE",
"478.33 -119.88 CURVE SMOOTH",
"531 -120 OFFCURVE",
"600 -56 OFFCURVE",
"600 2 CURVE SMOOTH",
"600 11 OFFCURVE",
"600 28 OFFCURVE",
"590.94 27.74 CURVE SMOOTH",
"578 28 OFFCURVE",
"553 -7 OFFCURVE",
"540.22 -6.72 CURVE SMOOTH",
"525.21 -6.72 OFFCURVE",
"482.59 28.5 OFFCURVE",
"482.59 44.51 CURVE SMOOTH",
"482.59 77.62 OFFCURVE",
"506.59 176.42 OFFCURVE",
"530.16 244.74 CURVE SMOOTH",
"539.69 271.43 OFFCURVE",
"588.87 288.29 OFFCURVE",
"588.87 303.45 CURVE SMOOTH",
"588.87 331.2 OFFCURVE",
"537.5 419.35 OFFCURVE",
"515.08 419.35 CURVE SMOOTH",
"492.66 419.35 OFFCURVE",
"384.84 367.04 OFFCURVE",
"309.45 307.12 CURVE"
);
},
{
closed = 1;
nodes = (
"585 689 OFFCURVE",
"584 731 CURVE SMOOTH",
"583 783 OFFCURVE",
"550 818 OFFCURVE",
"488 818 CURVE SMOOTH",
"432 818 OFFCURVE",
"263 788 OFFCURVE",
"239 788 CURVE SMOOTH",
"223 788 OFFCURVE",
"202 807 OFFCURVE",
"202 821 CURVE SMOOTH",
"202 833 OFFCURVE",
"235 853 OFFCURVE",
"235 860 CURVE SMOOTH",
"235 866 OFFCURVE",
"215 867 OFFCURVE",
"204 867 CURVE SMOOTH",
"157 867 OFFCURVE",
"111 817 OFFCURVE",
"111 775 CURVE SMOOTH",
"111 712 OFFCURVE",
"175 677 OFFCURVE",
"248 677 CURVE SMOOTH",
"281 677 OFFCURVE",
"411 687 OFFCURVE",
"436 687 CURVE SMOOTH",
"464 687 OFFCURVE",
"469 673 OFFCURVE",
"469 668 CURVE SMOOTH",
"469 655 OFFCURVE",
"457 634 OFFCURVE",
"435 620 CURVE",
"532 620 LINE",
"564 653 OFFCURVE"
);
},
{
closed = 1;
nodes = (
"0 629.99 LINE",
"-32 630 OFFCURVE",
"-42 632 OFFCURVE",
"-49 610.99 CURVE SMOOTH",
"-74 532.99 LINE SMOOTH",
"-79.33 518.32 OFFCURVE",
"-72.33 510.99 OFFCURVE",
"-53 510.99 CURVE SMOOTH",
"630.14 510.99 LINE",
"662 511 OFFCURVE",
"672 509 OFFCURVE",
"679.14 529.99 CURVE SMOOTH",
"704.14 607.99 LINE SMOOTH",
"709.38 622.66 OFFCURVE",
"702.33 629.99 OFFCURVE",
"683 629.99 CURVE SMOOTH"
);
}
);
width = 630;
},
{
layerId = "9F2BC935-6AE7-4E60-84C9-D3B586669EA4";
width = 600;
}
);
leftKerningGroup = VowelA.bn;
note = VowelIi.bn;
rightKerningGroup = VowelA.bn;
unicode = 0988;
},
{
glyphname = VowelU.bn;
lastChange = "2020-07-15 14:37:54 +0000";
layers = (
{
hints = (
{
horizontal = 1;
place = "{-25.04, 119.8}";
type = Stem;
},
{
place = "{31.36, 141.86}";
type = Stem;
},
{
place = "{420.52, 164.08}";
type = Stem;
},
{
horizontal = 1;
place = "{687.3, 130.51}";
type = Stem;
},
{
place = "{140.75, 91.25}";
type = Stem;
},
{
place = "{459.08, 115.44}";
type = Stem;
},
{
horizontal = 1;
place = "{677.02, 110.98}";
type = Stem;
},
{
horizontal = 1;
place = "{619.79, 10.21}";
type = Stem;
},
{
horizontal = 1;
place = "{511, 119}";
type = Stem;
}
);
layerId = "555B79C6-6D98-46E7-9307-77C37975E414";
paths = (
{
closed = 1;
nodes = (
"409.41 534.2 LINE",
"271.04 537.43 LINE",
"271.04 537.43 OFFCURVE",
"257.74 433.26 OFFCURVE",
"247.64 308.63 CURVE SMOOTH",
"248 283 OFFCURVE",
"288 234 OFFCURVE",
"306.39 233.82 CURVE SMOOTH",
"323 234 OFFCURVE",
"314 270 OFFCURVE",
"329.62 276.7 CURVE SMOOTH",
"337 280 OFFCURVE",
"368.63 290.94 OFFCURVE",
"383.46 290.94 CURVE SMOOTH",
"403.2 290.94 OFFCURVE",
"420.51 230.35 OFFCURVE",
"420.51 193.27 CURVE SMOOTH",
"421 143 OFFCURVE",
"329 95 OFFCURVE",
"279 94.76 CURVE SMOOTH",
"209 95 OFFCURVE",
"173 198 OFFCURVE",
"173.21 291.6 CURVE SMOOTH",
"173 374 OFFCURVE",
"192 419 OFFCURVE",
"191.76 464.15 CURVE SMOOTH",
"191.76 470.74 OFFCURVE",
"191 479 OFFCURVE",
"178.16 478.64 CURVE SMOOTH",
"135 479 OFFCURVE",
"31 329 OFFCURVE",
"31 225 CURVE SMOOTH",
"32 91 OFFCURVE",
"128 -25 OFFCURVE",
"272.75 -25.04 CURVE SMOOTH",
"439 -25 OFFCURVE",
"585 95 OFFCURVE",
"584.59 266.26 CURVE SMOOTH",
"585 321 OFFCURVE",
"536 423 OFFCURVE",
"483.2 423.49 CURVE SMOOTH",
"443.12 423.49 OFFCURVE",
"394.09 395.15 OFFCURVE",
"394.09 395.15 CURVE"
);
},
{
closed = 1;
nodes = (
"585 689 OFFCURVE",
"585 735 CURVE SMOOTH",
"585 784 OFFCURVE",
"548 818 OFFCURVE",
"488 818 CURVE SMOOTH",
"432 818 OFFCURVE",
"283 788 OFFCURVE",
"259 788 CURVE SMOOTH",
"243 788 OFFCURVE",
"222 807 OFFCURVE",
"222 821 CURVE SMOOTH",
"222 833 OFFCURVE",
"255 853 OFFCURVE",
"255 860 CURVE SMOOTH",
"255 866 OFFCURVE",
"235 867 OFFCURVE",
"224 867 CURVE SMOOTH",
"177 867 OFFCURVE",
"131 817 OFFCURVE",
"131 775 CURVE SMOOTH",
"131 712 OFFCURVE",
"195 677 OFFCURVE",
"268 677 CURVE SMOOTH",
"301 677 OFFCURVE",
"411 688 OFFCURVE",
"436 688 CURVE SMOOTH",
"464 688 OFFCURVE",
"469 673 OFFCURVE",
"469 668 CURVE SMOOTH",
"469 655 OFFCURVE",
"457 633 OFFCURVE",
"435 619 CURVE",
"532 620 LINE",
"561 651 OFFCURVE"
);
},
{
closed = 1;
nodes = (
"0.01 630 LINE",
"-32 630 OFFCURVE",
"-42 632 OFFCURVE",
"-48.99 611 CURVE SMOOTH",
"-73.99 533 LINE SMOOTH",
"-79.32 518.33 OFFCURVE",
"-72.32 511 OFFCURVE",
"-52.99 511 CURVE SMOOTH",
"650.15 511 LINE",
"682 511 OFFCURVE",
"692 509 OFFCURVE",
"699.15 530 CURVE SMOOTH",
"724.15 608 LINE SMOOTH",
"729.39 622.67 OFFCURVE",
"722.34 630 OFFCURVE",
"703.01 630 CURVE SMOOTH"
);
}
);
width = 650;
},
{
layerId = "9F2BC935-6AE7-4E60-84C9-D3B586669EA4";
width = 600;
}
);
leftKerningGroup = VowelA.bn;
note = VowelU.bn;
rightKerningGroup = VowelA.bn;
unicode = 0989;
},
{
glyphname = VowelUu.bn;
lastChange = "2020-07-15 14:37:54 +0000";
layers = (
{
background = {
paths = (
{
closed = 1;
nodes = (
"414 534 LINE",
"276 537 LINE",
"276 537 OFFCURVE",
"263 433 OFFCURVE",
"253 309 CURVE SMOOTH",
"251 283 OFFCURVE",
"293 234 OFFCURVE",
"311 234 CURVE SMOOTH",
"328 234 OFFCURVE",
"319 270 OFFCURVE",
"335 277 CURVE SMOOTH",
"342 280 OFFCURVE",
"374 291 OFFCURVE",
"388 291 CURVE SMOOTH",
"408 291 OFFCURVE",
"426 230 OFFCURVE",
"426 193 CURVE SMOOTH",
"426 143 OFFCURVE",
"334 95 OFFCURVE",
"284 95 CURVE SMOOTH",
"214 95 OFFCURVE",
"178 198 OFFCURVE",
"178 292 CURVE SMOOTH",
"178 374 OFFCURVE",
"197 419 OFFCURVE",
"197 464 CURVE SMOOTH",
"197 471 OFFCURVE",
"196 479 OFFCURVE",
"183 479 CURVE SMOOTH",
"140 479 OFFCURVE",
"36 329 OFFCURVE",
"36 225 CURVE SMOOTH",
"36 91 OFFCURVE",
"133 -25 OFFCURVE",
"278 -25 CURVE SMOOTH",
"444 -25 OFFCURVE",
"590 95 OFFCURVE",
"590 266 CURVE SMOOTH",
"590 321 OFFCURVE",
"541 423 OFFCURVE",
"488 423 CURVE SMOOTH",
"448 423 OFFCURVE",
"399 395 OFFCURVE",
"399 395 CURVE"
);
},
{
closed = 1;
nodes = (
"585 689 OFFCURVE",
"585 735 CURVE SMOOTH",
"585 784 OFFCURVE",
"548 818 OFFCURVE",
"488 818 CURVE SMOOTH",
"432 818 OFFCURVE",
"283 788 OFFCURVE",
"259 788 CURVE SMOOTH",
"243 788 OFFCURVE",
"222 807 OFFCURVE",
"222 821 CURVE SMOOTH",
"222 833 OFFCURVE",
"255 853 OFFCURVE",
"255 860 CURVE SMOOTH",
"255 866 OFFCURVE",
"235 867 OFFCURVE",
"224 867 CURVE SMOOTH",
"177 867 OFFCURVE",
"131 817 OFFCURVE",
"131 775 CURVE SMOOTH",
"131 712 OFFCURVE",
"195 677 OFFCURVE",
"268 677 CURVE SMOOTH",
"301 677 OFFCURVE",
"411 688 OFFCURVE",
"436 688 CURVE SMOOTH",
"464 688 OFFCURVE",
"469 673 OFFCURVE",
"469 668 CURVE SMOOTH",
"469 655 OFFCURVE",
"457 633 OFFCURVE",
"435 619 CURVE",
"532 620 LINE",
"561 651 OFFCURVE"
);
},
{
closed = 1;
nodes = (
"0.01 630 LINE",
"-32 630 OFFCURVE",
"-42 632 OFFCURVE",
"-48.99 611 CURVE SMOOTH",
"-73.99 533 LINE SMOOTH",
"-79.32 518.33 OFFCURVE",
"-72.32 511 OFFCURVE",
"-52.99 511 CURVE SMOOTH",
"650.15 511 LINE",
"682 511 OFFCURVE",
"692 509 OFFCURVE",
"699.15 530 CURVE SMOOTH",
"724.15 608 LINE SMOOTH",
"729.39 622.67 OFFCURVE",
"722.34 630 OFFCURVE",
"703.01 630 CURVE SMOOTH"
);
}
);
};
hints = (
{
horizontal = 1;
place = "{-25.04, 118.8}";
type = Stem;
},
{
horizontal = 1;
place = "{687.3, 130.51}";
type = Stem;
},
{
place = "{-15.31, 74.3}";
type = Stem;
},
{
place = "{120.75, 91.25}";
type = Stem;
},
{
place = "{439.08, 115.44}";
type = Stem;
},
{
horizontal = 1;
place = "{677.02, 110.98}";
type = Stem;
},
{
horizontal = 1;
place = "{619.79, 10.21}";
type = Stem;
},
{
place = "{80, 98.22}";
type = Stem;
},
{
place = "{425.52, 164.08}";
type = Stem;
},
{
horizontal = 1;
place = "{511, 119}";
type = Stem;
}
);
layerId = "555B79C6-6D98-46E7-9307-77C37975E414";
paths = (
{
closed = 1;
nodes = (
"445 -25 OFFCURVE",
"590 95 OFFCURVE",
"589.61 266.26 CURVE SMOOTH",
"590 321 OFFCURVE",
"540 423 OFFCURVE",
"488.22 423.49 CURVE SMOOTH",
"448.53 423.49 OFFCURVE",
"399.11 395.15 OFFCURVE",
"399.11 395.15 CURVE",
"414.43 534.2 LINE",
"276.02 537.49 LINE",
"276.02 537.49 OFFCURVE",
"263.02 433 OFFCURVE",
"252.66 308.63 CURVE SMOOTH",
"251 285 OFFCURVE",
"293 234 OFFCURVE",
"311.41 233.82 CURVE SMOOTH",
"328 234 OFFCURVE",
"323 265 OFFCURVE",
"334.64 276.7 CURVE SMOOTH",
"342.64 280.79 OFFCURVE",
"373.8 290.94 OFFCURVE",
"388.48 290.94 CURVE SMOOTH",
"408.03 290.94 OFFCURVE",
"425.53 230.08 OFFCURVE",
"425.53 193.27 CURVE SMOOTH",
"426 144 OFFCURVE",
"333 94 OFFCURVE",
"284.02 93.76 CURVE SMOOTH",
"217 94 OFFCURVE",
"178 193 OFFCURVE",
"178.23 291.6 CURVE SMOOTH",
"178 374 OFFCURVE",
"197 419 OFFCURVE",
"196.78 464.15 CURVE SMOOTH",
"196.78 470.69 OFFCURVE",
"196.35 478.64 OFFCURVE",
"183.18 478.64 CURVE SMOOTH",
"170 479 OFFCURVE",
"147 449 OFFCURVE",
"121 399 CURVE SMOOTH",
"96 352 OFFCURVE",
"80 298 OFFCURVE",
"80.02 211.17 CURVE",
"74.02 229.57 OFFCURVE",
"68.73 275.1 OFFCURVE",
"67.05 288.72 CURVE SMOOTH",
"60 349 OFFCURVE",
"72 420 OFFCURVE",
"46.02 419.76 CURVE SMOOTH",
"29.02 419.76 OFFCURVE",
"-15.29 319.22 OFFCURVE",
"-15.29 239.87 CURVE SMOOTH",
"-15 67 OFFCURVE",
"101 -25 OFFCURVE",
"277.78 -25.04 CURVE SMOOTH"
);
},
{
closed = 1;
nodes = (
"0.02 630 LINE",
"-32 630 OFFCURVE",
"-42 632 OFFCURVE",
"-48.98 611 CURVE SMOOTH",
"-73.98 533 LINE SMOOTH",
"-79.31 518.33 OFFCURVE",
"-72.31 511 OFFCURVE",
"-52.98 511 CURVE SMOOTH",
"670.16 511 LINE",
"702 511 OFFCURVE",
"712 509 OFFCURVE",
"719.16 530 CURVE SMOOTH",
"744.16 608 LINE SMOOTH",
"749.4 622.67 OFFCURVE",
"742.35 630 OFFCURVE",
"723.02 630 CURVE SMOOTH"
);
},
{
closed = 1;
nodes = (
"561 651 OFFCURVE",
"585 689 OFFCURVE",
"585 735 CURVE SMOOTH",
"585 784 OFFCURVE",
"548 818 OFFCURVE",
"488 818 CURVE SMOOTH",
"432 818 OFFCURVE",
"283 788 OFFCURVE",
"259 788 CURVE SMOOTH",
"243 788 OFFCURVE",
"222 807 OFFCURVE",
"222 821 CURVE SMOOTH",
"222 833 OFFCURVE",
"255 853 OFFCURVE",
"255 860 CURVE SMOOTH",
"255 866 OFFCURVE",
"235 867 OFFCURVE",
"224 867 CURVE SMOOTH",
"177 867 OFFCURVE",
"131 817 OFFCURVE",
"131 775 CURVE SMOOTH",
"131 712 OFFCURVE",
"195 677 OFFCURVE",
"268 677 CURVE SMOOTH",
"301 677 OFFCURVE",
"411 688 OFFCURVE",
"436 688 CURVE SMOOTH",
"464 688 OFFCURVE",
"469 673 OFFCURVE",
"469 668 CURVE SMOOTH",
"469 655 OFFCURVE",
"457 633 OFFCURVE",
"435 619 CURVE",
"532 620 LINE"
);
}
);
width = 670;
},
{
layerId = "9F2BC935-6AE7-4E60-84C9-D3B586669EA4";
width = 600;
}
);
leftKerningGroup = VowelA.bn;
note = VowelUu.bn;
rightKerningGroup = VowelA.bn;
unicode = 098A;
},
{
glyphname = VowelRu.bn;
lastChange = "2020-07-15 14:37:54 +0000";
layers = (
{
background = {
paths = (
{
closed = 1;
nodes = (
"878 511 LINE",
"910 511 OFFCURVE",
"920 509 OFFCURVE",
"927 530 CURVE SMOOTH",
"952 608 LINE SMOOTH",
"961 632 OFFCURVE",
"944 630 OFFCURVE",
"878 630 CURVE",
"825 630 LINE SMOOTH",
"749 630 OFFCURVE",
"700 588 OFFCURVE",
"690 511 CURVE SMOOTH",
"665 330 OFFCURVE",
"671 247 OFFCURVE",
"649 83 CURVE SMOOTH",
"644.18 46.82 OFFCURVE",
"631.71 -1 OFFCURVE",
"668 -1 CURVE SMOOTH",
"731 -1 OFFCURVE",
"795 114 OFFCURVE",
"800 194 CURVE SMOOTH",
"811.93 380.94 OFFCURVE",
"830 511 OFFCURVE",
"830 511 CURVE"
);
},
{
closed = 1;
nodes = (
"575 209 LINE",
"606 188 OFFCURVE",
"642 146 OFFCURVE",
"653 102 CURVE",
"713.36 208.27 LINE",
"649 312 OFFCURVE",
"560 340 OFFCURVE",
"560 340 CURVE"
);
},
{
closed = 1;
nodes = (
"480 630 LINE",
"480 630 OFFCURVE",
"444 340 OFFCURVE",
"437.12 170 CURVE SMOOTH",
"436.31 149.91 OFFCURVE",
"436 112 OFFCURVE",
"436 112 CURVE",
"394 120 OFFCURVE",
"339 158 OFFCURVE",
"312 187 CURVE SMOOTH",
"275 227 OFFCURVE",
"248 277 OFFCURVE",
"248 277 CURVE",
"248 277 OFFCURVE",
"311 272.68 OFFCURVE",
"357 272.68 CURVE SMOOTH",
"384 272.68 OFFCURVE",
"478.56 274.57 OFFCURVE",
"496.14 277 CURVE",
"512 401 LINE",
"512 401 OFFCURVE",
"473 397 OFFCURVE",
"325 397 CURVE SMOOTH",
"249 397 OFFCURVE",
"202 400 OFFCURVE",
"145 400 CURVE SMOOTH",
"101.99 400 OFFCURVE",
"79 396 OFFCURVE",
"68 367 CURVE SMOOTH",
"59.6 344.84 OFFCURVE",
"56 334 OFFCURVE",
"49 311 CURVE SMOOTH",
"43.28 292.2 OFFCURVE",
"44.55 281.42 OFFCURVE",
"67 273 CURVE SMOOTH",
"91 264 OFFCURVE",
"104.07 257.6 OFFCURVE",
"111 244 CURVE SMOOTH",
"138 191 OFFCURVE",
"163.76 142.71 OFFCURVE",
"223 87 CURVE SMOOTH",
"290 24 OFFCURVE",
"409 -21 OFFCURVE",
"443 -21 CURVE SMOOTH",
"500 -21 OFFCURVE",
"570 95 OFFCURVE",
"575 174 CURVE SMOOTH",
"584.84 328.14 OFFCURVE",
"615 608 OFFCURVE",
"615 608 CURVE",
"617 625 OFFCURVE",
"607.19 630 OFFCURVE",
"587.86 630 CURVE SMOOTH"
);
},
{
closed = 1;
nodes = (
"238 549 OFFCURVE",
"203 578 OFFCURVE",
"203.01 597 CURVE SMOOTH",
"203 615 OFFCURVE",
"231 641 OFFCURVE",
"231.01 653 CURVE SMOOTH",
"231.01 658.06 OFFCURVE",
"228.01 660 OFFCURVE",
"223.01 660 CURVE SMOOTH",
"176 660 OFFCURVE",
"111 596 OFFCURVE",
"111 539 CURVE SMOOTH",
"111 481 OFFCURVE",
"182 438 OFFCURVE",
"258 438 CURVE SMOOTH",
"321 438 OFFCURVE",
"370.02 478 OFFCURVE",
"370.02 478 CURVE",
"413.02 444 OFFCURVE",
"448.71 374.7 OFFCURVE",
"448.71 374.7 CURVE",
"500.71 376.7 LINE",
"525.02 448 LINE",
"522 448 OFFCURVE",
"430 617 OFFCURVE",
"385 617 CURVE SMOOTH",
"365 617 OFFCURVE",
"300 549 OFFCURVE",
"263 549 CURVE SMOOTH"
);
}
);
};
hints = (
{
horizontal = 1;
place = "{-21, 133}";
type = Stem;
},
{
horizontal = 1;
place = "{374.7, 22.3}";
type = Stem;
},
{
horizontal = 1;
place = "{511, 119}";
type = Stem;
},
{
horizontal = 1;
place = "{660, -20}";
target = down;
type = TopGhost;
},
{
place = "{111.27, 91.73}";
type = Stem;
},
{
horizontal = 1;
place = "{438.27, 110.46}";
type = Stem;
},
{
horizontal = 1;
place = "{617, -20}";
target = down;
type = TopGhost;
}
);
layerId = "555B79C6-6D98-46E7-9307-77C37975E414";
paths = (
{
closed = 1;
nodes = (
"878 511 LINE",
"910 511 OFFCURVE",
"920 509 OFFCURVE",
"927 530 CURVE SMOOTH",
"952 608 LINE SMOOTH",
"961 632 OFFCURVE",
"944 630 OFFCURVE",
"878 630 CURVE",
"825 630 LINE SMOOTH",
"749 630 OFFCURVE",
"700 588 OFFCURVE",
"690 511 CURVE SMOOTH",
"665 330 OFFCURVE",
"671 247 OFFCURVE",
"649 83 CURVE SMOOTH",
"644.18 46.82 OFFCURVE",
"631.71 -1 OFFCURVE",
"668 -1 CURVE SMOOTH",
"731 -1 OFFCURVE",
"795 114 OFFCURVE",
"800 194 CURVE SMOOTH",
"811.93 380.94 OFFCURVE",
"830 511 OFFCURVE",
"830 511 CURVE"
);
},
{
closed = 1;
nodes = (
"575 209 LINE",
"606 188 OFFCURVE",
"642 146 OFFCURVE",
"653 102 CURVE",
"713.36 208.27 LINE",
"649 312 OFFCURVE",
"560 340 OFFCURVE",
"560 340 CURVE"
);
},
{
closed = 1;
nodes = (
"480 630 LINE",
"480 630 OFFCURVE",
"444 340 OFFCURVE",
"437.12 170 CURVE SMOOTH",
"436.31 149.91 OFFCURVE",
"436 112 OFFCURVE",
"436 112 CURVE",
"414 112 OFFCURVE",
"309 159 OFFCURVE",
"248 277 CURVE",
"248 277 OFFCURVE",
"311 272.68 OFFCURVE",
"357 272.68 CURVE SMOOTH",
"384 272.68 OFFCURVE",
"478.56 274.57 OFFCURVE",
"496.14 277 CURVE",
"512 401 LINE",
"512 401 OFFCURVE",
"473 397 OFFCURVE",
"325 397 CURVE SMOOTH",
"249 397 OFFCURVE",
"202 400 OFFCURVE",
"145 400 CURVE SMOOTH",
"101.99 400 OFFCURVE",
"79 396 OFFCURVE",
"68 367 CURVE SMOOTH",
"60 345 OFFCURVE",
"46 308 OFFCURVE",
"46 294 CURVE SMOOTH",
"46 285 OFFCURVE",
"52 278 OFFCURVE",
"67 273 CURVE SMOOTH",
"91 264 OFFCURVE",
"105 258 OFFCURVE",
"111 244 CURVE SMOOTH",
"167 117 OFFCURVE",
"309 -21 OFFCURVE",
"443 -21 CURVE SMOOTH",
"500 -21 OFFCURVE",
"570 95 OFFCURVE",
"575 174 CURVE SMOOTH",
"584.84 328.14 OFFCURVE",
"615 608 OFFCURVE",
"615 608 CURVE",
"617 625 OFFCURVE",
"607.19 630 OFFCURVE",
"587.86 630 CURVE SMOOTH"
);
},
{
closed = 1;
nodes = (
"238 549 OFFCURVE",
"203 578 OFFCURVE",
"203.01 597 CURVE SMOOTH",
"203 615 OFFCURVE",
"231 641 OFFCURVE",
"231.01 653 CURVE SMOOTH",
"231.01 658.06 OFFCURVE",
"228.01 660 OFFCURVE",
"223.01 660 CURVE SMOOTH",
"176 660 OFFCURVE",
"111 596 OFFCURVE",
"111 539 CURVE SMOOTH",
"111 481 OFFCURVE",
"182 438 OFFCURVE",
"258 438 CURVE SMOOTH",
"321 438 OFFCURVE",
"370.02 478 OFFCURVE",
"370.02 478 CURVE",
"413.02 444 OFFCURVE",
"448.71 374.7 OFFCURVE",
"448.71 374.7 CURVE",
"500.71 376.7 LINE",
"525.02 448 LINE",
"522 448 OFFCURVE",
"430 617 OFFCURVE",
"385 617 CURVE SMOOTH",
"365 617 OFFCURVE",
"300 549 OFFCURVE",
"263 549 CURVE SMOOTH"
);
}
);
width = 878;
},
{
layerId = "9F2BC935-6AE7-4E60-84C9-D3B586669EA4";
width = 600;
}
);
note = VowelRu.bn;
unicode = 098B;
},
{
glyphname = VowelLru.bn;
lastChange = "2020-07-15 14:37:54 +0000";
layers = (
{
hints = (
{
horizontal = 1;
place = "{64.58, 106.8}";
type = Stem;
},
{
horizontal = 1;
place = "{300.61, 122.62}";
type = Stem;
},
{
place = "{161.4, 141.69}";
type = Stem;
},
{
place = "{437.39, 153.39}";
type = Stem;
},
{
place = "{203.15, 133.54}";
type = Stem;
}
);
layerId = "555B79C6-6D98-46E7-9307-77C37975E414";
paths = (
{
closed = 1;
nodes = (
"155 40 OFFCURVE",
"215 -5 OFFCURVE",
"299 -5 CURVE SMOOTH",
"448 -5 OFFCURVE",
"591 138 OFFCURVE",
"591 275 CURVE SMOOTH",
"591 396 OFFCURVE",
"303 546 OFFCURVE",
"303.09 648.8 CURVE SMOOTH",
"303 678 OFFCURVE",
"382 710 OFFCURVE",
"381.53 725.45 CURVE SMOOTH",
"382 736 OFFCURVE",
"333 746 OFFCURVE",
"306.87 745.6 CURVE SMOOTH",
"261 746 OFFCURVE",
"161 676 OFFCURVE",
"161.4 635.24 CURVE SMOOTH",
"161 499 OFFCURVE",
"437 371 OFFCURVE",
"437.38 266.66 CURVE SMOOTH",
"437 221 OFFCURVE",
"371 130 OFFCURVE",
"319 130 CURVE SMOOTH",
"297 130 OFFCURVE",
"275 136 OFFCURVE",
"275.16 136.2 CURVE",
"275.16 136.2 OFFCURVE",
"336.68 204.98 OFFCURVE",
"336.68 281.75 CURVE SMOOTH",
"337 351 OFFCURVE",
"223 423 OFFCURVE",
"134.68 423.22 CURVE SMOOTH",
"82 423 OFFCURVE",
"24 326 OFFCURVE",
"24 273 CURVE SMOOTH",
"23.5 259 OFFCURVE",
"29.83 255.8 OFFCURVE",
"36.13 255.8 CURVE SMOOTH",
"51.99 255.8 OFFCURVE",
"96.67 300.6 OFFCURVE",
"114.4 300.6 CURVE SMOOTH",
"137.99 300.6 OFFCURVE",
"203.13 285.99 OFFCURVE",
"203.13 259.2 CURVE SMOOTH",
"203.13 227.85 OFFCURVE",
"169.99 171.37 OFFCURVE",
"135.82 171.37 CURVE SMOOTH",
"105.68 171.37 OFFCURVE",
"98.14 174.6 OFFCURVE",
"84.7 154.1 CURVE SMOOTH",
"66 125 OFFCURVE",
"48 100 OFFCURVE",
"48 85 CURVE SMOOTH",
"48 76 OFFCURVE",
"53 68 OFFCURVE",
"66.14 64.58 CURVE SMOOTH"
);
}
);
width = 650;
},
{
layerId = "9F2BC935-6AE7-4E60-84C9-D3B586669EA4";
width = 600;
}
);
note = VowelLru.bn;
unicode = 098C;
},
{
glyphname = VowelE.bn;
lastChange = "2020-07-15 14:37:54 +0000";
layers = (
{
background = {
paths = (
{
closed = 1;
nodes = (
"590 520 OFFCURVE",
"513 633 OFFCURVE",
"415.79 633.43 CURVE SMOOTH",
"355 633 OFFCURVE",
"236 556 OFFCURVE",
"234.72 503.04 CURVE SMOOTH",
"234.72 496.51 OFFCURVE",
"237.47 489.57 OFFCURVE",
"248 489.57 CURVE SMOOTH",
"260.31 489.57 OFFCURVE",
"312.29 511.57 OFFCURVE",
"329 511.57 CURVE SMOOTH",
"360.8 511.57 OFFCURVE",
"448.31 435 OFFCURVE",
"440.99 379 CURVE SMOOTH",
"422.99 270 OFFCURVE",
"411.99 189 OFFCURVE",
"408.99 122 CURVE",
"363.99 117 OFFCURVE",
"248.15 122.26 OFFCURVE",
"202.99 144 CURVE SMOOTH",
"175.99 157 OFFCURVE",
"159.74 179.43 OFFCURVE",
"154.99 204 CURVE SMOOTH",
"150.92 225.05 OFFCURVE",
"151.99 249.67 OFFCURVE",
"151.99 263 CURVE SMOOTH",
"151.99 278.27 OFFCURVE",
"153.94 301.21 OFFCURVE",
"155.05 314.44 CURVE SMOOTH",
"158.94 360.58 OFFCURVE",
"165.48 390.06 OFFCURVE",
"165.48 413.15 CURVE SMOOTH",
"165.48 419.48 OFFCURVE",
"163.19 428.06 OFFCURVE",
"152.9 428.06 CURVE SMOOTH",
"140 428 OFFCURVE",
"103 394 OFFCURVE",
"68 347 CURVE SMOOTH",
"36 305 OFFCURVE",
"15 256 OFFCURVE",
"15.35 198.63 CURVE SMOOTH",
"15.35 163.2 OFFCURVE",
"32.98 89 OFFCURVE",
"88.37 41.74 CURVE SMOOTH",
"136.16 0.96 OFFCURVE",
"198.52 -16.97 OFFCURVE",
"255.87 -16.97 CURVE SMOOTH",
"337.9 -16.9 OFFCURVE",
"393.09 13.82 OFFCURVE",
"412.35 13.82 CURVE SMOOTH",
"427.17 13.82 OFFCURVE",
"435.35 4.86 OFFCURVE",
"452.09 -8.69 CURVE SMOOTH",
"458.8 -14.12 OFFCURVE",
"463.98 -16.59 OFFCURVE",
"468.99 -16.59 CURVE SMOOTH",
"473.99 -16.59 OFFCURVE",
"480.65 -12.25 OFFCURVE",
"487.27 -5.54 CURVE SMOOTH",
"500.94 8.32 OFFCURVE",
"542.5 52.5 OFFCURVE",
"555.99 67.99 CURVE SMOOTH",
"561.56 74.39 OFFCURVE",
"563.99 80.93 OFFCURVE",
"563.99 86.99 CURVE SMOOTH",
"563.99 103.99 OFFCURVE",
"540.46 118.98 OFFCURVE",
"540.99 142.99 CURVE SMOOTH",
"542.82 226 OFFCURVE",
"558.99 289.99 OFFCURVE",
"575.99 416.99 CURVE SMOOTH"
);
}
);
};
hints = (
{
horizontal = 1;
place = "{-16.97, 138.97}";
type = Stem;
},
{
horizontal = 1;
place = "{489.57, 21}";
target = up;
type = BottomGhost;
},
{
horizontal = 1;
place = "{511.57, 121.86}";
type = Stem;
},
{
place = "{15.37, 136.63}";
type = Stem;
},
{
place = "{409, 132}";
type = Stem;
}
);
layerId = "555B79C6-6D98-46E7-9307-77C37975E414";
paths = (
{
closed = 1;
nodes = (
"590 520 OFFCURVE",
"513 633 OFFCURVE",
"415.79 633.43 CURVE SMOOTH",
"355 633 OFFCURVE",
"236 556 OFFCURVE",
"234.72 503.04 CURVE SMOOTH",
"234.72 496.51 OFFCURVE",
"237.47 489.57 OFFCURVE",
"248 489.57 CURVE SMOOTH",
"260.31 489.57 OFFCURVE",
"312.29 511.57 OFFCURVE",
"329 511.57 CURVE SMOOTH",
"360.8 511.57 OFFCURVE",
"448.31 435 OFFCURVE",
"440.99 379 CURVE SMOOTH",
"422.99 270 OFFCURVE",
"411.99 189 OFFCURVE",
"408.99 122 CURVE",
"248 124 OFFCURVE",
"152 127 OFFCURVE",
"152 240 CURVE SMOOTH",
"152 302 OFFCURVE",
"165 378 OFFCURVE",
"165.48 413.15 CURVE SMOOTH",
"165.48 419.48 OFFCURVE",
"163 428 OFFCURVE",
"152.9 428.06 CURVE SMOOTH",
"123 428 OFFCURVE",
"15 303 OFFCURVE",
"15 214 CURVE SMOOTH",
"15 74 OFFCURVE",
"119 -17 OFFCURVE",
"255.87 -16.97 CURVE SMOOTH",
"337.9 -16.9 OFFCURVE",
"393 14 OFFCURVE",
"412 14 CURVE SMOOTH",
"436 14 OFFCURVE",
"453 -17 OFFCURVE",
"469 -17 CURVE SMOOTH",
"484 -17 OFFCURVE",
"564 65 OFFCURVE",
"563.99 86.99 CURVE SMOOTH",
"563.99 103.99 OFFCURVE",
"540.46 118.98 OFFCURVE",
"540.99 142.99 CURVE SMOOTH",
"542.82 226 OFFCURVE",
"558.99 289.99 OFFCURVE",
"575.99 416.99 CURVE SMOOTH"
);
}
);
width = 650;
},
{
layerId = "9F2BC935-6AE7-4E60-84C9-D3B586669EA4";
width = 600;
}
);
leftKerningGroup = VowelE.bn;
note = VowelE.bn;
unicode = 098F;
},
{
glyphname = VowelAi.bn;
lastChange = "2020-07-15 14:37:54 +0000";
layers = (
{
background = {
paths = (
{
closed = 1;
nodes = (
"576.74 459.91 OFFCURVE",
"568 502 OFFCURVE",
"553.99 530.43 CURVE SMOOTH",
"533.24 572.55 OFFCURVE",
"500 599.56 OFFCURVE",
"463 619 CURVE SMOOTH",
"451.91 624.83 OFFCURVE",
"431.58 633.43 OFFCURVE",
"410.79 633.43 CURVE SMOOTH",
"374.94 633.43 OFFCURVE",
"315.01 604.57 OFFCURVE",
"282.85 578.22 CURVE SMOOTH",
"264.04 562.81 OFFCURVE",
"250.29 545.6 OFFCURVE",
"237.79 524.61 CURVE SMOOTH",
"234.04 518.32 OFFCURVE",
"229.72 509.73 OFFCURVE",
"229.72 503.04 CURVE SMOOTH",
"229.72 496.51 OFFCURVE",
"232.47 489.57 OFFCURVE",
"243 489.57 CURVE SMOOTH",
"255.31 489.57 OFFCURVE",
"307.29 511.57 OFFCURVE",
"324 511.57 CURVE SMOOTH",
"355.8 511.57 OFFCURVE",
"443.31 435 OFFCURVE",
"435.99 379 CURVE SMOOTH",
"417.99 270 OFFCURVE",
"406.99 189 OFFCURVE",
"403.99 122 CURVE",
"358.99 117 OFFCURVE",
"239.99 117 OFFCURVE",
"195.99 143 CURVE SMOOTH",
"167.46 159.86 OFFCURVE",
"156.74 183.43 OFFCURVE",
"150.99 208 CURVE SMOOTH",
"146.11 228.87 OFFCURVE",
"146.99 249.67 OFFCURVE",
"146.99 263 CURVE SMOOTH",
"146.99 278.27 OFFCURVE",
"148.94 301.21 OFFCURVE",
"150.05 314.44 CURVE SMOOTH",
"153.94 360.58 OFFCURVE",
"160.48 390.06 OFFCURVE",
"160.48 413.15 CURVE SMOOTH",
"160.48 419.48 OFFCURVE",
"158.19 428.06 OFFCURVE",
"147.9 428.06 CURVE SMOOTH",
"135 428 OFFCURVE",
"98 394 OFFCURVE",
"63 347 CURVE SMOOTH",
"31 305 OFFCURVE",
"10 256 OFFCURVE",
"10.35 198.63 CURVE SMOOTH",
"10.35 163.2 OFFCURVE",
"27.98 89 OFFCURVE",
"83.37 41.74 CURVE SMOOTH",
"131.16 0.96 OFFCURVE",
"193.52 -16.97 OFFCURVE",
"250.87 -16.97 CURVE SMOOTH",
"332.9 -16.9 OFFCURVE",
"388.09 13.82 OFFCURVE",
"407.35 13.82 CURVE SMOOTH",
"422.17 13.82 OFFCURVE",
"430.35 4.86 OFFCURVE",
"447.09 -8.69 CURVE SMOOTH",
"453.8 -14.12 OFFCURVE",
"458.98 -16.59 OFFCURVE",
"463.99 -16.59 CURVE SMOOTH",
"468.99 -16.59 OFFCURVE",
"475.65 -12.25 OFFCURVE",
"482.27 -5.54 CURVE SMOOTH",
"495.94 8.32 OFFCURVE",
"537.5 52.5 OFFCURVE",
"550.99 67.99 CURVE SMOOTH",
"556.56 74.39 OFFCURVE",
"558.99 80.93 OFFCURVE",
"558.99 86.99 CURVE SMOOTH",
"558.99 103.99 OFFCURVE",
"535.46 118.98 OFFCURVE",
"535.99 142.99 CURVE SMOOTH",
"537.82 226 OFFCURVE",
"553.99 289.99 OFFCURVE",
"570.99 416.99 CURVE SMOOTH"
);
},
{
closed = 1;
nodes = (
"503.99 335.99 LINE",
"503.99 335.99 OFFCURVE",
"567.47 297.97 OFFCURVE",
"636.23 297.97 CURVE SMOOTH",
"695.99 297.97 OFFCURVE",
"738.73 313.27 OFFCURVE",
"770.99 343.99 CURVE SMOOTH",
"791.99 363.99 OFFCURVE",
"814.6 395.99 OFFCURVE",
"814.6 443.3 CURVE SMOOTH",
"814.6 478.58 OFFCURVE",
"798.99 507.99 OFFCURVE",
"785.98 525.83 CURVE SMOOTH",
"760.51 560.76 OFFCURVE",
"738.53 586.06 OFFCURVE",
"698.66 625.98 CURVE SMOOTH",
"675.58 649.1 OFFCURVE",
"657.67 667.52 OFFCURVE",
"649.98 679.41 CURVE SMOOTH",
"641.35 692.75 OFFCURVE",
"643.69 728.4 OFFCURVE",
"657.59 728.4 CURVE SMOOTH",
"669.91 728.4 OFFCURVE",
"699.99 712.99 OFFCURVE",
"709.99 712.99 CURVE SMOOTH",
"716.45 712.99 OFFCURVE",
"719.99 716.55 OFFCURVE",
"719.99 721.99 CURVE SMOOTH",
"719.99 726.99 OFFCURVE",
"714.99 739.99 OFFCURVE",
"704.99 750.99 CURVE SMOOTH",
"694.9 762.09 OFFCURVE",
"675.99 777.99 OFFCURVE",
"659.17 783.02 CURVE SMOOTH",
"643.7 787.65 OFFCURVE",
"619.36 793 OFFCURVE",
"591.3 788.9 CURVE SMOOTH",
"585.04 787.99 OFFCURVE",
"576.79 784.8 OFFCURVE",
"569.64 780.18 CURVE SMOOTH",
"562.49 775.55 OFFCURVE",
"557.15 769.82 OFFCURVE",
"554.36 766.43 CURVE SMOOTH",
"537.72 746.13 OFFCURVE",
"531.95 722.07 OFFCURVE",
"530.46 702.13 CURVE SMOOTH",
"527.74 665.83 OFFCURVE",
"549.52 630.38 OFFCURVE",
"561.59 611.72 CURVE SMOOTH",
"579.74 583.67 OFFCURVE",
"619.88 534.64 OFFCURVE",
"634.98 513.99 CURVE SMOOTH",
"652.28 490.34 OFFCURVE",
"665.75 472 OFFCURVE",
"665.75 458.12 CURVE SMOOTH",
"665.75 440.18 OFFCURVE",
"657.33 418.99 OFFCURVE",
"616.98 418.99 CURVE SMOOTH",
"588.98 418.99 OFFCURVE",
"563.75 425.65 OFFCURVE",
"563.75 425.65 CURVE"
);
}
);
};
hints = (
{
horizontal = 1;
place = "{-16.97, 138.97}";
type = Stem;
},
{
horizontal = 1;
place = "{297.98, 121.02}";
type = Stem;
},
{
horizontal = 1;
place = "{489.57, 21}";
target = up;
type = BottomGhost;
},
{
horizontal = 1;
place = "{511.57, 121.86}";
type = Stem;
},
{
horizontal = 1;
place = "{728.41, 60.51}";
type = Stem;
},
{
place = "{10.37, 136.63}";
type = Stem;
},
{
place = "{404, 132}";
type = Stem;
},
{
place = "{665.77, 148.84}";
type = Stem;
}
);
layerId = "555B79C6-6D98-46E7-9307-77C37975E414";
paths = (
{
closed = 1;
nodes = (
"503.99 335.99 LINE",
"503.99 335.99 OFFCURVE",
"567.47 297.97 OFFCURVE",
"636.23 297.97 CURVE SMOOTH",
"738 298 OFFCURVE",
"815 354 OFFCURVE",
"815 447 CURVE SMOOTH",
"816 541 OFFCURVE",
"645 661 OFFCURVE",
"645 694 CURVE SMOOTH",
"645 715 OFFCURVE",
"649 728 OFFCURVE",
"658 728 CURVE SMOOTH",
"670 728 OFFCURVE",
"699.99 712.99 OFFCURVE",
"709.99 712.99 CURVE SMOOTH",
"716.45 712.99 OFFCURVE",
"719.99 716.55 OFFCURVE",
"719.99 721.99 CURVE SMOOTH",
"720 742 OFFCURVE",
"681 790 OFFCURVE",
"612 790 CURVE SMOOTH",
"561 790 OFFCURVE",
"529 747 OFFCURVE",
"530 693 CURVE SMOOTH",
"531 616 OFFCURVE",
"666 500 OFFCURVE",
"665.75 458.12 CURVE SMOOTH",
"666 440 OFFCURVE",
"657.33 418.99 OFFCURVE",
"616.98 418.99 CURVE SMOOTH",
"588.98 418.99 OFFCURVE",
"563.75 425.65 OFFCURVE",
"563.75 425.65 CURVE"
);
},
{
closed = 1;
nodes = (
"584 520 OFFCURVE",
"507 633 OFFCURVE",
"410 633 CURVE SMOOTH",
"349 633 OFFCURVE",
"229 556 OFFCURVE",
"229 503 CURVE SMOOTH",
"229 497 OFFCURVE",
"231 490 OFFCURVE",
"242 490 CURVE SMOOTH",
"254 490 OFFCURVE",
"306 512 OFFCURVE",
"323 512 CURVE SMOOTH",
"355 512 OFFCURVE",
"442 435 OFFCURVE",
"435 379 CURVE SMOOTH",
"421 269 OFFCURVE",
"406 189 OFFCURVE",
"403 122 CURVE",
"244 122 OFFCURVE",
"146 126 OFFCURVE",
"146 240 CURVE SMOOTH",
"146 302 OFFCURVE",
"159 378 OFFCURVE",
"159 413 CURVE SMOOTH",
"159 419 OFFCURVE",
"157 428 OFFCURVE",
"147 428 CURVE SMOOTH",
"117 428 OFFCURVE",
"9 303 OFFCURVE",
"9 214 CURVE SMOOTH",
"9 74 OFFCURVE",
"113 -17 OFFCURVE",
"250 -17 CURVE SMOOTH",
"332 -17 OFFCURVE",
"387 14 OFFCURVE",
"406 14 CURVE SMOOTH",
"430 14 OFFCURVE",
"447 -17 OFFCURVE",
"463 -17 CURVE SMOOTH",
"478 -17 OFFCURVE",
"558 65 OFFCURVE",
"558 87 CURVE SMOOTH",
"558 104 OFFCURVE",
"534 119 OFFCURVE",
"535 143 CURVE SMOOTH",
"538 226 OFFCURVE",
"553 290 OFFCURVE",
"570 417 CURVE SMOOTH"
);
}
);
width = 850;
},
{
layerId = "9F2BC935-6AE7-4E60-84C9-D3B586669EA4";
width = 600;
}
);
leftKerningGroup = VowelE.bn;
note = VowelAi.bn;
unicode = 0990;
},
{
glyphname = VowelO.bn;
lastChange = "2020-07-15 14:37:54 +0000";
layers = (
{
background = {
paths = (
{
closed = 1;
nodes = (
"349.75 -24.36 OFFCURVE",
"434 -11 OFFCURVE",
"492.76 32.01 CURVE SMOOTH",
"521.11 52.76 OFFCURVE",
"557.26 95.02 OFFCURVE",
"572.33 128.26 CURVE SMOOTH",
"590.27 167.81 OFFCURVE",
"599.28 221.18 OFFCURVE",
"587.56 268.38 CURVE SMOOTH",
"572 331.01 OFFCURVE",
"523 350.01 OFFCURVE",
"523 350.01 CURVE",
"568 383.01 OFFCURVE",
"588.37 425.74 OFFCURVE",
"588.37 457.74 CURVE SMOOTH",
"588.37 494.75 OFFCURVE",
"575.85 527.19 OFFCURVE",
"555 558.01 CURVE SMOOTH",
"532 592.01 OFFCURVE",
"499.78 615.96 OFFCURVE",
"476 626.01 CURVE SMOOTH",
"460.84 632.42 OFFCURVE",
"449 636.87 OFFCURVE",
"428 636.87 CURVE SMOOTH",
"394.25 636.87 OFFCURVE",
"351.06 608.95 OFFCURVE",
"323 580.01 CURVE SMOOTH",
"307.76 564.29 OFFCURVE",
"295.34 539.23 OFFCURVE",
"291.06 527.95 CURVE SMOOTH",
"288.67 521.66 OFFCURVE",
"285.98 514.27 OFFCURVE",
"285.98 507.72 CURVE SMOOTH",
"285.98 499.71 OFFCURVE",
"290.37 494.95 OFFCURVE",
"298.06 494.95 CURVE SMOOTH",
"313.7 494.95 OFFCURVE",
"368.44 525.41 OFFCURVE",
"386.05 525.41 CURVE SMOOTH",
"407.04 525.41 OFFCURVE",
"446.84 473.76 OFFCURVE",
"446.84 446.8 CURVE SMOOTH",
"446.84 417.68 OFFCURVE",
"414 401.01 OFFCURVE",
"372 390.01 CURVE SMOOTH",
"347.8 383.67 OFFCURVE",
"330 380.01 OFFCURVE",
"311 375.01 CURVE SMOOTH",
"293.17 370.32 OFFCURVE",
"294.89 355.97 OFFCURVE",
"302 330.2 CURVE SMOOTH",
"304.91 319.65 OFFCURVE",
"311 297.82 OFFCURVE",
"315 287.01 CURVE SMOOTH",
"323.12 265.06 OFFCURVE",
"333.43 251.71 OFFCURVE",
"356 261.01 CURVE SMOOTH",
"373.9 268.38 OFFCURVE",
"387.29 275.82 OFFCURVE",
"404 275.82 CURVE SMOOTH",
"432.8 275.82 OFFCURVE",
"458.58 196.36 OFFCURVE",
"437.02 157.69 CURVE SMOOTH",
"416 120.01 OFFCURVE",
"335.62 100.01 OFFCURVE",
"297 100.01 CURVE SMOOTH",
"270.71 100.01 OFFCURVE",
"248.99 110.78 OFFCURVE",
"235.36 127.16 CURVE SMOOTH",
"216.84 149.42 OFFCURVE",
"211.65 159.17 OFFCURVE",
"202.57 185.26 CURVE SMOOTH",
"195.27 206.25 OFFCURVE",
"186.21 241.48 OFFCURVE",
"186.21 292.85 CURVE SMOOTH",
"186.21 308.75 OFFCURVE",
"187.16 331.6 OFFCURVE",
"188.28 345.37 CURVE SMOOTH",
"192.18 393.42 OFFCURVE",
"204.76 435.1 OFFCURVE",
"204.76 465.4 CURVE SMOOTH",
"204.76 471.99 OFFCURVE",
"204.47 479.89 OFFCURVE",
"191.16 479.89 CURVE SMOOTH",
"178 480 OFFCURVE",
"137 445 OFFCURVE",
"102 397 CURVE SMOOTH",
"70 352 OFFCURVE",
"44 296 OFFCURVE",
"44.35 236.82 CURVE SMOOTH",
"44.35 199.93 OFFCURVE",
"53.6 98.23 OFFCURVE",
"135.34 30.46 CURVE SMOOTH",
"185.17 -10.85 OFFCURVE",
"257.62 -21.57 OFFCURVE",
"291.5 -22.59 CURVE SMOOTH"
);
}
);
};
hints = (
{
horizontal = 1;
place = "{-22.6, 122.6}";
type = Stem;
},
{
horizontal = 1;
place = "{261, 114}";
type = Stem;
},
{
horizontal = 1;
place = "{494.94, 21}";
target = up;
type = BottomGhost;
},
{
horizontal = 1;
place = "{525.4, 111.46}";
type = Stem;
},
{
place = "{44.35, 141.86}";
type = Stem;
},
{
place = "{446.84, 141.53}";
type = Stem;
}
);
layerId = "555B79C6-6D98-46E7-9307-77C37975E414";
paths = (
{
closed = 1;
nodes = (
"454 -27 OFFCURVE",
"593 70 OFFCURVE",
"593 225 CURVE SMOOTH",
"593 314 OFFCURVE",
"537 344 OFFCURVE",
"523 350.01 CURVE",
"568 383.01 OFFCURVE",
"588.37 425.74 OFFCURVE",
"588.37 457.74 CURVE SMOOTH",
"588 544 OFFCURVE",
"508 637 OFFCURVE",
"428 636.87 CURVE SMOOTH",
"371 637 OFFCURVE",
"286 559 OFFCURVE",
"285.98 507.72 CURVE SMOOTH",
"285.98 499.71 OFFCURVE",
"290.37 494.95 OFFCURVE",
"298.06 494.95 CURVE SMOOTH",
"313.7 494.95 OFFCURVE",
"368.44 525.41 OFFCURVE",
"386.05 525.41 CURVE SMOOTH",
"407.04 525.41 OFFCURVE",
"446.84 473.76 OFFCURVE",
"446.84 446.8 CURVE SMOOTH",
"446.84 417.68 OFFCURVE",
"414 401.01 OFFCURVE",
"372 390.01 CURVE SMOOTH",
"324 377 OFFCURVE",
"297 379 OFFCURVE",
"297 358 CURVE SMOOTH",
"297 332 OFFCURVE",
"315 258 OFFCURVE",
"341 258 CURVE SMOOTH",
"358 258 OFFCURVE",
"382 276 OFFCURVE",
"404 275.82 CURVE SMOOTH",
"425 276 OFFCURVE",
"445 233 OFFCURVE",
"445 189 CURVE SMOOTH",
"445 127 OFFCURVE",
"351 100 OFFCURVE",
"297 100.01 CURVE SMOOTH",
"218 100 OFFCURVE",
"186 199 OFFCURVE",
"186.21 292.85 CURVE SMOOTH",
"186 375 OFFCURVE",
"205 420 OFFCURVE",
"205 457 CURVE SMOOTH",
"205 470 OFFCURVE",
"204 480 OFFCURVE",
"191.16 479.89 CURVE SMOOTH",
"163 480 OFFCURVE",
"44 362 OFFCURVE",
"44 227 CURVE SMOOTH",
"44 93 OFFCURVE",
"138 -18 OFFCURVE",
"291.5 -22.59 CURVE SMOOTH"
);
}
);
width = 700;
},
{
layerId = "9F2BC935-6AE7-4E60-84C9-D3B586669EA4";
width = 600;
}
);
leftKerningGroup = VowelO.bn;
note = VowelO.bn;
unicode = 0993;
},
{
glyphname = VowelAu.bn;
lastChange = "2020-07-15 14:37:54 +0000";
layers = (
{
background = {
paths = (
{
closed = 1;
nodes = (
"504 336 LINE",
"504 336 OFFCURVE",
"567.48 297.98 OFFCURVE",
"636.24 297.98 CURVE SMOOTH",
"696 297.98 OFFCURVE",
"738.74 313.28 OFFCURVE",
"771 344 CURVE SMOOTH",
"792 364 OFFCURVE",
"814.61 396 OFFCURVE",
"814.61 443.31 CURVE SMOOTH",
"814.61 478.59 OFFCURVE",
"799 508 OFFCURVE",
"785.99 525.84 CURVE SMOOTH",
"760.52 560.77 OFFCURVE",
"738.54 586.07 OFFCURVE",
"698.67 625.99 CURVE SMOOTH",
"675.59 649.11 OFFCURVE",
"657.68 667.53 OFFCURVE",
"649.99 679.42 CURVE SMOOTH",
"641.36 692.76 OFFCURVE",
"643.7 728.41 OFFCURVE",
"657.6 728.41 CURVE SMOOTH",
"669.92 728.41 OFFCURVE",
"700 713 OFFCURVE",
"710 713 CURVE SMOOTH",
"716.46 713 OFFCURVE",
"720 716.56 OFFCURVE",
"720 722 CURVE SMOOTH",
"720 727 OFFCURVE",
"715 740 OFFCURVE",
"705 751 CURVE SMOOTH",
"694.91 762.1 OFFCURVE",
"676 778 OFFCURVE",
"659.18 783.03 CURVE SMOOTH",
"643.71 787.66 OFFCURVE",
"619.37 793.01 OFFCURVE",
"591.31 788.91 CURVE SMOOTH",
"585.05 788 OFFCURVE",
"576.8 784.81 OFFCURVE",
"569.65 780.19 CURVE SMOOTH",
"562.5 775.56 OFFCURVE",
"557.16 769.83 OFFCURVE",
"554.37 766.44 CURVE SMOOTH",
"537.73 746.14 OFFCURVE",
"531.96 722.08 OFFCURVE",
"530.47 702.14 CURVE SMOOTH",
"527.75 665.84 OFFCURVE",
"549.53 630.39 OFFCURVE",
"561.6 611.73 CURVE SMOOTH",
"579.75 583.68 OFFCURVE",
"619.89 534.65 OFFCURVE",
"634.99 514 CURVE SMOOTH",
"652.29 490.35 OFFCURVE",
"665.76 472.01 OFFCURVE",
"665.76 458.13 CURVE SMOOTH",
"665.76 440.19 OFFCURVE",
"657.34 419 OFFCURVE",
"616.99 419 CURVE SMOOTH",
"588.99 419 OFFCURVE",
"563.76 425.66 OFFCURVE",
"563.76 425.66 CURVE"
);
},
{
closed = 1;
nodes = (
"349.74 -24.36 OFFCURVE",
"433.99 -11 OFFCURVE",
"492.75 32.01 CURVE SMOOTH",
"521.1 52.76 OFFCURVE",
"557.25 95.02 OFFCURVE",
"572.32 128.26 CURVE SMOOTH",
"590.26 167.81 OFFCURVE",
"599.27 221.18 OFFCURVE",
"587.55 268.38 CURVE SMOOTH",
"571.99 331.01 OFFCURVE",
"522.99 350.01 OFFCURVE",
"522.99 350.01 CURVE",
"567.99 383.01 OFFCURVE",
"588.36 425.74 OFFCURVE",
"588.36 457.74 CURVE SMOOTH",
"588.36 494.75 OFFCURVE",
"575.84 527.19 OFFCURVE",
"554.99 558.01 CURVE SMOOTH",
"531.99 592.01 OFFCURVE",
"499.77 615.96 OFFCURVE",
"475.99 626.01 CURVE SMOOTH",
"460.83 632.42 OFFCURVE",
"448.99 636.87 OFFCURVE",
"427.99 636.87 CURVE SMOOTH",
"394.24 636.87 OFFCURVE",
"351.05 608.95 OFFCURVE",
"322.99 580.01 CURVE SMOOTH",
"307.75 564.29 OFFCURVE",
"295.33 539.23 OFFCURVE",
"291.05 527.95 CURVE SMOOTH",
"288.66 521.66 OFFCURVE",
"285.97 514.27 OFFCURVE",
"285.97 507.72 CURVE SMOOTH",
"285.97 499.71 OFFCURVE",
"290.36 494.95 OFFCURVE",
"298.05 494.95 CURVE SMOOTH",
"313.69 494.95 OFFCURVE",
"368.43 525.41 OFFCURVE",
"386.04 525.41 CURVE SMOOTH",
"407.03 525.41 OFFCURVE",
"446.83 473.76 OFFCURVE",
"446.83 446.8 CURVE SMOOTH",
"446.83 417.68 OFFCURVE",
"413.99 401.01 OFFCURVE",
"371.99 390.01 CURVE SMOOTH",
"347.79 383.67 OFFCURVE",
"329.99 380.01 OFFCURVE",
"310.99 375.01 CURVE SMOOTH",
"293.16 370.32 OFFCURVE",
"291.88 355.97 OFFCURVE",
"301.99 330.2 CURVE SMOOTH",
"305.99 320.01 OFFCURVE",
"310.99 297.82 OFFCURVE",
"314.99 287.01 CURVE SMOOTH",
"323.11 265.06 OFFCURVE",
"333.42 251.71 OFFCURVE",
"355.99 261.01 CURVE SMOOTH",
"373.89 268.38 OFFCURVE",
"387.28 275.82 OFFCURVE",
"403.99 275.82 CURVE SMOOTH",
"432.79 275.82 OFFCURVE",
"458.57 196.36 OFFCURVE",
"437.01 157.69 CURVE SMOOTH",
"415.99 120.01 OFFCURVE",
"335.61 100.01 OFFCURVE",
"296.99 100.01 CURVE SMOOTH",
"270.7 100.01 OFFCURVE",
"248.98 110.78 OFFCURVE",
"235.35 127.16 CURVE SMOOTH",
"216.83 149.42 OFFCURVE",
"211.64 159.17 OFFCURVE",
"202.56 185.26 CURVE SMOOTH",
"195.26 206.25 OFFCURVE",
"186.2 241.48 OFFCURVE",
"186.2 292.85 CURVE SMOOTH",
"186.2 308.75 OFFCURVE",
"187.15 331.6 OFFCURVE",
"188.27 345.37 CURVE SMOOTH",
"192.17 393.42 OFFCURVE",
"204.75 435.1 OFFCURVE",
"204.75 465.4 CURVE SMOOTH",
"204.75 471.99 OFFCURVE",
"204.46 479.89 OFFCURVE",
"191.15 479.89 CURVE SMOOTH",
"177.86 479.89 OFFCURVE",
"137.4 445.48 OFFCURVE",
"102.14 396.91 CURVE SMOOTH",
"69.76 352.3 OFFCURVE",
"44.34 296.09 OFFCURVE",
"44.34 236.82 CURVE SMOOTH",
"44.34 199.93 OFFCURVE",
"53.59 98.23 OFFCURVE",
"135.33 30.46 CURVE SMOOTH",
"185.16 -10.85 OFFCURVE",
"257.61 -21.57 OFFCURVE",
"291.49 -22.59 CURVE SMOOTH"
);
}
);
};
hints = (
{
horizontal = 1;
place = "{-22.6, 122.6}";
type = Stem;
},
{
horizontal = 1;
place = "{297.98, 121.02}";
type = Stem;
},
{
horizontal = 1;
place = "{494.94, 21}";
target = up;
type = BottomGhost;
},
{
horizontal = 1;
place = "{525.4, 111.46}";
type = Stem;
},
{
horizontal = 1;
place = "{728.41, 60.51}";
type = Stem;
},
{
place = "{44.35, 141.86}";
type = Stem;
},
{
place = "{446.84, 141.53}";
type = Stem;
},
{
place = "{665.77, 148.84}";
type = Stem;
},
{
horizontal = 1;
place = "{261, 114}";
type = Stem;
}
);
layerId = "555B79C6-6D98-46E7-9307-77C37975E414";
paths = (
{
closed = 1;
nodes = (
"454 -27 OFFCURVE",
"593 70 OFFCURVE",
"593 225 CURVE SMOOTH",
"593 314 OFFCURVE",
"537 344 OFFCURVE",
"523 350.01 CURVE",
"568 383.01 OFFCURVE",
"588.37 425.74 OFFCURVE",
"588.37 457.74 CURVE SMOOTH",
"588 544 OFFCURVE",
"508 637 OFFCURVE",
"428 636.87 CURVE SMOOTH",
"371 637 OFFCURVE",
"286 559 OFFCURVE",
"285.98 507.72 CURVE SMOOTH",
"285.98 499.71 OFFCURVE",
"290.37 494.95 OFFCURVE",
"298.06 494.95 CURVE SMOOTH",
"313.7 494.95 OFFCURVE",
"368.44 525.41 OFFCURVE",
"386.05 525.41 CURVE SMOOTH",
"407.04 525.41 OFFCURVE",
"446.84 473.76 OFFCURVE",
"446.84 446.8 CURVE SMOOTH",
"446.84 417.68 OFFCURVE",
"414 401.01 OFFCURVE",
"372 390.01 CURVE SMOOTH",
"324 377 OFFCURVE",
"297 379 OFFCURVE",
"297 358 CURVE SMOOTH",
"297 332 OFFCURVE",
"315 258 OFFCURVE",
"341 258 CURVE SMOOTH",
"358 258 OFFCURVE",
"382 276 OFFCURVE",
"404 275.82 CURVE SMOOTH",
"425 276 OFFCURVE",
"445 233 OFFCURVE",
"445 189 CURVE SMOOTH",
"445 127 OFFCURVE",
"351 100 OFFCURVE",
"297 100.01 CURVE SMOOTH",
"218 100 OFFCURVE",
"186 199 OFFCURVE",
"186.21 292.85 CURVE SMOOTH",
"186 375 OFFCURVE",
"205 420 OFFCURVE",
"205 457 CURVE SMOOTH",
"205 470 OFFCURVE",
"204 480 OFFCURVE",
"191.16 479.89 CURVE SMOOTH",
"163 480 OFFCURVE",
"44 362 OFFCURVE",
"44 227 CURVE SMOOTH",
"44 93 OFFCURVE",
"138 -18 OFFCURVE",
"291.5 -22.59 CURVE SMOOTH"
);
},
{
closed = 1;
nodes = (
"504 336 LINE",
"504 336 OFFCURVE",
"567 298 OFFCURVE",
"636 298 CURVE SMOOTH",
"738 298 OFFCURVE",
"815 354 OFFCURVE",
"815 447 CURVE SMOOTH",
"815 541 OFFCURVE",
"645 661 OFFCURVE",
"645 694 CURVE SMOOTH",
"645 715 OFFCURVE",
"649 728 OFFCURVE",
"658 728 CURVE SMOOTH",
"670 728 OFFCURVE",
"700 713 OFFCURVE",
"710 713 CURVE SMOOTH",
"716 713 OFFCURVE",
"720 717 OFFCURVE",
"720 722 CURVE SMOOTH",
"720 742 OFFCURVE",
"681 790 OFFCURVE",
"612 790 CURVE SMOOTH",
"561 790 OFFCURVE",
"529 747 OFFCURVE",
"530 693 CURVE SMOOTH",
"531 616 OFFCURVE",
"666 500 OFFCURVE",
"666 458 CURVE SMOOTH",
"666 440 OFFCURVE",
"657 419 OFFCURVE",
"617 419 CURVE SMOOTH",
"589 419 OFFCURVE",
"564 426 OFFCURVE",
"564 426 CURVE"
);
}
);
width = 862;
},
{
layerId = "9F2BC935-6AE7-4E60-84C9-D3B586669EA4";
width = 600;
}
);
leftKerningGroup = VowelO.bn;
note = VowelAu.bn;
unicode = 0994;
},
{
glyphname = Ka.bn;
lastChange = "2020-07-15 14:37:54 +0000";
layers = (
{
background = {
paths = (
{
closed = 1;
nodes = (
"693.79 75.58 OFFCURVE",
"775.62 160.12 OFFCURVE",
"792.79 203.58 CURVE SMOOTH",
"802.49 228.14 OFFCURVE",
"805.62 242 OFFCURVE",
"805.62 265 CURVE SMOOTH",
"805.62 289.01 OFFCURVE",
"796.24 313.04 OFFCURVE",
"790 326 CURVE SMOOTH",
"777 353 OFFCURVE",
"759.61 372.65 OFFCURVE",
"747 384 CURVE SMOOTH",
"727 402 OFFCURVE",
"712.39 412.86 OFFCURVE",
"682 426 CURVE SMOOTH",
"645 442 OFFCURVE",
"595 445 OFFCURVE",
"549 445 CURVE SMOOTH",
"514.91 445 OFFCURVE",
"448.21 438.91 OFFCURVE",
"448.21 438.91 CURVE",
"486 312 LINE",
"486 312 OFFCURVE",
"486.34 313.52 OFFCURVE",
"530 318 CURVE SMOOTH",
"575.91 322.71 OFFCURVE",
"588.72 325.3 OFFCURVE",
"604 327 CURVE SMOOTH",
"613.87 328.1 OFFCURVE",
"625 328.8 OFFCURVE",
"636 328.8 CURVE SMOOTH",
"645 328.8 OFFCURVE",
"655.36 328.75 OFFCURVE",
"663.69 326.09 CURVE SMOOTH",
"674.94 322.51 OFFCURVE",
"681.23 317.42 OFFCURVE",
"689.21 303.64 CURVE SMOOTH",
"693.56 296.13 OFFCURVE",
"697.64 284 OFFCURVE",
"697.64 273 CURVE SMOOTH",
"697.64 263.9 OFFCURVE",
"696.8 256.63 OFFCURVE",
"693.99 250 CURVE SMOOTH",
"685.27 229.42 OFFCURVE",
"632.07 202 OFFCURVE",
"617.99 202 CURVE SMOOTH",
"605.07 202 OFFCURVE",
"584.07 244.03 OFFCURVE",
"572.07 244.03 CURVE SMOOTH",
"567.29 244.03 OFFCURVE",
"564.53 232.17 OFFCURVE",
"564.53 225.86 CURVE SMOOTH",
"565 166 OFFCURVE",
"613 76 OFFCURVE",
"657.78 75.58 CURVE SMOOTH"
);
},
{
closed = 1;
nodes = (
"403.99 541.14 LINE",
"403.99 541.14 OFFCURVE",
"376.99 340 OFFCURVE",
"370.11 170 CURVE SMOOTH",
"369.3 149.91 OFFCURVE",
"369.99 124 OFFCURVE",
"369.99 124 CURVE",
"333.99 136 OFFCURVE",
"283.97 174.49 OFFCURVE",
"249.99 216 CURVE SMOOTH",
"215.19 258.51 OFFCURVE",
"193.99 316 OFFCURVE",
"193.99 316 CURVE",
"193.99 316 OFFCURVE",
"252.99 314.27 OFFCURVE",
"289.99 314.27 CURVE SMOOTH",
"319.99 314.27 OFFCURVE",
"386.14 316.11 OFFCURVE",
"429.13 319 CURVE",
"444.99 443 LINE",
"444.99 443 OFFCURVE",
"330.99 439 OFFCURVE",
"257.99 439 CURVE SMOOTH",
"205.99 439 OFFCURVE",
"148.99 442 OFFCURVE",
"97.99 442 CURVE SMOOTH",
"54.98 442 OFFCURVE",
"31.99 438 OFFCURVE",
"20.99 409 CURVE SMOOTH",
"12.59 386.84 OFFCURVE",
"8.99 372 OFFCURVE",
"1.99 349 CURVE SMOOTH",
"-3.73 330.2 OFFCURVE",
"-2.46 323.42 OFFCURVE",
"19.99 315 CURVE SMOOTH",
"43.99 306 OFFCURVE",
"58.6 300.28 OFFCURVE",
"63.99 286 CURVE SMOOTH",
"83.99 233 OFFCURVE",
"110.99 170 OFFCURVE",
"177.99 101 CURVE SMOOTH",
"251.32 25.48 OFFCURVE",
"341.99 -21 OFFCURVE",
"375.99 -21 CURVE SMOOTH",
"402.99 -21 OFFCURVE",
"446.99 22 OFFCURVE",
"464.99 50 CURVE SMOOTH",
"483.14 78.23 OFFCURVE",
"504.99 127 OFFCURVE",
"507.99 174 CURVE SMOOTH",
"519.92 360.94 OFFCURVE",
"540.99 538 OFFCURVE",
"540.99 538 CURVE"
);
},
{
closed = 1;
nodes = (
"-0.01 630 LINE",
"-13 630 OFFCURVE",
"-24 628 OFFCURVE",
"-29.01 611 CURVE SMOOTH",
"-54.01 533 LINE SMOOTH",
"-59.34 518.33 OFFCURVE",
"-52.34 511 OFFCURVE",
"-33.01 511 CURVE SMOOTH",
"855.13 511 LINE",
"887 511 OFFCURVE",
"897 509 OFFCURVE",
"904.13 530 CURVE SMOOTH",
"929.13 608 LINE SMOOTH",
"934.37 622.67 OFFCURVE",
"927.32 630 OFFCURVE",
"907.99 630 CURVE SMOOTH"
);
}
);
};
hints = (
{
horizontal = 1;
place = "{75.58, 126.42}";
type = Stem;
},
{
horizontal = 1;
place = "{328.8, 116.2}";
type = Stem;
},
{
horizontal = 1;
place = "{511, 119}";
type = Stem;
},
{
place = "{697.65, 107.97}";
type = Stem;
},
{
horizontal = 1;
place = "{314.27, 124.73}";
type = Stem;
}
);
layerId = "555B79C6-6D98-46E7-9307-77C37975E414";
paths = (
{
closed = 1;
nodes = (
"716 76 OFFCURVE",
"806 181 OFFCURVE",
"806 262 CURVE SMOOTH",
"806 378 OFFCURVE",
"696 445 OFFCURVE",
"585 445 CURVE SMOOTH",
"514.91 445 OFFCURVE",
"448.21 438.91 OFFCURVE",
"448.21 438.91 CURVE",
"486 312 LINE",
"553 321 OFFCURVE",
"617 329 OFFCURVE",
"641 329 CURVE SMOOTH",
"676 329 OFFCURVE",
"699 309 OFFCURVE",
"698 265 CURVE SMOOTH",
"698 235 OFFCURVE",
"641 202 OFFCURVE",
"617.99 202 CURVE SMOOTH",
"605.07 202 OFFCURVE",
"584.07 244.03 OFFCURVE",
"572.07 244.03 CURVE SMOOTH",
"567.29 244.03 OFFCURVE",
"564.53 232.17 OFFCURVE",
"564.53 225.86 CURVE SMOOTH",
"565 166 OFFCURVE",
"613 75 OFFCURVE",
"657.78 75.58 CURVE SMOOTH"
);
},
{
closed = 1;
nodes = (
"403.99 541.14 LINE",
"403.99 541.14 OFFCURVE",
"376.99 340 OFFCURVE",
"370.11 170 CURVE SMOOTH",
"369.3 149.91 OFFCURVE",
"369.99 124 OFFCURVE",
"369.99 124 CURVE",
"350 124 OFFCURVE",
"235 196 OFFCURVE",
"193.99 316 CURVE",
"193.99 316 OFFCURVE",
"252.99 314.27 OFFCURVE",
"289.99 314.27 CURVE SMOOTH",
"319.99 314.27 OFFCURVE",
"386.14 316.11 OFFCURVE",
"429.13 319 CURVE",
"444.99 443 LINE",
"445 443 OFFCURVE",
"331 439 OFFCURVE",
"258 439 CURVE SMOOTH",
"206 439 OFFCURVE",
"149 442 OFFCURVE",
"97.99 442 CURVE SMOOTH",
"54.98 442 OFFCURVE",
"31.99 438 OFFCURVE",
"20.99 409 CURVE SMOOTH",
"15 393 OFFCURVE",
"-1 344 OFFCURVE",
"-1 334 CURVE SMOOTH",
"-1 326 OFFCURVE",
"5 321 OFFCURVE",
"19.99 315 CURVE SMOOTH",
"43.99 306 OFFCURVE",
"60 300 OFFCURVE",
"63.99 286 CURVE SMOOTH",
"111 132 OFFCURVE",
"291 -21 OFFCURVE",
"375.99 -21 CURVE SMOOTH",
"433 -21 OFFCURVE",
"503 95 OFFCURVE",
"507.99 174 CURVE SMOOTH",
"519.92 360.94 OFFCURVE",
"540.99 538 OFFCURVE",
"540.99 538 CURVE"
);
},
{
closed = 1;
nodes = (
"-0.01 630 LINE",
"-13 630 OFFCURVE",
"-24 628 OFFCURVE",
"-29.01 611 CURVE SMOOTH",
"-54.01 533 LINE SMOOTH",
"-59.34 518.33 OFFCURVE",
"-52.34 511 OFFCURVE",
"-33.01 511 CURVE SMOOTH",
"855.13 511 LINE",
"887 511 OFFCURVE",
"897 509 OFFCURVE",
"904.13 530 CURVE SMOOTH",
"929.13 608 LINE SMOOTH",
"934.37 622.67 OFFCURVE",
"927.32 630 OFFCURVE",
"907.99 630 CURVE SMOOTH"
);
}
);
width = 855;
},
{
layerId = "9F2BC935-6AE7-4E60-84C9-D3B586669EA4";
width = 600;
}
);
leftKerningGroup = VowelA.bn;
note = Ka.bn;
rightKerningGroup = VowelA.bn;
unicode = 0995;
},
{
glyphname = Kha.bn;
lastChange = "2020-07-15 14:37:54 +0000";
layers = (
{
background = {
paths = (
{
closed = 1;
nodes = (
"462.96 511 OFFCURVE",
"440.96 340 OFFCURVE",
"434.08 170 CURVE SMOOTH",
"433.27 149.91 OFFCURVE",
"432.96 112 OFFCURVE",
"432.96 112 CURVE",
"384.96 112 OFFCURVE",
"304.09 151.15 OFFCURVE",
"266.96 184 CURVE SMOOTH",
"214.96 230 OFFCURVE",
"196.96 267.32 OFFCURVE",
"196.96 267.32 CURVE",
"196.96 267.32 OFFCURVE",
"218.5 267.31 OFFCURVE",
"243.5 267.31 CURVE SMOOTH",
"318.96 267.31 OFFCURVE",
"376.96 335 OFFCURVE",
"403.5 397.31 CURVE SMOOTH",
"413.85 421.61 OFFCURVE",
"416.33 445.73 OFFCURVE",
"416.33 468.73 CURVE SMOOTH",
"416.33 492.74 OFFCURVE",
"406.95 516.77 OFFCURVE",
"400.71 529.73 CURVE SMOOTH",
"387.71 556.73 OFFCURVE",
"368.71 578.73 OFFCURVE",
"356.71 590.73 CURVE SMOOTH",
"338.71 608.73 OFFCURVE",
"313.71 630.73 OFFCURVE",
"296.71 630.73 CURVE SMOOTH",
"279.47 630.73 OFFCURVE",
"269.53 620.72 OFFCURVE",
"251.96 605.81 CURVE SMOOTH",
"237.13 593.22 OFFCURVE",
"235.59 590.2 OFFCURVE",
"220.71 580.27 CURVE SMOOTH",
"208.74 572.28 OFFCURVE",
"195.71 564 OFFCURVE",
"176.96 564 CURVE SMOOTH",
"165.21 564 OFFCURVE",
"152.71 569.27 OFFCURVE",
"143.71 576.27 CURVE SMOOTH",
"134.71 583.27 OFFCURVE",
"126.96 592 OFFCURVE",
"122.96 597 CURVE SMOOTH",
"118.96 602 OFFCURVE",
"114.96 608 OFFCURVE",
"114.96 615 CURVE SMOOTH",
"114.96 622.03 OFFCURVE",
"118.44 627.29 OFFCURVE",
"119.96 630 CURVE SMOOTH",
"128.96 646 OFFCURVE",
"139.71 659.73 OFFCURVE",
"139.71 665.73 CURVE SMOOTH",
"139.71 670.79 OFFCURVE",
"136.71 672.73 OFFCURVE",
"131.71 672.73 CURVE SMOOTH",
"127.71 672.73 OFFCURVE",
"124.9 671.87 OFFCURVE",
"120.71 670.6 CURVE SMOOTH",
"103.22 665.3 OFFCURVE",
"84.57 657.13 OFFCURVE",
"72.71 647.73 CURVE SMOOTH",
"57.63 635.77 OFFCURVE",
"43.16 619.4 OFFCURVE",
"28.71 589.73 CURVE SMOOTH",
"22.57 577.13 OFFCURVE",
"19.98 563.45 OFFCURVE",
"19.98 552.16 CURVE SMOOTH",
"19.98 539.94 OFFCURVE",
"24.47 527.16 OFFCURVE",
"29.81 516.94 CURVE SMOOTH",
"36.72 503.73 OFFCURVE",
"50.73 487.14 OFFCURVE",
"75.72 472.73 CURVE SMOOTH",
"101.23 458.01 OFFCURVE",
"126.65 451 OFFCURVE",
"160.97 451 CURVE SMOOTH",
"236.03 451 OFFCURVE",
"285.97 504 OFFCURVE",
"285.97 504 CURVE",
"289.97 497 OFFCURVE",
"293.36 484.73 OFFCURVE",
"293.36 473.73 CURVE SMOOTH",
"293.36 464.63 OFFCURVE",
"292.97 457 OFFCURVE",
"287.71 443.73 CURVE SMOOTH",
"277.44 417.8 OFFCURVE",
"238.96 387.32 OFFCURVE",
"185.96 387.32 CURVE SMOOTH",
"160.96 387.32 OFFCURVE",
"148.96 390.32 OFFCURVE",
"91.96 390.32 CURVE SMOOTH",
"48.95 390.32 OFFCURVE",
"25.96 386.32 OFFCURVE",
"14.96 357.32 CURVE SMOOTH",
"6.56 335.16 OFFCURVE",
"2.96 324.32 OFFCURVE",
"-4.04 301.32 CURVE SMOOTH",
"-9.76 282.52 OFFCURVE",
"-8.66 271.26 OFFCURVE",
"13.96 263.32 CURVE SMOOTH",
"31.96 257 OFFCURVE",
"48.96 248 OFFCURVE",
"63.96 225.32 CURVE SMOOTH",
"92.51 182.15 OFFCURVE",
"140.96 119 OFFCURVE",
"189.96 80 CURVE SMOOTH",
"281.38 7.23 OFFCURVE",
"389.96 -21 OFFCURVE",
"429.96 -21 CURVE SMOOTH",
"456.96 -21 OFFCURVE",
"510.96 22 OFFCURVE",
"528.96 50 CURVE SMOOTH",
"547.11 78.23 OFFCURVE",
"568.96 127 OFFCURVE",
"571.96 174 CURVE SMOOTH",
"581.8 328.14 OFFCURVE",
"602.96 511 OFFCURVE",
"602.96 511 CURVE",
"650 511 LINE",
"675 511 LINE SMOOTH",
"686.91 511 OFFCURVE",
"694.91 517.33 OFFCURVE",
"699 530 CURVE SMOOTH",
"713.86 576 LINE",
"724 608 LINE SMOOTH",
"729.24 622.67 OFFCURVE",
"722 630 OFFCURVE",
"702.86 630 CURVE SMOOTH",
"597.96 630 LINE SMOOTH",
"589.22 630 OFFCURVE",
"571.25 628.98 OFFCURVE",
"561.96 626.94 CURVE SMOOTH",
"543.96 623 OFFCURVE",
"531.96 618 OFFCURVE",
"516.96 608 CURVE SMOOTH",
"509.29 602.89 OFFCURVE",
"496.96 592 OFFCURVE",
"487.96 579 CURVE SMOOTH",
"473.26 557.77 OFFCURVE",
"466.78 539.03 OFFCURVE",
"462.96 511 CURVE"
);
}
);
};
hints = (
{
horizontal = 1;
place = "{-21, 133}";
type = Stem;
},
{
horizontal = 1;
place = "{267.31, 120.01}";
type = Stem;
},
{
horizontal = 1;
place = "{511, 119}";
type = Stem;
},
{
place = "{19.97, 94.99}";
type = Stem;
},
{
place = "{293.35, 122.98}";
type = Stem;
},
{
horizontal = 1;
place = "{451, 113}";
type = Stem;
}
);
layerId = "555B79C6-6D98-46E7-9307-77C37975E414";
paths = (
{
closed = 1;
nodes = (
"462.96 511 OFFCURVE",
"440.96 340 OFFCURVE",
"434.08 170 CURVE SMOOTH",
"433.27 149.91 OFFCURVE",
"432.96 112 OFFCURVE",
"432.96 112 CURVE",
"364 112 OFFCURVE",
"243 179 OFFCURVE",
"196.96 267.32 CURVE",
"196.96 267.32 OFFCURVE",
"218.5 267.31 OFFCURVE",
"243.5 267.31 CURVE SMOOTH",
"331 267 OFFCURVE",
"416 367 OFFCURVE",
"416 464 CURVE SMOOTH",
"416 542 OFFCURVE",
"333 630 OFFCURVE",
"296.71 630.73 CURVE SMOOTH",
"261 631 OFFCURVE",
"225 564 OFFCURVE",
"180 564 CURVE SMOOTH",
"150 564 OFFCURVE",
"115 596 OFFCURVE",
"114.96 615 CURVE SMOOTH",
"115 632 OFFCURVE",
"140 654 OFFCURVE",
"139.71 665.73 CURVE SMOOTH",
"139.71 670.79 OFFCURVE",
"137 673 OFFCURVE",
"131.71 672.73 CURVE SMOOTH",
"91 674 OFFCURVE",
"20 615 OFFCURVE",
"19.98 552.16 CURVE SMOOTH",
"20 496 OFFCURVE",
"89 451 OFFCURVE",
"160.97 451 CURVE SMOOTH",
"236.03 451 OFFCURVE",
"285.97 504 OFFCURVE",
"285.97 504 CURVE",
"289.97 497 OFFCURVE",
"293.36 484.73 OFFCURVE",
"293.36 473.73 CURVE SMOOTH",
"293 420 OFFCURVE",
"240 387 OFFCURVE",
"185.96 387.32 CURVE SMOOTH",
"160.96 387.32 OFFCURVE",
"148.96 390.32 OFFCURVE",
"91.96 390.32 CURVE SMOOTH",
"48.95 390.32 OFFCURVE",
"25.96 386.32 OFFCURVE",
"14.96 357.32 CURVE SMOOTH",
"7 336 OFFCURVE",
"-7 297 OFFCURVE",
"-7 286 CURVE SMOOTH",
"-7 276 OFFCURVE",
"-1 268 OFFCURVE",
"14 263 CURVE SMOOTH",
"32 257 OFFCURVE",
"50 248 OFFCURVE",
"63.96 225.32 CURVE SMOOTH",
"165 63 OFFCURVE",
"321 -21 OFFCURVE",
"429.96 -21 CURVE SMOOTH",
"496 -21 OFFCURVE",
"567 85 OFFCURVE",
"571.96 174 CURVE SMOOTH",
"581 328 OFFCURVE",
"602.96 511 OFFCURVE",
"602.96 511 CURVE",
"650 511 LINE",
"682 511 OFFCURVE",
"692 509 OFFCURVE",
"699 530 CURVE SMOOTH",
"724 608 LINE SMOOTH",
"729.24 622.67 OFFCURVE",
"722 630 OFFCURVE",
"702.86 630 CURVE SMOOTH",
"597.96 630 LINE SMOOTH",
"521 630 OFFCURVE",
"474 587 OFFCURVE",
"462.96 511 CURVE"
);
}
);
width = 650;
},
{
layerId = "9F2BC935-6AE7-4E60-84C9-D3B586669EA4";
width = 600;
}
);
note = Kha.bn;
rightKerningGroup = VowelA.bn;
unicode = 0996;
},
{
glyphname = Ga.bn;
lastChange = "2020-07-15 14:37:54 +0000";
layers = (
{
background = {
paths = (
{
closed = 1;
nodes = (
"226.84 287.15 OFFCURVE",
"177.97 237 OFFCURVE",
"142 237 CURVE SMOOTH",
"128.92 237 OFFCURVE",
"104.56 274.95 OFFCURVE",
"93.84 274.95 CURVE SMOOTH",
"87.33 274.95 OFFCURVE",
"85.81 271.05 OFFCURVE",
"85.81 266.4 CURVE SMOOTH",
"85.81 261.75 OFFCURVE",
"89.26 224.78 OFFCURVE",
"99.84 202.95 CURVE SMOOTH",
"113.89 173.98 OFFCURVE",
"154.49 121.95 OFFCURVE",
"187.84 121.95 CURVE SMOOTH",
"222.34 121.95 OFFCURVE",
"262.12 142.51 OFFCURVE",
"301.54 188.15 CURVE SMOOTH",
"323.35 213.4 OFFCURVE",
"351.84 262.96 OFFCURVE",
"351.84 316.95 CURVE SMOOTH",
"352 340 OFFCURVE",
"338 371 OFFCURVE",
"309 405 CURVE SMOOTH",
"288 430 OFFCURVE",
"244 464 OFFCURVE",
"203 464 CURVE SMOOTH",
"183 464 OFFCURVE",
"165 459 OFFCURVE",
"165 459 CURVE",
"165 459 OFFCURVE",
"165.36 466.3 OFFCURVE",
"181 485 CURVE SMOOTH",
"199.73 507.41 OFFCURVE",
"231.07 518.4 OFFCURVE",
"249.38 518.4 CURVE SMOOTH",
"282 518.4 OFFCURVE",
"307 499 OFFCURVE",
"334 472 CURVE SMOOTH",
"348.99 457.01 OFFCURVE",
"380.03 417.64 OFFCURVE",
"397 389 CURVE SMOOTH",
"429 335 OFFCURVE",
"470 241 OFFCURVE",
"470 241 CURVE",
"487 505 LINE",
"474.35 533.75 OFFCURVE",
"385.25 633.55 OFFCURVE",
"276.1 633.55 CURVE SMOOTH",
"204.3 633.55 OFFCURVE",
"166.85 616.3 OFFCURVE",
"131.2 589.85 CURVE SMOOTH",
"91.24 560.2 OFFCURVE",
"72.54 536.36 OFFCURVE",
"49.55 493.25 CURVE SMOOTH",
"31.15 458.75 OFFCURVE",
"26.4 426 OFFCURVE",
"26.4 406.05 CURVE SMOOTH",
"26.4 378 OFFCURVE",
"81 321 OFFCURVE",
"108 321 CURVE SMOOTH",
"135 321 OFFCURVE",
"120 336 OFFCURVE",
"120 344 CURVE SMOOTH",
"120 352 OFFCURVE",
"144.94 376 OFFCURVE",
"165 376 CURVE SMOOTH",
"186 376 OFFCURVE",
"226.84 345.95 OFFCURVE",
"226.84 323.95 CURVE SMOOTH"
);
},
{
closed = 1;
nodes = (
"415 389 OFFCURVE",
"418.12 366.71 OFFCURVE",
"406 197 CURVE SMOOTH",
"401 127 OFFCURVE",
"397 98 OFFCURVE",
"391 53 CURVE SMOOTH",
"386.18 16.82 OFFCURVE",
"373.71 -31 OFFCURVE",
"410 -31 CURVE SMOOTH",
"454.82 -31 OFFCURVE",
"490 22 OFFCURVE",
"508 55 CURVE SMOOTH",
"524.07 84.46 OFFCURVE",
"539 117 OFFCURVE",
"542 164 CURVE SMOOTH",
"553.93 350.94 OFFCURVE",
"572 511 OFFCURVE",
"572 511 CURVE",
"620 511 LINE",
"645 511 LINE SMOOTH",
"656.91 511 OFFCURVE",
"664.91 517.33 OFFCURVE",
"669 530 CURVE SMOOTH",
"683.86 576 LINE",
"694 608 LINE SMOOTH",
"699.24 622.67 OFFCURVE",
"692 630 OFFCURVE",
"672.86 630 CURVE SMOOTH",
"621 630 LINE",
"567 630 LINE SMOOTH",
"558.26 630 OFFCURVE",
"540.29 628.98 OFFCURVE",
"531 626.94 CURVE SMOOTH",
"513 623 OFFCURVE",
"501 618 OFFCURVE",
"486 608 CURVE SMOOTH",
"478.33 602.89 OFFCURVE",
"466 592 OFFCURVE",
"457 579 CURVE SMOOTH",
"442.3 557.77 OFFCURVE",
"436.53 543.5 OFFCURVE",
"432 511 CURVE SMOOTH"
);
}
);
};
hints = (
{
horizontal = 1;
place = "{121.95, 115.05}";
type = Stem;
},
{
horizontal = 1;
place = "{376, 88}";
type = Stem;
},
{
horizontal = 1;
place = "{518.4, 115.15}";
type = Stem;
},
{
place = "{26.4, 93.6}";
type = Stem;
},
{
place = "{226.84, 125}";
type = Stem;
},
{
place = "{391, 117}";
type = Stem;
},
{
horizontal = 1;
place = "{511, 119}";
type = Stem;
}
);
layerId = "555B79C6-6D98-46E7-9307-77C37975E414";
paths = (
{
closed = 1;
nodes = (
"226.84 287.15 OFFCURVE",
"177.97 237 OFFCURVE",
"142 237 CURVE SMOOTH",
"128.92 237 OFFCURVE",
"104.56 274.95 OFFCURVE",
"93.84 274.95 CURVE SMOOTH",
"87.33 274.95 OFFCURVE",
"85.81 271.05 OFFCURVE",
"85.81 266.4 CURVE SMOOTH",
"86 210 OFFCURVE",
"138 122 OFFCURVE",
"187.84 121.95 CURVE SMOOTH",
"265 122 OFFCURVE",
"352 226 OFFCURVE",
"351.84 316.95 CURVE SMOOTH",
"352 374 OFFCURVE",
"269 464 OFFCURVE",
"203 464 CURVE SMOOTH",
"183 464 OFFCURVE",
"165 459 OFFCURVE",
"165 459 CURVE",
"165 469 OFFCURVE",
"195 518 OFFCURVE",
"249.38 518.4 CURVE SMOOTH",
"351 518 OFFCURVE",
"429 335 OFFCURVE",
"470 241 CURVE",
"487 505 LINE",
"474.35 533.75 OFFCURVE",
"385.25 633.55 OFFCURVE",
"276.1 633.55 CURVE SMOOTH",
"144 634 OFFCURVE",
"26 529 OFFCURVE",
"26.4 406.05 CURVE SMOOTH",
"26.4 378 OFFCURVE",
"81 321 OFFCURVE",
"108 321 CURVE SMOOTH",
"135 321 OFFCURVE",
"120 336 OFFCURVE",
"120 344 CURVE SMOOTH",
"120 352 OFFCURVE",
"144.94 376 OFFCURVE",
"165 376 CURVE SMOOTH",
"186 376 OFFCURVE",
"226.84 345.95 OFFCURVE",
"226.84 323.95 CURVE SMOOTH"
);
},
{
closed = 1;
nodes = (
"405 316 OFFCURVE",
"418 254 OFFCURVE",
"391 53 CURVE SMOOTH",
"386.18 16.82 OFFCURVE",
"373.71 -31 OFFCURVE",
"410 -31 CURVE SMOOTH",
"472 -31 OFFCURVE",
"537 82 OFFCURVE",
"542 164 CURVE SMOOTH",
"553.93 350.94 OFFCURVE",
"572 511 OFFCURVE",
"572 511 CURVE",
"620 511 LINE",
"652 511 OFFCURVE",
"662 509 OFFCURVE",
"669 530 CURVE SMOOTH",
"694 608 LINE SMOOTH",
"699 623 OFFCURVE",
"692 630 OFFCURVE",
"673 630 CURVE SMOOTH",
"567 630 LINE SMOOTH",
"490 630 OFFCURVE",
"442 586 OFFCURVE",
"432 511 CURVE SMOOTH"
);
}
);
width = 620;
},
{
layerId = "9F2BC935-6AE7-4E60-84C9-D3B586669EA4";
width = 600;
}
);
leftKerningGroup = Ga.bn;
note = Ga.bn;
rightKerningGroup = VowelA.bn;
unicode = 0997;
},
{
glyphname = Gha.bn;
lastChange = "2020-07-15 14:37:54 +0000";
layers = (
{
background = {
paths = (
{
closed = 1;
nodes = (
"0 630 LINE",
"-13 630 OFFCURVE",
"-24 628 OFFCURVE",
"-29 611 CURVE SMOOTH",
"-54 533 LINE SMOOTH",
"-59.33 518.33 OFFCURVE",
"-52.33 511 OFFCURVE",
"-33 511 CURVE SMOOTH",
"615.14 511 LINE",
"640.14 511 LINE SMOOTH",
"652.05 511 OFFCURVE",
"660.05 517.33 OFFCURVE",
"664.14 530 CURVE SMOOTH",
"679 575 LINE",
"689.14 608 LINE SMOOTH",
"694.38 622.67 OFFCURVE",
"687.33 630 OFFCURVE",
"668 630 CURVE SMOOTH"
);
},
{
closed = 1;
nodes = (
"432.96 516 LINE",
"432.96 516 OFFCURVE",
"410.96 340 OFFCURVE",
"404.08 170 CURVE SMOOTH",
"403.27 149.91 OFFCURVE",
"402.96 112 OFFCURVE",
"402.96 112 CURVE",
"267 135 OFFCURVE",
"209 206 OFFCURVE",
"209 206 CURVE",
"209 206 OFFCURVE",
"287.06 235.79 OFFCURVE",
"325 275 CURVE SMOOTH",
"355 306 OFFCURVE",
"354 348 OFFCURVE",
"343 368 CURVE SMOOTH",
"332 388 OFFCURVE",
"312 379 OFFCURVE",
"277 365 CURVE",
"277 365 OFFCURVE",
"210 381 OFFCURVE",
"210 428 CURVE SMOOTH",
"210 481 OFFCURVE",
"312 531 OFFCURVE",
"312 531 CURVE",
"149.8 532.18 LINE",
"149.8 532.18 OFFCURVE",
"105 525 OFFCURVE",
"91 511 CURVE SMOOTH",
"65.46 485.46 OFFCURVE",
"53.41 446 OFFCURVE",
"53.41 421.67 CURVE SMOOTH",
"53.41 361 OFFCURVE",
"136 324 OFFCURVE",
"160 322 CURVE",
"160 322 OFFCURVE",
"126 316 OFFCURVE",
"96 315 CURVE SMOOTH",
"53.01 313.57 OFFCURVE",
"30 311 OFFCURVE",
"19 282 CURVE SMOOTH",
"10.6 259.84 OFFCURVE",
"7 249 OFFCURVE",
"0 226 CURVE SMOOTH",
"-5.72 207.2 OFFCURVE",
"-4.62 195.94 OFFCURVE",
"18 188 CURVE SMOOTH",
"36 181.68 OFFCURVE",
"53.59 174.89 OFFCURVE",
"71 154 CURVE SMOOTH",
"91 130 OFFCURVE",
"135 86 OFFCURVE",
"203 43 CURVE SMOOTH",
"279.43 -5.33 OFFCURVE",
"359.96 -21 OFFCURVE",
"399.96 -21 CURVE SMOOTH",
"426.96 -21 OFFCURVE",
"480.96 22 OFFCURVE",
"498.96 50 CURVE SMOOTH",
"517.11 78.23 OFFCURVE",
"538.96 127 OFFCURVE",
"541.96 174 CURVE SMOOTH",
"551.8 328.14 OFFCURVE",
"572.96 516 OFFCURVE",
"572.96 516 CURVE"
);
}
);
};
hints = (
{
horizontal = 1;
place = "{511, 119}";
type = Stem;
},
{
place = "{53.41, 156.59}";
type = Stem;
},
{
horizontal = 1;
place = "{511, 5}";
type = Stem;
}
);
layerId = "555B79C6-6D98-46E7-9307-77C37975E414";
paths = (
{
closed = 1;
nodes = (
"0 630 LINE",
"-13 630 OFFCURVE",
"-24 628 OFFCURVE",
"-29 611 CURVE SMOOTH",
"-54 533 LINE SMOOTH",
"-59.33 518.33 OFFCURVE",
"-52.33 511 OFFCURVE",
"-33 511 CURVE SMOOTH",
"615.14 511 LINE",
"647 511 OFFCURVE",
"657 509 OFFCURVE",
"664.14 530 CURVE SMOOTH",
"689.14 608 LINE SMOOTH",
"694.38 622.67 OFFCURVE",
"687.33 630 OFFCURVE",
"668 630 CURVE SMOOTH"
);
},
{
closed = 1;
nodes = (
"432.96 516 LINE",
"432.96 516 OFFCURVE",
"410.96 340 OFFCURVE",
"404.08 170 CURVE SMOOTH",
"403.27 149.91 OFFCURVE",
"402.96 112 OFFCURVE",
"402.96 112 CURVE",
"374 113 OFFCURVE",
"266 144 OFFCURVE",
"209 206 CURVE",
"267 231 OFFCURVE",
"350 268 OFFCURVE",
"350 336 CURVE SMOOTH",
"350 357 OFFCURVE",
"343 380 OFFCURVE",
"324 380 CURVE SMOOTH",
"313 380 OFFCURVE",
"298 373 OFFCURVE",
"277 365 CURVE",
"277 365 OFFCURVE",
"210 381 OFFCURVE",
"210 428 CURVE SMOOTH",
"210 481 OFFCURVE",
"313 531 OFFCURVE",
"312 531 CURVE",
"149.8 532.18 LINE",
"105 532 OFFCURVE",
"53 488 OFFCURVE",
"53.41 421.67 CURVE SMOOTH",
"54 361 OFFCURVE",
"136 324 OFFCURVE",
"160 322 CURVE",
"160 322 OFFCURVE",
"126 316 OFFCURVE",
"96 315 CURVE SMOOTH",
"53.01 313.57 OFFCURVE",
"30 311 OFFCURVE",
"19 282 CURVE SMOOTH",
"11 260 OFFCURVE",
"-3 222 OFFCURVE",
"-3 210 CURVE SMOOTH",
"-3 200 OFFCURVE",
"2 193 OFFCURVE",
"18 188 CURVE SMOOTH",
"36 181.68 OFFCURVE",
"53.59 174.89 OFFCURVE",
"71 154 CURVE SMOOTH",
"140 71 OFFCURVE",
"281 -21 OFFCURVE",
"399.96 -21 CURVE SMOOTH",
"466 -21 OFFCURVE",
"537 91 OFFCURVE",
"541.96 174 CURVE SMOOTH",
"551.8 328.14 OFFCURVE",
"572.96 516 OFFCURVE",
"572.96 516 CURVE"
);
}
);
width = 615;
},
{
layerId = "9F2BC935-6AE7-4E60-84C9-D3B586669EA4";
width = 600;
}
);
leftKerningGroup = VowelA.bn;
note = Gha.bn;
rightKerningGroup = VowelA.bn;
unicode = 0998;
},
{
glyphname = Nga.bn;
lastChange = "2020-07-15 14:37:54 +0000";
layers = (
{
background = {
paths = (
{
closed = 1;
nodes = (
"237.65 254.93 OFFCURVE",
"238.33 246.58 OFFCURVE",
"244.38 235.98 CURVE SMOOTH",
"252.1 222.46 OFFCURVE",
"259.24 216.34 OFFCURVE",
"269.44 206.14 CURVE SMOOTH",
"278.12 197.46 OFFCURVE",
"295.96 185.1 OFFCURVE",
"300.04 185.1 CURVE SMOOTH",
"303.4 185.1 OFFCURVE",
"305.69 186.05 OFFCURVE",
"308.05 187.89 CURVE SMOOTH",
"318.17 195.76 OFFCURVE",
"310.53 221.08 OFFCURVE",
"323.5 227.56 CURVE SMOOTH",
"331.66 231.64 OFFCURVE",
"364.62 247.96 OFFCURVE",
"379.6 247.96 CURVE SMOOTH",
"399.54 247.96 OFFCURVE",
"419.38 211.24 OFFCURVE",
"419.38 186.76 CURVE SMOOTH",
"419.38 172.84 OFFCURVE",
"417.74 159.66 OFFCURVE",
"394.9 140.86 CURVE SMOOTH",
"361.82 113.62 OFFCURVE",
"300.74 85.21 OFFCURVE",
"263.21 85.21 CURVE SMOOTH",
"233.56 85.21 OFFCURVE",
"216.69 101.94 OFFCURVE",
"202.93 118.16 CURVE SMOOTH",
"184.23 140.2 OFFCURVE",
"177.99 154.81 OFFCURVE",
"172.9 173.51 CURVE SMOOTH",
"167.11 194.79 OFFCURVE",
"162.34 211.36 OFFCURVE",
"162.34 262.23 CURVE SMOOTH",
"162.34 322.72 OFFCURVE",
"172.54 345.9 OFFCURVE",
"172.54 386.67 CURVE SMOOTH",
"172.54 393.19 OFFCURVE",
"172.24 401.02 OFFCURVE",
"158.8 401.02 CURVE SMOOTH",
"145.37 401.02 OFFCURVE",
"111.12 367.33 OFFCURVE",
"76.05 318.85 CURVE SMOOTH",
"49.12 281.62 OFFCURVE",
"34.84 239.33 OFFCURVE",
"34.84 181.66 CURVE SMOOTH",
"34.84 148.19 OFFCURVE",
"51.06 80.14 OFFCURVE",
"108.32 26.16 CURVE SMOOTH",
"151.12 -14.18 OFFCURVE",
"212.78 -29.44 OFFCURVE",
"260.98 -29.44 CURVE SMOOTH",
"339.95 -29.44 OFFCURVE",
"411.22 -1.95 OFFCURVE",
"470.65 36.74 CURVE SMOOTH",
"504.12 58.53 OFFCURVE",
"546.73 101.8 OFFCURVE",
"563.2 138.82 CURVE SMOOTH",
"578.82 173.93 OFFCURVE",
"585.64 196.46 OFFCURVE",
"585.64 226.54 CURVE SMOOTH",
"585.64 278.23 OFFCURVE",
"548.05 340.79 OFFCURVE",
"516.77 362.07 CURVE SMOOTH",
"509.57 366.97 OFFCURVE",
"501.62 370.36 OFFCURVE",
"488.74 370.36 CURVE SMOOTH",
"448.26 370.36 OFFCURVE",
"373.48 346.9 OFFCURVE",
"373.48 346.9 CURVE",
"373.48 346.9 OFFCURVE",
"387.93 395.86 OFFCURVE",
"398.13 422.38 CURVE SMOOTH",
"413.88 463.33 OFFCURVE",
"424.33 493.28 OFFCURVE",
"441.82 524.38 CURVE SMOOTH",
"451 540.7 OFFCURVE",
"467.32 558.04 OFFCURVE",
"483.64 558.04 CURVE SMOOTH",
"493.51 558.04 OFFCURVE",
"503.02 552.94 OFFCURVE",
"503.02 541.72 CURVE SMOOTH",
"503.02 535.18 OFFCURVE",
"500.98 527.44 OFFCURVE",
"493.84 519.28 CURVE SMOOTH",
"479.56 502.96 OFFCURVE",
"452.02 497.86 OFFCURVE",
"417.34 497.86 CURVE SMOOTH",
"413.05 497.86 OFFCURVE",
"348.12 503.17 OFFCURVE",
"329.62 507.04 CURVE SMOOTH",
"285.76 516.22 OFFCURVE",
"259.24 528.46 OFFCURVE",
"247 536.62 CURVE SMOOTH",
"241.57 540.24 OFFCURVE",
"235.78 543.76 OFFCURVE",
"230.08 550.05 CURVE SMOOTH",
"225.27 555.36 OFFCURVE",
"224.15 561.88 OFFCURVE",
"224.15 565.05 CURVE SMOOTH",
"224.15 582.69 OFFCURVE",
"237.2 601.05 OFFCURVE",
"237.2 607.17 CURVE SMOOTH",
"237.2 611.31 OFFCURVE",
"235.16 613.29 OFFCURVE",
"230.06 613.29 CURVE SMOOTH",
"225.98 613.29 OFFCURVE",
"214.06 606.79 OFFCURVE",
"204.56 599.01 CURVE SMOOTH",
"189.89 586.99 OFFCURVE",
"181.73 578.44 OFFCURVE",
"171.53 562.12 CURVE SMOOTH",
"163.95 550 OFFCURVE",
"156.9 534.47 OFFCURVE",
"156.9 508.68 CURVE SMOOTH",
"156.9 491.11 OFFCURVE",
"163.37 474.4 OFFCURVE",
"175.61 461.14 CURVE SMOOTH",
"195.28 439.84 OFFCURVE",
"231.87 424.98 OFFCURVE",
"254.15 418.3 CURVE SMOOTH",
"305.15 403 OFFCURVE",
"366.08 395.86 OFFCURVE",
"400.01 395.86 CURVE SMOOTH",
"458.84 395.86 OFFCURVE",
"506.09 412.18 OFFCURVE",
"532.4 432.81 CURVE SMOOTH",
"563.16 456.93 OFFCURVE",
"592.79 504.7 OFFCURVE",
"592.79 544.78 CURVE SMOOTH",
"592.79 569.74 OFFCURVE",
"585.35 593.01 OFFCURVE",
"567.29 610.06 CURVE SMOOTH",
"548.93 627.4 OFFCURVE",
"524.45 640.66 OFFCURVE",
"475.49 640.66 CURVE SMOOTH",
"436.73 640.66 OFFCURVE",
"387.77 620.26 OFFCURVE",
"354.11 577.42 CURVE SMOOTH",
"287.43 492.55 OFFCURVE",
"237.66 387.49 OFFCURVE",
"237.66 265.3 CURVE SMOOTH"
);
}
);
};
hints = (
{
horizontal = 1;
place = "{-29.43, 114.65}";
type = Stem;
},
{
horizontal = 1;
place = "{558.04, 82.62}";
type = Stem;
},
{
place = "{34.84, 127.5}";
type = Stem;
},
{
place = "{419.38, 166.26}";
type = Stem;
},
{
place = "{156.89, 67.26}";
type = Stem;
},
{
place = "{503.02, 89.76}";
type = Stem;
}
);
layerId = "555B79C6-6D98-46E7-9307-77C37975E414";
paths = (
{
closed = 1;
nodes = (
"238 223 OFFCURVE",
"285 185 OFFCURVE",
"300 185 CURVE SMOOTH",
"320 185 OFFCURVE",
"310 219 OFFCURVE",
"324 228 CURVE SMOOTH",
"334 234 OFFCURVE",
"365 248 OFFCURVE",
"380 248 CURVE SMOOTH",
"400 248 OFFCURVE",
"419 211 OFFCURVE",
"419 187 CURVE SMOOTH",
"419 135 OFFCURVE",
"316 85 OFFCURVE",
"263 85 CURVE SMOOTH",
"199 85 OFFCURVE",
"162 169 OFFCURVE",
"162 262 CURVE SMOOTH",
"162 323 OFFCURVE",
"173 346 OFFCURVE",
"173 387 CURVE SMOOTH",
"173 393 OFFCURVE",
"172 401 OFFCURVE",
"159 401 CURVE SMOOTH",
"131 401 OFFCURVE",
"35 301 OFFCURVE",
"35 191 CURVE SMOOTH",
"35 67 OFFCURVE",
"128 -29 OFFCURVE",
"261 -29 CURVE SMOOTH",
"418 -30 OFFCURVE",
"586 85 OFFCURVE",
"586 227 CURVE SMOOTH",
"586 278 OFFCURVE",
"540 370 OFFCURVE",
"489 370 CURVE SMOOTH",
"448 370 OFFCURVE",
"373 347 OFFCURVE",
"373 347 CURVE",
"373 347 OFFCURVE",
"388 396 OFFCURVE",
"398 422 CURVE SMOOTH",
"423 489 OFFCURVE",
"447 558 OFFCURVE",
"484 558 CURVE SMOOTH",
"494 558 OFFCURVE",
"503 553 OFFCURVE",
"503 542 CURVE SMOOTH",
"503 509 OFFCURVE",
"462 498 OFFCURVE",
"417 498 CURVE SMOOTH",
"358 498 OFFCURVE",
"224 523 OFFCURVE",
"224 565 CURVE SMOOTH",
"224 583 OFFCURVE",
"237 601 OFFCURVE",
"237 607 CURVE SMOOTH",
"237 611 OFFCURVE",
"235 613 OFFCURVE",
"230 613 CURVE SMOOTH",
"202 613 OFFCURVE",
"157 550 OFFCURVE",
"157 509 CURVE SMOOTH",
"157 425 OFFCURVE",
"309 396 OFFCURVE",
"400 396 CURVE SMOOTH",
"503 396 OFFCURVE",
"593 454 OFFCURVE",
"593 545 CURVE SMOOTH",
"593 607 OFFCURVE",
"547 641 OFFCURVE",
"475 641 CURVE SMOOTH",
"341 641 OFFCURVE",
"238 418 OFFCURVE",
"238 274 CURVE SMOOTH"
);
}
);
width = 695;
},
{
layerId = "9F2BC935-6AE7-4E60-84C9-D3B586669EA4";
width = 600;
}
);
leftKerningGroup = Nga.bn;
note = Nga.bn;
rightKerningGroup = Nga.bn;
unicode = 0999;
},
{
glyphname = Ca.bn;
lastChange = "2020-07-15 14:37:54 +0000";
layers = (
{
background = {
paths = (
{
closed = 1;
nodes = (
"0 630 LINE",
"-6 630 LINE SMOOTH",
"-18 630 OFFCURVE",
"-26 623.67 OFFCURVE",
"-30 611 CURVE SMOOTH",
"-44.86 565 LINE",
"-55 533 LINE SMOOTH",
"-60.33 518.33 OFFCURVE",
"-53.33 511 OFFCURVE",
"-34 511 CURVE SMOOTH",
"590.14 511 LINE",
"615.14 511 LINE SMOOTH",
"627.05 511 OFFCURVE",
"635.05 517.33 OFFCURVE",
"639.14 530 CURVE SMOOTH",
"654 575 LINE",
"664.14 608 LINE SMOOTH",
"669.38 622.67 OFFCURVE",
"662.33 630 OFFCURVE",
"643 630 CURVE SMOOTH"
);
},
{
closed = 1;
nodes = (
"47.44 537.86 LINE",
"47.44 537.86 OFFCURVE",
"37 361 OFFCURVE",
"16 174 CURVE SMOOTH",
"10.74 127.2 OFFCURVE",
"37.85 76.23 OFFCURVE",
"56 48 CURVE SMOOTH",
"74 20 OFFCURVE",
"107 -21 OFFCURVE",
"148 -21 CURVE SMOOTH",
"191 -21 OFFCURVE",
"310.57 23.57 OFFCURVE",
"385 98 CURVE SMOOTH",
"454 167 OFFCURVE",
"484 223 OFFCURVE",
"506 283 CURVE SMOOTH",
"511.25 297.33 OFFCURVE",
"516.39 307.05 OFFCURVE",
"527 312 CURVE SMOOTH",
"542 319 OFFCURVE",
"547 328 OFFCURVE",
"547 339 CURVE SMOOTH",
"547 347 OFFCURVE",
"535.33 381.4 OFFCURVE",
"526 406 CURVE SMOOTH",
"515 435 OFFCURVE",
"492.01 441 OFFCURVE",
"449 441 CURVE SMOOTH",
"398 441 OFFCURVE",
"315.23 444.56 OFFCURVE",
"263 448 CURVE SMOOTH",
"172 454 OFFCURVE",
"139 464 OFFCURVE",
"139 464 CURVE",
"140 337 LINE",
"140 337 OFFCURVE",
"190 327 OFFCURVE",
"259 321.27 CURVE SMOOTH",
"316.05 316.53 OFFCURVE",
"374 317 OFFCURVE",
"374 317 CURVE",
"374 317 OFFCURVE",
"352 254 OFFCURVE",
"313 209 CURVE SMOOTH",
"277.86 168.46 OFFCURVE",
"217 130 OFFCURVE",
"149 120 CURVE",
"149 120 OFFCURVE",
"152.04 149.97 OFFCURVE",
"153.88 170 CURVE SMOOTH",
"173 377 OFFCURVE",
"185 541 OFFCURVE",
"185 541 CURVE"
);
}
);
};
hints = (
{
horizontal = 1;
place = "{511, 119}";
type = Stem;
}
);
layerId = "555B79C6-6D98-46E7-9307-77C37975E414";
paths = (
{
closed = 1;
nodes = (
"0 630 LINE",
"-15 630 OFFCURVE",
"-25 628 OFFCURVE",
"-30 611 CURVE SMOOTH",
"-55 533 LINE SMOOTH",
"-60.33 518.33 OFFCURVE",
"-53.33 511 OFFCURVE",
"-34 511 CURVE SMOOTH",
"590.14 511 LINE",
"622 511 OFFCURVE",
"632 509 OFFCURVE",
"639.14 530 CURVE SMOOTH",
"664.14 608 LINE SMOOTH",
"669.38 622.67 OFFCURVE",
"662.33 630 OFFCURVE",
"643 630 CURVE SMOOTH"
);
},
{
closed = 1;
nodes = (
"47.44 537.86 LINE",
"47.44 537.86 OFFCURVE",
"37 361 OFFCURVE",
"16 174 CURVE SMOOTH",
"8 106 OFFCURVE",
"80 -21 OFFCURVE",
"148 -21 CURVE SMOOTH",
"260 -21 OFFCURVE",
"461 120 OFFCURVE",
"506 283 CURVE SMOOTH",
"510 297 OFFCURVE",
"516.39 307.05 OFFCURVE",
"527 312 CURVE SMOOTH",
"542 319 OFFCURVE",
"547 328 OFFCURVE",
"547 339 CURVE SMOOTH",
"547 347 OFFCURVE",
"535.33 381.4 OFFCURVE",
"526 406 CURVE SMOOTH",
"515 435 OFFCURVE",
"492.01 441 OFFCURVE",
"449 441 CURVE SMOOTH",
"398 441 OFFCURVE",
"315.23 444.56 OFFCURVE",
"263 448 CURVE SMOOTH",
"172 454 OFFCURVE",
"139 464 OFFCURVE",
"139 464 CURVE",
"140 337 LINE",
"140 337 OFFCURVE",
"190 327 OFFCURVE",
"259 321.27 CURVE SMOOTH",
"316.05 316.53 OFFCURVE",
"374 317 OFFCURVE",
"374 317 CURVE",
"344 203 OFFCURVE",
"219 120 OFFCURVE",
"149 120 CURVE",
"149 120 OFFCURVE",
"152.04 149.97 OFFCURVE",
"153.88 170 CURVE SMOOTH",
"173 377 OFFCURVE",
"185 541 OFFCURVE",
"185 541 CURVE"
);
}
);
width = 590;
},
{
layerId = "9F2BC935-6AE7-4E60-84C9-D3B586669EA4";
width = 600;
}
);
leftKerningGroup = VowelA.bn;
note = Ca.bn;
rightKerningGroup = VowelA.bn;
unicode = 099A;
},
{
glyphname = Cha.bn;
lastChange = "2020-07-15 14:37:54 +0000";
layers = (
{
background = {
paths = (
{
closed = 1;
nodes = (
"0 630 LINE",
"-6 630 LINE SMOOTH",
"-18 630 OFFCURVE",
"-26 624 OFFCURVE",
"-30 611 CURVE SMOOTH",
"-45 565 LINE",
"-55 533 LINE SMOOTH",
"-60.33 518.33 OFFCURVE",
"-53.33 511 OFFCURVE",
"-34 511 CURVE SMOOTH",
"650.14 511 LINE",
"675 511 LINE SMOOTH",
"687 511 OFFCURVE",
"695 517 OFFCURVE",
"699.14 530 CURVE SMOOTH",
"714 575 LINE",
"724.14 608 LINE SMOOTH",
"729.38 622.67 OFFCURVE",
"722.33 630 OFFCURVE",
"703 630 CURVE SMOOTH"
);
},
{
closed = 1;
nodes = (
"426 312 OFFCURVE",
"446.12 291 OFFCURVE",
"446.12 271 CURVE SMOOTH",
"446.12 217 OFFCURVE",
"266.7 101.85 OFFCURVE",
"209.96 101.85 CURVE SMOOTH",
"188.5 101.85 OFFCURVE",
"163.01 115 OFFCURVE",
"146.01 124 CURVE SMOOTH",
"134.76 129.96 OFFCURVE",
"117 143.24 OFFCURVE",
"103.01 143.24 CURVE SMOOTH",
"88.6 143.24 OFFCURVE",
"82 126.48 OFFCURVE",
"70.99 95.75 CURVE SMOOTH",
"64.6 77.91 OFFCURVE",
"56.48 45.91 OFFCURVE",
"56.48 31.91 CURVE SMOOTH",
"56.48 19.92 OFFCURVE",
"66.58 8.31 OFFCURVE",
"80.04 4.39 CURVE SMOOTH",
"97.21 -0.62 OFFCURVE",
"104.89 -2.42 OFFCURVE",
"118.5 -17.08 CURVE SMOOTH",
"150.01 -51 OFFCURVE",
"172.01 -75 OFFCURVE",
"219.46 -108.04 CURVE SMOOTH",
"263.56 -138.75 OFFCURVE",
"353.28 -182.98 OFFCURVE",
"398.28 -182.98 CURVE SMOOTH",
"430.43 -182.98 OFFCURVE",
"470.02 -133.9 OFFCURVE",
"485.43 -104.39 CURVE SMOOTH",
"501.26 -74.07 OFFCURVE",
"509.49 -58.57 OFFCURVE",
"503.23 -24.14 CURVE SMOOTH",
"497.85 5.46 OFFCURVE",
"491.27 23.77 OFFCURVE",
"486.41 29.02 CURVE SMOOTH",
"484.14 31.48 OFFCURVE",
"481.71 32.53 OFFCURVE",
"479.71 32.53 CURVE SMOOTH",
"476.99 32.53 OFFCURVE",
"473.53 27.38 OFFCURVE",
"471.29 22.91 CURVE SMOOTH",
"466.77 13.87 OFFCURVE",
"443.27 -42.4 OFFCURVE",
"421.76 -42.4 CURVE SMOOTH",
"418.7 -42.4 OFFCURVE",
"411.04 -42.29 OFFCURVE",
"397.98 -39.2 CURVE SMOOTH",
"363.99 -31.15 OFFCURVE",
"327.31 -13.55 OFFCURVE",
"301.1 2.02 CURVE",
"301.1 2.02 OFFCURVE",
"374.1 22.02 OFFCURVE",
"480.1 96.02 CURVE SMOOTH",
"553.33 147.14 OFFCURVE",
"584.1 218.02 OFFCURVE",
"584.1 260.02 CURVE SMOOTH",
"584.1 343.39 OFFCURVE",
"484 472 OFFCURVE",
"387.1 472.02 CURVE SMOOTH",
"336 472 OFFCURVE",
"333 470 OFFCURVE",
"281 470 CURVE SMOOTH",
"208 470 OFFCURVE",
"148 480 OFFCURVE",
"148.1 480.02 CURVE",
"156.96 367.02 LINE",
"156.96 367.02 OFFCURVE",
"200.1 361.29 OFFCURVE",
"249.1 361.29 CURVE SMOOTH",
"280.1 361.29 OFFCURVE",
"319.1 363.02 OFFCURVE",
"319.1 363.02 CURVE",
"319.1 363.02 OFFCURVE",
"307.19 335.78 OFFCURVE",
"287.1 318.02 CURVE SMOOTH",
"242.98 279.02 OFFCURVE",
"194.1 276.02 OFFCURVE",
"194.1 276.02 CURVE",
"194.1 276.02 OFFCURVE",
"195.37 297.08 OFFCURVE",
"197.98 317.02 CURVE SMOOTH",
"208.1 394.02 OFFCURVE",
"215.98 529.02 OFFCURVE",
"215.98 529.02 CURVE",
"78.42 525.88 LINE",
"78.42 525.88 OFFCURVE",
"74.98 451.02 OFFCURVE",
"60.98 329.02 CURVE SMOOTH",
"56 282 OFFCURVE",
"81 237 OFFCURVE",
"99 209 CURVE SMOOTH",
"117 181 OFFCURVE",
"162 142 OFFCURVE",
"197.98 142.02 CURVE SMOOTH",
"241 142 OFFCURVE",
"321 186 OFFCURVE",
"358 220 CURVE SMOOTH",
"394 253 OFFCURVE",
"409 267 OFFCURVE",
"425.98 312.02 CURVE SMOOTH"
);
}
);
};
hints = (
{
horizontal = 1;
place = "{-182.99, 140.58}";
type = Stem;
},
{
horizontal = 1;
place = "{361.27, 108.73}";
type = Stem;
},
{
horizontal = 1;
place = "{511, 119}";
type = Stem;
},
{
place = "{446.12, 138}";
type = Stem;
}
);
layerId = "555B79C6-6D98-46E7-9307-77C37975E414";
paths = (
{
closed = 1;
nodes = (
"0 630 LINE",
"-15 630 OFFCURVE",
"-25 628 OFFCURVE",
"-30 611 CURVE SMOOTH",
"-55 533 LINE SMOOTH",
"-60.33 518.33 OFFCURVE",
"-53.33 511 OFFCURVE",
"-34 511 CURVE SMOOTH",
"650.14 511 LINE",
"682 511 OFFCURVE",
"692 509 OFFCURVE",
"699.14 530 CURVE SMOOTH",
"724.14 608 LINE SMOOTH",
"729.38 622.67 OFFCURVE",
"722.33 630 OFFCURVE",
"703 630 CURVE SMOOTH"
);
},
{
closed = 1;
nodes = (
"426 312 OFFCURVE",
"446 291 OFFCURVE",
"446 271 CURVE SMOOTH",
"446 217 OFFCURVE",
"267 102 OFFCURVE",
"210 102 CURVE SMOOTH",
"169 102 OFFCURVE",
"126 143 OFFCURVE",
"102 143 CURVE SMOOTH",
"81 143 OFFCURVE",
"56 62 OFFCURVE",
"56 32 CURVE SMOOTH",
"56 2 OFFCURVE",
"97 10 OFFCURVE",
"119 -17 CURVE SMOOTH",
"191 -105 OFFCURVE",
"327 -183 OFFCURVE",
"398 -183 CURVE SMOOTH",
"441 -183 OFFCURVE",
"505 -90 OFFCURVE",
"505 -42 CURVE SMOOTH",
"505 -33 OFFCURVE",
"496 33 OFFCURVE",
"480 33 CURVE SMOOTH",
"470 33 OFFCURVE",
"448 -42 OFFCURVE",
"422 -42 CURVE SMOOTH",
"389 -42 OFFCURVE",
"331 -16 OFFCURVE",
"301 2 CURVE",
"400 38 OFFCURVE",
"584 132 OFFCURVE",
"584 260 CURVE SMOOTH",
"584 343 OFFCURVE",
"484 472 OFFCURVE",
"387 472 CURVE SMOOTH",
"327 472 OFFCURVE",
"215 467 OFFCURVE",
"148 480 CURVE",
"157 367 LINE",
"214 358 OFFCURVE",
"280 361 OFFCURVE",
"319 363 CURVE",
"306 325 OFFCURVE",
"248 276 OFFCURVE",
"194 276 CURVE",
"194 276 OFFCURVE",
"195 297 OFFCURVE",
"198 317 CURVE SMOOTH",
"210 394 OFFCURVE",
"216 529 OFFCURVE",
"216 529 CURVE",
"78 526 LINE",
"78 526 OFFCURVE",
"75 451 OFFCURVE",
"61 329 CURVE SMOOTH",
"52 252 OFFCURVE",
"131 142 OFFCURVE",
"198 142 CURVE SMOOTH",
"269 142 OFFCURVE",
"403 231 OFFCURVE",
"426 312 CURVE SMOOTH"
);
}
);
width = 650;
},
{
layerId = "9F2BC935-6AE7-4E60-84C9-D3B586669EA4";
width = 600;
}
);
leftKerningGroup = VowelA.bn;
note = Cha.bn;
rightKerningGroup = VowelA.bn;
unicode = 099B;
},
{
glyphname = Ja.bn;
lastChange = "2020-07-15 14:37:54 +0000";
layers = (
{
background = {
paths = (
{
closed = 1;
nodes = (
"0 630 LINE",
"-7 630 LINE SMOOTH",
"-19 630 OFFCURVE",
"-27 623.67 OFFCURVE",
"-31 611 CURVE SMOOTH",
"-45.86 565 LINE",
"-56 533 LINE SMOOTH",
"-61.33 518.33 OFFCURVE",
"-54.33 511 OFFCURVE",
"-35 511 CURVE SMOOTH",
"780.14 511 LINE",
"805.14 511 LINE SMOOTH",
"817.05 511 OFFCURVE",
"825.05 517.33 OFFCURVE",
"829.14 530 CURVE SMOOTH",
"844 575 LINE",
"854.14 608 LINE SMOOTH",
"859.38 622.67 OFFCURVE",
"852.33 630 OFFCURVE",
"833 630 CURVE SMOOTH"
);
},
{
closed = 1;
nodes = (
"650 20 OFFCURVE",
"639.11 98.96 OFFCURVE",
"663 162 CURVE SMOOTH",
"699 257 OFFCURVE",
"732 270.39 OFFCURVE",
"732 290 CURVE SMOOTH",
"732 316 OFFCURVE",
"678.65 407.31 OFFCURVE",
"646 415 CURVE SMOOTH",
"617.31 421.76 OFFCURVE",
"597.26 422.96 OFFCURVE",
"536 439 CURVE SMOOTH",
"479.41 453.82 OFFCURVE",
"378 495 OFFCURVE",
"378 495 CURVE",
"338 405 LINE",
"357.3 390.9 OFFCURVE",
"463.85 333.72 OFFCURVE",
"538 309 CURVE SMOOTH",
"595 290 LINE",
"595 290 OFFCURVE",
"550 229 OFFCURVE",
"525.55 136 CURVE SMOOTH",
"513.25 89.19 OFFCURVE",
"510 33.38 OFFCURVE",
"515 0 CURVE SMOOTH",
"518.56 -23.74 OFFCURVE",
"540.47 -35.77 OFFCURVE",
"555 -42 CURVE SMOOTH",
"569 -48 OFFCURVE",
"585.2 -51.89 OFFCURVE",
"602 -55 CURVE SMOOTH",
"629 -60 OFFCURVE",
"656 -60 OFFCURVE",
"672.12 -56.14 CURVE SMOOTH",
"681.63 -53.86 OFFCURVE",
"699.67 -48.95 OFFCURVE",
"699.67 -41.68 CURVE SMOOTH",
"699.67 -34.99 OFFCURVE",
"695.2 -33.94 OFFCURVE",
"681 -26.99 CURVE SMOOTH",
"672.03 -22.61 OFFCURVE",
"664.88 -17.2 OFFCURVE",
"660 -4.99 CURVE SMOOTH"
);
},
{
closed = 1;
nodes = (
"317 575.01 LINE",
"250.32 490.14 OFFCURVE",
"196 353.2 OFFCURVE",
"196 231.01 CURVE SMOOTH",
"196 220.64 OFFCURVE",
"196.68 212.29 OFFCURVE",
"202.73 201.69 CURVE SMOOTH",
"213.11 183.51 OFFCURVE",
"238.78 161.22 OFFCURVE",
"250.99 161.22 CURVE SMOOTH",
"254.35 161.22 OFFCURVE",
"255.93 161.84 OFFCURVE",
"258 164.01 CURVE SMOOTH",
"263.78 170.06 OFFCURVE",
"263.05 188.51 OFFCURVE",
"274 198.01 CURVE SMOOTH",
"282.16 205.09 OFFCURVE",
"293.38 207.28 OFFCURVE",
"308.18 209.65 CURVE SMOOTH",
"333.18 213.65 OFFCURVE",
"337.3 210.01 OFFCURVE",
"346.18 188.65 CURVE SMOOTH",
"352.11 174.37 OFFCURVE",
"360.57 148.21 OFFCURVE",
"343.18 128.65 CURVE SMOOTH",
"319.18 101.65 OFFCURVE",
"285.74 83.01 OFFCURVE",
"248 83.01 CURVE SMOOTH",
"225.71 83.01 OFFCURVE",
"207.99 97.78 OFFCURVE",
"194.36 114.16 CURVE SMOOTH",
"175.84 136.42 OFFCURVE",
"168.65 151.17 OFFCURVE",
"159.57 177.26 CURVE SMOOTH",
"152.27 198.25 OFFCURVE",
"143.21 233.48 OFFCURVE",
"143.21 284.85 CURVE SMOOTH",
"143.21 300.75 OFFCURVE",
"144.16 323.6 OFFCURVE",
"145.28 337.37 CURVE SMOOTH",
"149.18 385.42 OFFCURVE",
"161.76 427.1 OFFCURVE",
"161.76 457.4 CURVE SMOOTH",
"161.76 463.99 OFFCURVE",
"161.47 471.89 OFFCURVE",
"148.16 471.89 CURVE SMOOTH",
"134.87 471.89 OFFCURVE",
"94.41 437.48 OFFCURVE",
"59.15 388.91 CURVE SMOOTH",
"26.77 344.3 OFFCURVE",
"1.35 288.09 OFFCURVE",
"1.35 228.82 CURVE SMOOTH",
"1.35 191.93 OFFCURVE",
"8.92 87.88 OFFCURVE",
"91.59 21.26 CURVE SMOOTH",
"142.86 -20.06 OFFCURVE",
"195.03 -32.42 OFFCURVE",
"242.98 -32.42 CURVE SMOOTH",
"297 -32.42 OFFCURVE",
"345.66 -19.65 OFFCURVE",
"405.09 19.03 CURVE SMOOTH",
"438.56 40.82 OFFCURVE",
"465.18 73.65 OFFCURVE",
"479.64 105.11 CURVE SMOOTH",
"488.19 123.7 OFFCURVE",
"500.08 163.75 OFFCURVE",
"500.08 193.83 CURVE SMOOTH",
"500.08 238.52 OFFCURVE",
"466.18 300.65 OFFCURVE",
"432.18 316.65 CURVE SMOOTH",
"424.3 320.36 OFFCURVE",
"417.06 322.65 OFFCURVE",
"404.18 322.65 CURVE SMOOTH",
"372.44 322.65 OFFCURVE",
"322.18 301.65 OFFCURVE",
"322.18 301.65 CURVE",
"322.18 356.01 OFFCURVE",
"369 475.01 OFFCURVE",
"405.18 523.65 CURVE"
);
}
);
};
hints = (
{
horizontal = 1;
place = "{-32.43, 115.43}";
type = Stem;
},
{
horizontal = 1;
place = "{495, -20}";
target = down;
type = TopGhost;
},
{
horizontal = 1;
place = "{511, 119}";
type = Stem;
},
{
place = "{1.35, 141.86}";
type = Stem;
},
{
place = "{196, 126.18}";
type = Stem;
}
);
layerId = "555B79C6-6D98-46E7-9307-77C37975E414";
paths = (
{
closed = 1;
nodes = (
"0 630 LINE",
"-15 630 OFFCURVE",
"-26 628 OFFCURVE",
"-31 611 CURVE SMOOTH",
"-56 533 LINE SMOOTH",
"-61.33 518.33 OFFCURVE",
"-54.33 511 OFFCURVE",
"-35 511 CURVE SMOOTH",
"780.14 511 LINE",
"812 511 OFFCURVE",
"822 509 OFFCURVE",
"829.14 530 CURVE SMOOTH",
"854.14 608 LINE SMOOTH",
"859.38 622.67 OFFCURVE",
"852.33 630 OFFCURVE",
"833 630 CURVE SMOOTH"
);
},
{
closed = 1;
nodes = (
"649 24 OFFCURVE",
"649 75 CURVE SMOOTH",
"649 198 OFFCURVE",
"732 269 OFFCURVE",
"732 290 CURVE SMOOTH",
"732 316 OFFCURVE",
"679 409 OFFCURVE",
"646 415 CURVE SMOOTH",
"513 439 OFFCURVE",
"453 465 OFFCURVE",
"378 495 CURVE",
"338 405 LINE",
"383 372 OFFCURVE",
"487 326 OFFCURVE",
"595 290 CURVE",
"544 207 OFFCURVE",
"513 127 OFFCURVE",
"513 17 CURVE SMOOTH",
"513 -37 OFFCURVE",
"579 -59 OFFCURVE",
"641 -59 CURVE SMOOTH",
"669 -59 OFFCURVE",
"700 -52 OFFCURVE",
"699.67 -41.68 CURVE SMOOTH",
"699.67 -34.99 OFFCURVE",
"695.2 -33.94 OFFCURVE",
"681 -26.99 CURVE SMOOTH",
"654 -14 OFFCURVE"
);
},
{
closed = 1;
nodes = (
"317 575.01 LINE",
"250.32 490.14 OFFCURVE",
"196 353.2 OFFCURVE",
"196 231.01 CURVE SMOOTH",
"196 202 OFFCURVE",
"227 162 OFFCURVE",
"250.99 161.22 CURVE SMOOTH",
"265 161 OFFCURVE",
"263 191 OFFCURVE",
"274 198.01 CURVE SMOOTH",
"287 207 OFFCURVE",
"308 211 OFFCURVE",
"324 211 CURVE SMOOTH",
"343 211 OFFCURVE",
"354 177 OFFCURVE",
"354 157 CURVE SMOOTH",
"354 118 OFFCURVE",
"292 83 OFFCURVE",
"248 83.01 CURVE SMOOTH",
"185 83 OFFCURVE",
"143 190 OFFCURVE",
"143.21 284.85 CURVE SMOOTH",
"143 367 OFFCURVE",
"162 412 OFFCURVE",
"161.76 457.4 CURVE SMOOTH",
"161.76 463.99 OFFCURVE",
"161 472 OFFCURVE",
"148.16 471.89 CURVE SMOOTH",
"111 472 OFFCURVE",
"1 348 OFFCURVE",
"1 218 CURVE SMOOTH",
"1 84 OFFCURVE",
"99 -32 OFFCURVE",
"243 -32 CURVE SMOOTH",
"379 -32 OFFCURVE",
"500 65 OFFCURVE",
"500.08 193.83 CURVE SMOOTH",
"500 245 OFFCURVE",
"459 323 OFFCURVE",
"404.18 322.65 CURVE SMOOTH",
"372.44 322.65 OFFCURVE",
"322.18 301.65 OFFCURVE",
"322.18 301.65 CURVE",
"322.18 356.01 OFFCURVE",
"369 475.01 OFFCURVE",
"405.18 523.65 CURVE"
);
}
);
width = 780;
},
{
layerId = "9F2BC935-6AE7-4E60-84C9-D3B586669EA4";
width = 600;
}
);
leftKerningGroup = VowelA.bn;
note = Ja.bn;
rightKerningGroup = VowelA.bn;
unicode = 099C;
},
{
glyphname = Jha.bn;
lastChange = "2020-07-15 14:37:54 +0000";
layers = (
{
background = {
paths = (
{
closed = 1;
nodes = (
"855 511 LINE",
"880 511 LINE SMOOTH",
"891.91 511 OFFCURVE",
"899.91 517.33 OFFCURVE",
"904 530 CURVE SMOOTH",
"918.86 576 LINE",
"929 608 LINE SMOOTH",
"934.24 622.67 OFFCURVE",
"927 630 OFFCURVE",
"907.86 630 CURVE SMOOTH",
"856 630 LINE",
"802 630 LINE SMOOTH",
"793.26 630 OFFCURVE",
"775.29 628.98 OFFCURVE",
"766 626.94 CURVE SMOOTH",
"748 623 OFFCURVE",
"736 618 OFFCURVE",
"721 608 CURVE SMOOTH",
"713.33 602.89 OFFCURVE",
"701 592 OFFCURVE",
"692 579 CURVE SMOOTH",
"677.3 557.77 OFFCURVE",
"670.82 539.03 OFFCURVE",
"667 511 CURVE SMOOTH",
"652 401 OFFCURVE",
"653.12 396.71 OFFCURVE",
"641 227 CURVE SMOOTH",
"636 157 OFFCURVE",
"632 128 OFFCURVE",
"626 83 CURVE SMOOTH",
"621.18 46.82 OFFCURVE",
"608.71 -1 OFFCURVE",
"645 -1 CURVE SMOOTH",
"689.82 -1 OFFCURVE",
"716 42 OFFCURVE",
"734 70 CURVE SMOOTH",
"752.15 98.23 OFFCURVE",
"774 147 OFFCURVE",
"777 194 CURVE SMOOTH",
"788.93 380.94 OFFCURVE",
"807 511 OFFCURVE",
"807 511 CURVE"
);
},
{
closed = 1;
nodes = (
"552 209 LINE",
"583 188 OFFCURVE",
"619 146 OFFCURVE",
"630 102 CURVE",
"690.36 208.27 LINE",
"626 312 OFFCURVE",
"537 340 OFFCURVE",
"537 340 CURVE"
);
},
{
closed = 1;
nodes = (
"457 630 LINE",
"457 630 OFFCURVE",
"421 340 OFFCURVE",
"414.12 170 CURVE SMOOTH",
"413.31 149.91 OFFCURVE",
"414 124 OFFCURVE",
"414 124 CURVE",
"364 141 OFFCURVE",
"305.81 178.24 OFFCURVE",
"271 219 CURVE SMOOTH",
"230 267 OFFCURVE",
"210 319 OFFCURVE",
"210 319 CURVE",
"210 319 OFFCURVE",
"288 314.68 OFFCURVE",
"334 314.68 CURVE SMOOTH",
"361 314.68 OFFCURVE",
"455.56 316.57 OFFCURVE",
"473.14 319 CURVE",
"489 443 LINE",
"489 443 OFFCURVE",
"450 439 OFFCURVE",
"302 439 CURVE SMOOTH",
"226 439 OFFCURVE",
"179 442 OFFCURVE",
"122 442 CURVE SMOOTH",
"78.99 442 OFFCURVE",
"56 438 OFFCURVE",
"45 409 CURVE SMOOTH",
"36.6 386.84 OFFCURVE",
"33 376 OFFCURVE",
"26 353 CURVE SMOOTH",
"20.28 334.2 OFFCURVE",
"21.55 323.42 OFFCURVE",
"44 315 CURVE SMOOTH",
"68 306 OFFCURVE",
"81.07 299.6 OFFCURVE",
"88 286 CURVE SMOOTH",
"115 233 OFFCURVE",
"134.93 177.01 OFFCURVE",
"206 105 CURVE SMOOTH",
"282 28 OFFCURVE",
"386 -21 OFFCURVE",
"420 -21 CURVE SMOOTH",
"447 -21 OFFCURVE",
"491 22 OFFCURVE",
"509 50 CURVE SMOOTH",
"527.15 78.23 OFFCURVE",
"549 127 OFFCURVE",
"552 174 CURVE SMOOTH",
"561.84 328.14 OFFCURVE",
"592 608 OFFCURVE",
"592 608 CURVE",
"594 625 OFFCURVE",
"584.19 630 OFFCURVE",
"564.86 630 CURVE SMOOTH"
);
},
{
closed = 1;
nodes = (
"0 630 LINE",
"-15 630 OFFCURVE",
"-26 628 OFFCURVE",
"-31 611 CURVE SMOOTH",
"-56 533 LINE SMOOTH",
"-61.33 518.33 OFFCURVE",
"-54.33 511 OFFCURVE",
"-35 511 CURVE SMOOTH",
"497.14 511 LINE",
"529 511 OFFCURVE",
"539 509 OFFCURVE",
"546.14 530 CURVE SMOOTH",
"571.14 608 LINE SMOOTH",
"576.38 622.67 OFFCURVE",
"569.33 630 OFFCURVE",
"550 630 CURVE SMOOTH"
);
}
);
};
hints = (
{
horizontal = 1;
place = "{314.68, 124.32}";
type = Stem;
},
{
horizontal = 1;
place = "{511, 119}";
type = Stem;
}
);
layerId = "555B79C6-6D98-46E7-9307-77C37975E414";
paths = (
{
closed = 1;
nodes = (
"855 511 LINE",
"887 511 OFFCURVE",
"897 509 OFFCURVE",
"904 530 CURVE SMOOTH",
"929 608 LINE SMOOTH",
"938 636 OFFCURVE",
"917 630 OFFCURVE",
"802 630 CURVE SMOOTH",
"725 630 OFFCURVE",
"678 587 OFFCURVE",
"667 511 CURVE SMOOTH",
"642 328 OFFCURVE",
"648 247 OFFCURVE",
"626 83 CURVE SMOOTH",
"621.18 46.82 OFFCURVE",
"608.71 -1 OFFCURVE",
"645 -1 CURVE SMOOTH",
"708 -1 OFFCURVE",
"772 114 OFFCURVE",
"777 194 CURVE SMOOTH",
"788.93 380.94 OFFCURVE",
"807 511 OFFCURVE",
"807 511 CURVE"
);
},
{
closed = 1;
nodes = (
"552 209 LINE",
"583 188 OFFCURVE",
"619 146 OFFCURVE",
"630 102 CURVE",
"690.36 208.27 LINE",
"627 312 OFFCURVE",
"538 340 OFFCURVE",
"537 340 CURVE"
);
},
{
closed = 1;
nodes = (
"457 630 LINE",
"457 630 OFFCURVE",
"421 340 OFFCURVE",
"414.12 170 CURVE SMOOTH",
"413.31 149.91 OFFCURVE",
"414 124 OFFCURVE",
"414 124 CURVE",
"342 142 OFFCURVE",
"244 227 OFFCURVE",
"210 319 CURVE",
"310 314 OFFCURVE",
"414 313 OFFCURVE",
"473.14 319 CURVE",
"489 443 LINE",
"489 443 OFFCURVE",
"450 439 OFFCURVE",
"302 439 CURVE SMOOTH",
"226 439 OFFCURVE",
"179 442 OFFCURVE",
"122 442 CURVE SMOOTH",
"78.99 442 OFFCURVE",
"56 438 OFFCURVE",
"45 409 CURVE SMOOTH",
"37 387 OFFCURVE",
"23 349 OFFCURVE",
"23 337 CURVE SMOOTH",
"23 328 OFFCURVE",
"29 321 OFFCURVE",
"44 315 CURVE SMOOTH",
"68 306 OFFCURVE",
"83 300 OFFCURVE",
"88 286 CURVE SMOOTH",
"131 157 OFFCURVE",
"306 -21 OFFCURVE",
"420 -21 CURVE SMOOTH",
"477 -21 OFFCURVE",
"547 95 OFFCURVE",
"552 174 CURVE SMOOTH",
"561.84 328.14 OFFCURVE",
"592 608 OFFCURVE",
"592 608 CURVE",
"594 625 OFFCURVE",
"584.19 630 OFFCURVE",
"564.86 630 CURVE SMOOTH"
);
},
{
closed = 1;
nodes = (
"0 630 LINE",
"-15 630 OFFCURVE",
"-26 628 OFFCURVE",
"-31 611 CURVE SMOOTH",
"-56 533 LINE SMOOTH",
"-61.33 518.33 OFFCURVE",
"-54.33 511 OFFCURVE",
"-35 511 CURVE SMOOTH",
"497.14 511 LINE",
"529 511 OFFCURVE",
"539 509 OFFCURVE",
"546.14 530 CURVE SMOOTH",
"571.14 608 LINE SMOOTH",
"576.38 622.67 OFFCURVE",
"569.33 630 OFFCURVE",
"550 630 CURVE SMOOTH"
);
}
);
width = 855;
},
{
layerId = "9F2BC935-6AE7-4E60-84C9-D3B586669EA4";
width = 600;
}
);
leftKerningGroup = VowelA.bn;
note = Jha.bn;
rightKerningGroup = VowelA.bn;
unicode = 099D;
},
{
glyphname = Nya.bn;
lastChange = "2020-07-15 14:37:54 +0000";
layers = (
{
background = {
paths = (
{
closed = 1;
nodes = (
"576.74 459.91 OFFCURVE",
"568 502 OFFCURVE",
"553.99 530.43 CURVE SMOOTH",
"533.24 572.55 OFFCURVE",
"500 599.56 OFFCURVE",
"463 619 CURVE SMOOTH",
"451.91 624.83 OFFCURVE",
"431.58 633.43 OFFCURVE",
"410.79 633.43 CURVE SMOOTH",
"374.94 633.43 OFFCURVE",
"315.01 604.57 OFFCURVE",
"282.85 578.22 CURVE SMOOTH",
"264.04 562.81 OFFCURVE",
"250.29 545.6 OFFCURVE",
"237.79 524.61 CURVE SMOOTH",
"234.04 518.32 OFFCURVE",
"229.72 509.73 OFFCURVE",
"229.72 503.04 CURVE SMOOTH",
"229.72 496.51 OFFCURVE",
"232.47 489.57 OFFCURVE",
"243 489.57 CURVE SMOOTH",
"255.31 489.57 OFFCURVE",
"307.29 511.57 OFFCURVE",
"324 511.57 CURVE SMOOTH",
"355.8 511.57 OFFCURVE",
"443.31 435 OFFCURVE",
"435.99 379 CURVE SMOOTH",
"417.99 270 OFFCURVE",
"406.99 189 OFFCURVE",
"403.99 122 CURVE",
"358.99 117 OFFCURVE",
"239.99 117 OFFCURVE",
"195.99 143 CURVE SMOOTH",
"167.46 159.86 OFFCURVE",
"156.74 183.43 OFFCURVE",
"150.99 208 CURVE SMOOTH",
"146.11 228.87 OFFCURVE",
"146.99 249.67 OFFCURVE",
"146.99 263 CURVE SMOOTH",
"146.99 278.27 OFFCURVE",
"148.94 301.21 OFFCURVE",
"150.05 314.44 CURVE SMOOTH",
"153.94 360.58 OFFCURVE",
"160.48 390.06 OFFCURVE",
"160.48 413.15 CURVE SMOOTH",
"160.48 419.48 OFFCURVE",
"158.19 428.06 OFFCURVE",
"147.9 428.06 CURVE SMOOTH",
"134.63 428.06 OFFCURVE",
"98.24 394.01 OFFCURVE",
"63.05 347.37 CURVE SMOOTH",
"30.73 304.53 OFFCURVE",
"10.35 255.54 OFFCURVE",
"10.35 198.63 CURVE SMOOTH",
"10.35 163.2 OFFCURVE",
"27.98 89 OFFCURVE",
"83.37 41.74 CURVE SMOOTH",
"131.16 0.96 OFFCURVE",
"193.52 -16.97 OFFCURVE",
"250.87 -16.97 CURVE SMOOTH",
"332.9 -16.9 OFFCURVE",
"388.09 13.82 OFFCURVE",
"407.35 13.82 CURVE SMOOTH",
"422.17 13.82 OFFCURVE",
"430.35 4.86 OFFCURVE",
"447.09 -8.69 CURVE SMOOTH",
"453.8 -14.12 OFFCURVE",
"458.98 -16.59 OFFCURVE",
"463.99 -16.59 CURVE SMOOTH",
"468.99 -16.59 OFFCURVE",
"475.65 -12.25 OFFCURVE",
"482.27 -5.54 CURVE SMOOTH",
"495.94 8.32 OFFCURVE",
"537.5 52.5 OFFCURVE",
"550.99 67.99 CURVE SMOOTH",
"556.56 74.39 OFFCURVE",
"558.99 80.93 OFFCURVE",
"558.99 86.99 CURVE SMOOTH",
"558.99 103.99 OFFCURVE",
"535.46 118.98 OFFCURVE",
"535.99 142.99 CURVE SMOOTH",
"537.82 226 OFFCURVE",
"553.99 289.99 OFFCURVE",
"570.99 416.99 CURVE SMOOTH"
);
},
{
closed = 1;
nodes = (
"643.88 295.26 OFFCURVE",
"670.16 301.16 OFFCURVE",
"672.82 284.99 CURVE SMOOTH",
"673.63 280.05 OFFCURVE",
"671.53 266.73 OFFCURVE",
"669.26 259.14 CURVE SMOOTH",
"666.5 249.92 OFFCURVE",
"660.8 240.08 OFFCURVE",
"650.48 238.39 CURVE SMOOTH",
"632.34 235.42 OFFCURVE",
"597 249.29 OFFCURVE",
"562.42 260.98 CURVE SMOOTH",
"552.36 264.38 OFFCURVE",
"531.95 272.05 OFFCURVE",
"531.95 272.05 CURVE",
"482.52 151.87 LINE",
"482.52 151.87 OFFCURVE",
"535.55 141.39 OFFCURVE",
"563.03 138.36 CURVE SMOOTH",
"600.11 134.26 OFFCURVE",
"640.77 132.04 OFFCURVE",
"672.51 140.64 CURVE SMOOTH",
"698.58 147.71 OFFCURVE",
"711.66 154.48 OFFCURVE",
"729.94 166.09 CURVE SMOOTH",
"741.47 173.41 OFFCURVE",
"757.84 186.47 OFFCURVE",
"771.55 205.4 CURVE SMOOTH",
"778.13 214.48 OFFCURVE",
"785.99 229.98 OFFCURVE",
"791.46 254.38 CURVE SMOOTH",
"801.07 297.22 OFFCURVE",
"780.02 334.26 OFFCURVE",
"765.81 346.76 CURVE",
"786.49 367.76 OFFCURVE",
"798.54 399.74 OFFCURVE",
"800.06 421.02 CURVE SMOOTH",
"802.19 450.85 OFFCURVE",
"790.62 481.75 OFFCURVE",
"774.94 500.92 CURVE SMOOTH",
"751.21 529.94 OFFCURVE",
"718.12 547.6 OFFCURVE",
"681.21 553.25 CURVE SMOOTH",
"648.23 558.29 OFFCURVE",
"610.86 557.15 OFFCURVE",
"571.73 549.69 CURVE SMOOTH",
"544.38 544.47 OFFCURVE",
"467.21 524.8 OFFCURVE",
"467.21 524.8 CURVE",
"521.67 407.75 LINE",
"521.67 407.75 OFFCURVE",
"532.21 411.08 OFFCURVE",
"563.98 421.23 CURVE SMOOTH",
"585.18 428 OFFCURVE",
"593.66 430.41 OFFCURVE",
"610.87 434.95 CURVE SMOOTH",
"624.41 438.53 OFFCURVE",
"640.31 442.14 OFFCURVE",
"653.6 442.29 CURVE SMOOTH",
"662.57 442.39 OFFCURVE",
"672.61 441.88 OFFCURVE",
"679.09 432.68 CURVE SMOOTH",
"683.42 426.52 OFFCURVE",
"680.26 410.93 OFFCURVE",
"678 397.97 CURVE SMOOTH",
"676 386.44 OFFCURVE",
"673.22 382.14 OFFCURVE",
"664.34 380.68 CURVE SMOOTH",
"658.58 379.74 OFFCURVE",
"649.43 383.11 OFFCURVE",
"636.08 386.18 CURVE SMOOTH",
"619.24 390.06 OFFCURVE",
"611.1 382.24 OFFCURVE",
"607.92 366.05 CURVE SMOOTH",
"606.36 358.08 OFFCURVE",
"604.78 335.14 OFFCURVE",
"603.9 327.48 CURVE SMOOTH",
"601.74 308.74 OFFCURVE",
"605.43 297.7 OFFCURVE",
"618.42 296.87 CURVE SMOOTH"
);
}
);
};
hints = (
{
horizontal = 1;
place = "{-16.97, 138.97}";
type = Stem;
},
{
horizontal = 1;
place = "{296.9, 89.31}";
type = Stem;
},
{
horizontal = 1;
place = "{489.57, 21}";
target = up;
type = BottomGhost;
},
{
horizontal = 1;
place = "{511.57, 121.86}";
type = Stem;
},
{
place = "{10.37, 136.63}";
type = Stem;
}
);
layerId = "555B79C6-6D98-46E7-9307-77C37975E414";
paths = (
{
closed = 1;
nodes = (
"643.88 295.26 OFFCURVE",
"673 301 OFFCURVE",
"673 283 CURVE SMOOTH",
"673 262 OFFCURVE",
"666 237 OFFCURVE",
"646 237 CURVE SMOOTH",
"628 237 OFFCURVE",
"586 252 OFFCURVE",
"531.95 272.05 CURVE",
"482.52 151.87 LINE",
"527 143 OFFCURVE",
"557 135 OFFCURVE",
"619 135 CURVE SMOOTH",
"713 135 OFFCURVE",
"794 194 OFFCURVE",
"794 277 CURVE SMOOTH",
"794 310 OFFCURVE",
"777 336 OFFCURVE",
"765.81 346.76 CURVE",
"784 366 OFFCURVE",
"800 398 OFFCURVE",
"800 430 CURVE SMOOTH",
"800 508 OFFCURVE",
"729 556 OFFCURVE",
"636 556 CURVE SMOOTH",
"573 556 OFFCURVE",
"532 541 OFFCURVE",
"469 520 CURVE",
"521.67 407.75 LINE",
"570 424 OFFCURVE",
"627 442 OFFCURVE",
"653.6 442.29 CURVE SMOOTH",
"675 443 OFFCURVE",
"681 435 OFFCURVE",
"681 422 CURVE SMOOTH",
"681 402 OFFCURVE",
"677 381 OFFCURVE",
"664 381 CURVE SMOOTH",
"654 381 OFFCURVE",
"634 387 OFFCURVE",
"627 387 CURVE SMOOTH",
"618 387 OFFCURVE",
"611 380 OFFCURVE",
"609 370 CURVE SMOOTH",
"607 359 OFFCURVE",
"603 330 OFFCURVE",
"603 321 CURVE SMOOTH",
"603 307 OFFCURVE",
"605.43 297.7 OFFCURVE",
"618.42 296.87 CURVE SMOOTH"
);
},
{
closed = 1;
nodes = (
"585 520 OFFCURVE",
"508 633 OFFCURVE",
"411 633 CURVE SMOOTH",
"350 633 OFFCURVE",
"230 556 OFFCURVE",
"230 503 CURVE SMOOTH",
"230 497 OFFCURVE",
"232 490 OFFCURVE",
"243 490 CURVE SMOOTH",
"255 490 OFFCURVE",
"307 512 OFFCURVE",
"324 512 CURVE SMOOTH",
"356 512 OFFCURVE",
"443 435 OFFCURVE",
"436 379 CURVE SMOOTH",
"422 269 OFFCURVE",
"407 189 OFFCURVE",
"404 122 CURVE",
"245 122 OFFCURVE",
"147 126 OFFCURVE",
"147 240 CURVE SMOOTH",
"147 302 OFFCURVE",
"160 378 OFFCURVE",
"160 413 CURVE SMOOTH",
"160 419 OFFCURVE",
"158 428 OFFCURVE",
"148 428 CURVE SMOOTH",
"118 428 OFFCURVE",
"10 319 OFFCURVE",
"10 203 CURVE SMOOTH",
"10 74 OFFCURVE",
"114 -17 OFFCURVE",
"251 -17 CURVE SMOOTH",
"333 -17 OFFCURVE",
"388 14 OFFCURVE",
"407 14 CURVE SMOOTH",
"431 14 OFFCURVE",
"448 -17 OFFCURVE",
"464 -17 CURVE SMOOTH",
"479 -17 OFFCURVE",
"559 65 OFFCURVE",
"559 87 CURVE SMOOTH",
"559 104 OFFCURVE",
"535 119 OFFCURVE",
"536 143 CURVE SMOOTH",
"539 226 OFFCURVE",
"554 290 OFFCURVE",
"571 417 CURVE SMOOTH"
);
}
);
width = 870;
},
{
layerId = "9F2BC935-6AE7-4E60-84C9-D3B586669EA4";
width = 600;
}
);
leftKerningGroup = VowelE.bn;
note = Nya.bn;
rightKerningGroup = Nya.bn;
unicode = 099E;
},
{
glyphname = Tta.bn;
lastChange = "2020-07-15 14:37:54 +0000";
layers = (
{
background = {
paths = (
{
closed = 1;
nodes = (
"0 630 LINE",
"-15 630 OFFCURVE",
"-26 628 OFFCURVE",
"-31 611 CURVE SMOOTH",
"-56 533 LINE SMOOTH",
"-61.33 518.33 OFFCURVE",
"-54.33 511 OFFCURVE",
"-35 511 CURVE SMOOTH",
"565.14 511 LINE",
"597 511 OFFCURVE",
"607 509 OFFCURVE",
"614.14 530 CURVE SMOOTH",
"639.14 608 LINE SMOOTH",
"644.38 622.67 OFFCURVE",
"637.33 630 OFFCURVE",
"618 630 CURVE SMOOTH"
);
},
{
closed = 1;
nodes = (
"457.59 677.26 OFFCURVE",
"470.52 705.57 OFFCURVE",
"470.52 734.69 CURVE SMOOTH",
"470.52 761.85 OFFCURVE",
"456.42 789.63 OFFCURVE",
"431.81 804.4 CURVE SMOOTH",
"418.71 812.26 OFFCURVE",
"399.13 817.82 OFFCURVE",
"374.07 817.82 CURVE SMOOTH",
"330.84 817.82 OFFCURVE",
"294 810.01 OFFCURVE",
"236.31 799.85 CURVE SMOOTH",
"204.14 794.19 OFFCURVE",
"179.16 788 OFFCURVE",
"165.01 788 CURVE SMOOTH",
"149.12 788 OFFCURVE",
"128.01 807.1 OFFCURVE",
"128.01 821 CURVE SMOOTH",
"128.01 832.7 OFFCURVE",
"161.01 853.13 OFFCURVE",
"161.01 860 CURVE SMOOTH",
"161.01 866.13 OFFCURVE",
"140.68 867.13 OFFCURVE",
"129.52 867.13 CURVE SMOOTH",
"114.52 867.13 OFFCURVE",
"95.01 862 OFFCURVE",
"83.01 852 CURVE SMOOTH",
"70.6 841.66 OFFCURVE",
"53.01 824 OFFCURVE",
"41.2 798.22 CURVE SMOOTH",
"38.56 792.47 OFFCURVE",
"36.76 783.81 OFFCURVE",
"36.76 775.3 CURVE SMOOTH",
"36.76 766.78 OFFCURVE",
"38.67 759.19 OFFCURVE",
"40.01 755 CURVE SMOOTH",
"48.01 730 OFFCURVE",
"65.08 712.09 OFFCURVE",
"81.01 700 CURVE SMOOTH",
"110.01 678 OFFCURVE",
"151.6 677.02 OFFCURVE",
"173.83 677.02 CURVE SMOOTH",
"207.24 677.02 OFFCURVE",
"296.71 687.3 OFFCURVE",
"322.29 687.3 CURVE SMOOTH",
"350.45 687.3 OFFCURVE",
"355.09 673.35 OFFCURVE",
"355.09 667.76 CURVE SMOOTH",
"355.09 655.32 OFFCURVE",
"343.01 633.01 OFFCURVE",
"321.33 618.64 CURVE",
"418.44 619.79 LINE",
"418.44 619.79 OFFCURVE",
"434.17 635.1 OFFCURVE",
"448.01 660 CURVE SMOOTH"
);
},
{
closed = 1;
nodes = (
"509.01 232 OFFCURVE",
"514.04 278.63 OFFCURVE",
"514.04 310.71 CURVE SMOOTH",
"514.04 362.4 OFFCURVE",
"486.04 435.71 OFFCURVE",
"441.04 455.71 CURVE SMOOTH",
"433.08 459.25 OFFCURVE",
"418.89 462 OFFCURVE",
"406.01 462 CURVE SMOOTH",
"365.53 462 OFFCURVE",
"301.15 452.98 OFFCURVE",
"279.86 439.82 CURVE SMOOTH",
"247.02 419.51 OFFCURVE",
"242.01 347.77 OFFCURVE",
"242.01 321.8 CURVE SMOOTH",
"242.01 300.71 OFFCURVE",
"248.9 284.54 OFFCURVE",
"252.15 274.77 CURVE SMOOTH",
"257.15 259.77 OFFCURVE",
"262.18 250.77 OFFCURVE",
"270.15 250.77 CURVE SMOOTH",
"283.15 250.77 OFFCURVE",
"283.67 300.15 OFFCURVE",
"297.01 310 CURVE SMOOTH",
"306.55 317.05 OFFCURVE",
"337.97 336.42 OFFCURVE",
"359.97 336.42 CURVE SMOOTH",
"379.97 336.42 OFFCURVE",
"391.49 295.25 OFFCURVE",
"391.49 270.9 CURVE SMOOTH",
"391.49 257.55 OFFCURVE",
"390.01 244 OFFCURVE",
"367.01 225 CURVE SMOOTH",
"325.65 190.83 OFFCURVE",
"217.01 132 OFFCURVE",
"159.01 123 CURVE",
"159.01 123 OFFCURVE",
"162.05 149.97 OFFCURVE",
"163.89 170 CURVE SMOOTH",
"183.01 377 OFFCURVE",
"195.01 541 OFFCURVE",
"195.01 541 CURVE",
"57.45 539.86 LINE",
"57.45 539.86 OFFCURVE",
"47.01 361 OFFCURVE",
"26.01 174 CURVE SMOOTH",
"20.75 127.2 OFFCURVE",
"47.86 76.23 OFFCURVE",
"66.01 48 CURVE SMOOTH",
"84.01 20 OFFCURVE",
"117.01 -21 OFFCURVE",
"158.01 -21 CURVE SMOOTH",
"188.28 -21 OFFCURVE",
"275.81 7.3 OFFCURVE",
"343.01 51.69 CURVE SMOOTH",
"401.01 90 OFFCURVE",
"450.91 126.57 OFFCURVE",
"482.01 183 CURVE SMOOTH"
);
}
);
};
hints = (
{
horizontal = 1;
place = "{336.42, 125.58}";
type = Stem;
},
{
horizontal = 1;
place = "{619.79, 10.21}";
type = Stem;
},
{
place = "{36.75, 91.25}";
type = Stem;
},
{
horizontal = 1;
place = "{511, 119}";
type = Stem;
},
{
horizontal = 1;
place = "{687.3, 130.51}";
type = Stem;
},
{
place = "{355.08, 115.44}";
type = Stem;
},
{
horizontal = 1;
place = "{677.02, 110.98}";
type = Stem;
},
{
place = "{391.48, 122.55}";
type = Stem;
}
);
layerId = "555B79C6-6D98-46E7-9307-77C37975E414";
paths = (
{
closed = 1;
nodes = (
"0 630 LINE",
"-15 630 OFFCURVE",
"-26 628 OFFCURVE",
"-31 611 CURVE SMOOTH",
"-56 533 LINE SMOOTH",
"-61.33 518.33 OFFCURVE",
"-54.33 511 OFFCURVE",
"-35 511 CURVE SMOOTH",
"565.14 511 LINE",
"597 511 OFFCURVE",
"607 509 OFFCURVE",
"614.14 530 CURVE SMOOTH",
"639.14 608 LINE SMOOTH",
"644.38 622.67 OFFCURVE",
"637.33 630 OFFCURVE",
"618 630 CURVE SMOOTH"
);
},
{
closed = 1;
nodes = (
"275 -21 OFFCURVE",
"514 134 OFFCURVE",
"514 281 CURVE SMOOTH",
"514 366 OFFCURVE",
"486 462 OFFCURVE",
"406 462 CURVE SMOOTH",
"366 462 OFFCURVE",
"301 453 OFFCURVE",
"280 440 CURVE SMOOTH",
"247 420 OFFCURVE",
"242 348 OFFCURVE",
"242 322 CURVE SMOOTH",
"242 302 OFFCURVE",
"255 251 OFFCURVE",
"270 251 CURVE SMOOTH",
"283 251 OFFCURVE",
"284 300 OFFCURVE",
"297 310 CURVE SMOOTH",
"307 317 OFFCURVE",
"338 336 OFFCURVE",
"360 336 CURVE SMOOTH",
"380 336 OFFCURVE",
"391 295 OFFCURVE",
"391 266 CURVE SMOOTH",
"391 212 OFFCURVE",
"226 138 OFFCURVE",
"159 123 CURVE",
"159 123 OFFCURVE",
"162 150 OFFCURVE",
"164 170 CURVE SMOOTH",
"183 377 OFFCURVE",
"195 541 OFFCURVE",
"195 541 CURVE",
"57 540 LINE",
"57 540 OFFCURVE",
"47 361 OFFCURVE",
"26 174 CURVE SMOOTH",
"18 106 OFFCURVE",
"90 -21 OFFCURVE",
"158 -21 CURVE SMOOTH"
);
},
{
closed = 1;
nodes = (
"472 685 OFFCURVE",
"472 735 CURVE SMOOTH",
"472 784 OFFCURVE",
"435 818 OFFCURVE",
"375 818 CURVE SMOOTH",
"319 818 OFFCURVE",
"190 788 OFFCURVE",
"166 788 CURVE SMOOTH",
"150 788 OFFCURVE",
"129 807 OFFCURVE",
"129 821 CURVE SMOOTH",
"129 833 OFFCURVE",
"162 853 OFFCURVE",
"162 860 CURVE SMOOTH",
"162 866 OFFCURVE",
"142 867 OFFCURVE",
"131 867 CURVE SMOOTH",
"84 867 OFFCURVE",
"38 817 OFFCURVE",
"38 775 CURVE SMOOTH",
"38 712 OFFCURVE",
"102 677 OFFCURVE",
"175 677 CURVE SMOOTH",
"208 677 OFFCURVE",
"298 688 OFFCURVE",
"323 688 CURVE SMOOTH",
"351 688 OFFCURVE",
"356 673 OFFCURVE",
"356 665 CURVE SMOOTH",
"356 655 OFFCURVE",
"344 634 OFFCURVE",
"322 620 CURVE",
"419 620 LINE",
"448 650 OFFCURVE"
);
}
);
width = 565;
},
{
layerId = "9F2BC935-6AE7-4E60-84C9-D3B586669EA4";
width = 600;
}
);
leftKerningGroup = VowelA.bn;
note = Tta.bn;
rightKerningGroup = VowelA.bn;
unicode = 099F;
},
{
glyphname = Ttha.bn;
lastChange = "2020-07-15 14:37:54 +0000";
layers = (
{
background = {
paths = (
{
closed = 1;
nodes = (
"350.97 441.49 OFFCURVE",
"302 518 OFFCURVE",
"302 518 CURVE",
"205.41 516.88 LINE",
"205.41 516.88 OFFCURVE",
"255.82 471.76 OFFCURVE",
"255.82 438.8 CURVE SMOOTH",
"255.82 410 OFFCURVE",
"181 356.2 OFFCURVE",
"145.96 356.2 CURVE SMOOTH",
"120.96 356.2 OFFCURVE",
"99 358.42 OFFCURVE",
"76.72 358.42 CURVE SMOOTH",
"39.71 358.42 OFFCURVE",
"29.34 358.37 OFFCURVE",
"19.73 340.47 CURVE SMOOTH",
"8.75 320.03 OFFCURVE",
"0.86 304.6 OFFCURVE",
"-8.44 282.88 CURVE SMOOTH",
"-16.18 264.82 OFFCURVE",
"-17.43 253.83 OFFCURVE",
"3.78 242.65 CURVE SMOOTH",
"20.66 233.75 OFFCURVE",
"36.96 222.71 OFFCURVE",
"47.65 197.71 CURVE SMOOTH",
"67.57 151.1 OFFCURVE",
"157.36 -25.29 OFFCURVE",
"285.36 -25.29 CURVE SMOOTH",
"404.01 -25.29 OFFCURVE",
"537.42 112 OFFCURVE",
"537.42 232.61 CURVE SMOOTH",
"537.42 334.61 OFFCURVE",
"303.18 571.36 OFFCURVE",
"256.09 681.05 CURVE SMOOTH",
"239.93 718.69 OFFCURVE",
"237.6 760.05 OFFCURVE",
"247.01 773.39 CURVE SMOOTH",
"255.4 785.29 OFFCURVE",
"289.89 803.41 OFFCURVE",
"326.46 818.2 CURVE SMOOTH",
"341.07 824.11 OFFCURVE",
"344.56 826.63 OFFCURVE",
"345.4 832.25 CURVE SMOOTH",
"346.32 838.45 OFFCURVE",
"335.76 845.55 OFFCURVE",
"329.18 849.28 CURVE SMOOTH",
"316.22 856.61 OFFCURVE",
"288.77 865.02 OFFCURVE",
"272.31 867.47 CURVE SMOOTH",
"251.35 870.59 OFFCURVE",
"213.42 863.31 OFFCURVE",
"181.59 850.42 CURVE SMOOTH",
"146.59 836.25 OFFCURVE",
"112.32 812.63 OFFCURVE",
"108.49 786.91 CURVE SMOOTH",
"103.58 753.9 OFFCURVE",
"110 716.01 OFFCURVE",
"128.78 668.37 CURVE SMOOTH",
"177.42 545.01 OFFCURVE",
"400.61 292.37 OFFCURVE",
"400.61 234.37 CURVE SMOOTH",
"400.61 186.01 OFFCURVE",
"343.99 106.81 OFFCURVE",
"295.68 106.81 CURVE SMOOTH",
"226.68 106.81 OFFCURVE",
"172.37 242.16 OFFCURVE",
"172.37 242.16 CURVE",
"172.37 242.16 OFFCURVE",
"232.27 249.71 OFFCURVE",
"273.54 278.59 CURVE SMOOTH",
"307 302.01 OFFCURVE",
"350.97 349.01 OFFCURVE",
"350.97 399.17 CURVE SMOOTH"
);
},
{
closed = 1;
nodes = (
"0 630.01 LINE",
"-6 630.01 LINE SMOOTH",
"-18 630.01 OFFCURVE",
"-26 623.68 OFFCURVE",
"-30 611.01 CURVE SMOOTH",
"-44.86 565.01 LINE",
"-55 533.01 LINE SMOOTH",
"-60.33 518.34 OFFCURVE",
"-53.33 511.01 OFFCURVE",
"-34 511.01 CURVE SMOOTH",
"615.14 511.01 LINE",
"640.14 511.01 LINE SMOOTH",
"652.05 511.01 OFFCURVE",
"660.05 517.34 OFFCURVE",
"664.14 530.01 CURVE SMOOTH",
"679 575.01 LINE",
"689.14 608.01 LINE SMOOTH",
"694.38 622.68 OFFCURVE",
"687.33 630.01 OFFCURVE",
"668 630.01 CURVE SMOOTH"
);
}
);
};
hints = (
{
horizontal = 1;
place = "{-25.29, 132.09}";
type = Stem;
},
{
horizontal = 1;
place = "{511, 7}";
type = Stem;
},
{
place = "{400.62, 136.79}";
type = Stem;
},
{
horizontal = 1;
place = "{511, 119}";
type = Stem;
}
);
layerId = "555B79C6-6D98-46E7-9307-77C37975E414";
paths = (
{
closed = 1;
nodes = (
"351 441 OFFCURVE",
"302 518 OFFCURVE",
"302 518 CURVE",
"205.41 516.88 LINE",
"205.41 516.88 OFFCURVE",
"255.82 471.76 OFFCURVE",
"255.82 438.8 CURVE SMOOTH",
"255.82 410 OFFCURVE",
"181 356.2 OFFCURVE",
"145.96 356.2 CURVE SMOOTH",
"120.96 356.2 OFFCURVE",
"99 358.42 OFFCURVE",
"76.72 358.42 CURVE SMOOTH",
"39.71 358.42 OFFCURVE",
"29.34 358.37 OFFCURVE",
"19.73 340.47 CURVE SMOOTH",
"5 314 OFFCURVE",
"-13 277 OFFCURVE",
"-13 264 CURVE SMOOTH",
"-13 256 OFFCURVE",
"-9 250 OFFCURVE",
"4 243 CURVE SMOOTH",
"21 234 OFFCURVE",
"37 223 OFFCURVE",
"47.65 197.71 CURVE SMOOTH",
"67.57 151.1 OFFCURVE",
"157.36 -25.29 OFFCURVE",
"285.36 -25.29 CURVE SMOOTH",
"404.01 -25.29 OFFCURVE",
"537.42 112 OFFCURVE",
"537.42 232.61 CURVE SMOOTH",
"537.42 334.61 OFFCURVE",
"303.18 571.36 OFFCURVE",
"256.09 681.05 CURVE SMOOTH",
"246 705 OFFCURVE",
"241 729 OFFCURVE",
"241 748 CURVE SMOOTH",
"241 803 OFFCURVE",
"345 813 OFFCURVE",
"345.4 832.25 CURVE SMOOTH",
"346 849 OFFCURVE",
"290 868 OFFCURVE",
"256 868 CURVE SMOOTH",
"202 865 OFFCURVE",
"107 826 OFFCURVE",
"107 780 CURVE SMOOTH",
"107 752 OFFCURVE",
"110 716 OFFCURVE",
"129 668 CURVE SMOOTH",
"177 545 OFFCURVE",
"401 292 OFFCURVE",
"400.61 234.37 CURVE SMOOTH",
"400.61 186.01 OFFCURVE",
"343.99 106.81 OFFCURVE",
"295.68 106.81 CURVE SMOOTH",
"226.68 106.81 OFFCURVE",
"172.37 242.16 OFFCURVE",
"172.37 242.16 CURVE",
"221 242 OFFCURVE",
"351 300 OFFCURVE",
"350.97 399.17 CURVE SMOOTH"
);
},
{
closed = 1;
nodes = (
"0 630.01 LINE",
"-15 630 OFFCURVE",
"-25 628 OFFCURVE",
"-30 611.01 CURVE SMOOTH",
"-55 533.01 LINE SMOOTH",
"-60.33 518.34 OFFCURVE",
"-53.33 511.01 OFFCURVE",
"-34 511.01 CURVE SMOOTH",
"615.14 511.01 LINE",
"647 511 OFFCURVE",
"657 509 OFFCURVE",
"664.14 530.01 CURVE SMOOTH",
"689.14 608.01 LINE SMOOTH",
"694.38 622.68 OFFCURVE",
"687.33 630.01 OFFCURVE",
"668 630.01 CURVE SMOOTH"
);
}
);
width = 615;
},
{
layerId = "9F2BC935-6AE7-4E60-84C9-D3B586669EA4";
width = 600;
}
);
leftKerningGroup = VowelA.bn;
note = Ttha.bn;
rightKerningGroup = VowelA.bn;
unicode = 09A0;
},
{
glyphname = Dda.bn;
lastChange = "2020-07-15 14:37:54 +0000";
layers = (
{
background = {
paths = (
{
closed = 1;
nodes = (
"409.41 534.2 LINE",
"271.04 537.43 LINE",
"271.04 537.43 OFFCURVE",
"257.74 433.26 OFFCURVE",
"247.64 308.63 CURVE SMOOTH",
"247.64 298.16 OFFCURVE",
"248.31 293.85 OFFCURVE",
"254.31 283.14 CURVE SMOOTH",
"261.95 269.49 OFFCURVE",
"265.99 265.37 OFFCURVE",
"276.09 255.07 CURVE SMOOTH",
"284.69 246.3 OFFCURVE",
"297.35 233.82 OFFCURVE",
"306.39 233.82 CURVE SMOOTH",
"309.72 233.82 OFFCURVE",
"311.98 234.78 OFFCURVE",
"314.32 236.64 CURVE SMOOTH",
"324.34 244.59 OFFCURVE",
"316.78 270.16 OFFCURVE",
"329.62 276.7 CURVE SMOOTH",
"337.7 280.82 OFFCURVE",
"368.63 290.94 OFFCURVE",
"383.46 290.94 CURVE SMOOTH",
"403.2 290.94 OFFCURVE",
"420.51 230.35 OFFCURVE",
"420.51 193.27 CURVE SMOOTH",
"420.51 179.21 OFFCURVE",
"416.47 168.55 OFFCURVE",
"396.27 146.92 CURVE SMOOTH",
"370.58 119.41 OFFCURVE",
"312.12 94.76 OFFCURVE",
"279 94.76 CURVE SMOOTH",
"256.71 94.76 OFFCURVE",
"237.99 104.53 OFFCURVE",
"224.36 120.91 CURVE SMOOTH",
"205.84 143.17 OFFCURVE",
"198.65 157.92 OFFCURVE",
"189.57 184.01 CURVE SMOOTH",
"182.27 205 OFFCURVE",
"173.21 240.23 OFFCURVE",
"173.21 291.6 CURVE SMOOTH",
"173.21 307.5 OFFCURVE",
"174.16 330.35 OFFCURVE",
"175.28 344.12 CURVE SMOOTH",
"179.18 392.17 OFFCURVE",
"191.76 433.85 OFFCURVE",
"191.76 464.15 CURVE SMOOTH",
"191.76 470.74 OFFCURVE",
"191.47 478.64 OFFCURVE",
"178.16 478.64 CURVE SMOOTH",
"164.87 478.64 OFFCURVE",
"124.41 444.23 OFFCURVE",
"89.15 395.66 CURVE SMOOTH",
"56.77 351.05 OFFCURVE",
"31.35 294.84 OFFCURVE",
"31.35 235.57 CURVE SMOOTH",
"31.35 198.68 OFFCURVE",
"38.92 94.63 OFFCURVE",
"121.59 28.01 CURVE SMOOTH",
"172.86 -13.31 OFFCURVE",
"225.03 -25.04 OFFCURVE",
"272.75 -25.04 CURVE SMOOTH",
"350.95 -25.04 OFFCURVE",
"431.32 7.43 OFFCURVE",
"478.35 45.9 CURVE SMOOTH",
"508.22 70.34 OFFCURVE",
"540.56 104.39 OFFCURVE",
"556.86 141.77 CURVE SMOOTH",
"572.33 177.23 OFFCURVE",
"584.59 211.17 OFFCURVE",
"584.59 266.26 CURVE SMOOTH",
"584.59 323.6 OFFCURVE",
"541.92 393.63 OFFCURVE",
"510.95 415.11 CURVE SMOOTH",
"503.82 420.06 OFFCURVE",
"495.95 423.49 OFFCURVE",
"483.2 423.49 CURVE SMOOTH",
"443.12 423.49 OFFCURVE",
"394.09 395.15 OFFCURVE",
"394.09 395.15 CURVE"
);
},
{
closed = 1;
nodes = (
"0 630 LINE",
"-7 630 LINE SMOOTH",
"-19 630 OFFCURVE",
"-27 623.67 OFFCURVE",
"-31 611 CURVE SMOOTH",
"-45.86 565 LINE",
"-56 533 LINE SMOOTH",
"-61.33 518.33 OFFCURVE",
"-54.33 511 OFFCURVE",
"-35 511 CURVE SMOOTH",
"650.14 511 LINE",
"675.14 511 LINE SMOOTH",
"687.05 511 OFFCURVE",
"695.05 517.33 OFFCURVE",
"699.14 530 CURVE SMOOTH",
"714 575 LINE",
"724.14 608 LINE SMOOTH",
"729.38 622.67 OFFCURVE",
"722.33 630 OFFCURVE",
"703 630 CURVE SMOOTH"
);
}
);
};
hints = (
{
horizontal = 1;
place = "{-25.04, 119.8}";
type = Stem;
},
{
horizontal = 1;
place = "{511, 119}";
type = Stem;
},
{
place = "{31.36, 141.86}";
type = Stem;
},
{
place = "{420.52, 164.08}";
type = Stem;
}
);
layerId = "555B79C6-6D98-46E7-9307-77C37975E414";
paths = (
{
closed = 1;
nodes = (
"409.41 534.2 LINE",
"271.04 537.43 LINE",
"271.04 537.43 OFFCURVE",
"257.74 433.26 OFFCURVE",
"247.64 308.63 CURVE SMOOTH",
"248 283 OFFCURVE",
"288 234 OFFCURVE",
"306.39 233.82 CURVE SMOOTH",
"323 234 OFFCURVE",
"314 270 OFFCURVE",
"329.62 276.7 CURVE SMOOTH",
"337 280 OFFCURVE",
"368.63 290.94 OFFCURVE",
"383.46 290.94 CURVE SMOOTH",
"403.2 290.94 OFFCURVE",
"420.51 230.35 OFFCURVE",
"420.51 193.27 CURVE SMOOTH",
"421 143 OFFCURVE",
"329 95 OFFCURVE",
"279 94.76 CURVE SMOOTH",
"209 95 OFFCURVE",
"173 198 OFFCURVE",
"173.21 291.6 CURVE SMOOTH",
"173 374 OFFCURVE",
"192 419 OFFCURVE",
"191.76 464.15 CURVE SMOOTH",
"191.76 470.74 OFFCURVE",
"191 479 OFFCURVE",
"180 479 CURVE SMOOTH",
"147 479 OFFCURVE",
"31 355 OFFCURVE",
"31 222 CURVE SMOOTH",
"31 91 OFFCURVE",
"128 -25 OFFCURVE",
"272.75 -25.04 CURVE SMOOTH",
"439 -25 OFFCURVE",
"585 95 OFFCURVE",
"584.59 266.26 CURVE SMOOTH",
"585 321 OFFCURVE",
"536 423 OFFCURVE",
"483.2 423.49 CURVE SMOOTH",
"443.12 423.49 OFFCURVE",
"394.09 395.15 OFFCURVE",
"394.09 395.15 CURVE"
);
},
{
closed = 1;
nodes = (
"0.01 630 LINE",
"-13 630 OFFCURVE",
"-23 632 OFFCURVE",
"-30 611 CURVE SMOOTH",
"-55 533 LINE SMOOTH",
"-60 518 OFFCURVE",
"-53 511 OFFCURVE",
"-34 511 CURVE SMOOTH",
"650.15 511 LINE",
"682 511 OFFCURVE",
"692 509 OFFCURVE",
"699.15 530 CURVE SMOOTH",
"724.15 608 LINE SMOOTH",
"729.39 622.67 OFFCURVE",
"722.34 630 OFFCURVE",
"703.01 630 CURVE SMOOTH"
);
}
);
width = 650;
},
{
layerId = "9F2BC935-6AE7-4E60-84C9-D3B586669EA4";
width = 600;
}
);
leftKerningGroup = VowelA.bn;
note = Dda.bn;
rightKerningGroup = VowelA.bn;
unicode = 09A1;
},
{
glyphname = Ddha.bn;
lastChange = "2020-07-15 14:37:54 +0000";
layers = (
{
background = {
paths = (
{
closed = 1;
nodes = (
"0 630 LINE",
"-7 630 LINE SMOOTH",
"-19 630 OFFCURVE",
"-27 623.67 OFFCURVE",
"-31 611 CURVE SMOOTH",
"-45.86 565 LINE",
"-56 533 LINE SMOOTH",
"-61.33 518.33 OFFCURVE",
"-54.33 511 OFFCURVE",
"-35 511 CURVE SMOOTH",
"600.14 511 LINE",
"625.14 511 LINE SMOOTH",
"637.05 511 OFFCURVE",
"645.05 517.33 OFFCURVE",
"649.14 530 CURVE SMOOTH",
"664 575 LINE",
"674.14 608 LINE SMOOTH",
"679.38 622.67 OFFCURVE",
"672.33 630 OFFCURVE",
"653 630 CURVE SMOOTH"
);
},
{
closed = 1;
nodes = (
"534 232 OFFCURVE",
"539.03 278.63 OFFCURVE",
"539.03 310.71 CURVE SMOOTH",
"539.03 362.4 OFFCURVE",
"511.03 435.71 OFFCURVE",
"466.03 455.71 CURVE SMOOTH",
"458.07 459.25 OFFCURVE",
"443.88 462 OFFCURVE",
"431 462 CURVE SMOOTH",
"390.52 462 OFFCURVE",
"326.14 452.98 OFFCURVE",
"304.85 439.82 CURVE SMOOTH",
"272.01 419.51 OFFCURVE",
"267 347.77 OFFCURVE",
"267 321.8 CURVE SMOOTH",
"267 300.71 OFFCURVE",
"273.89 284.54 OFFCURVE",
"277.14 274.77 CURVE SMOOTH",
"282.14 259.77 OFFCURVE",
"287.17 250.77 OFFCURVE",
"295.14 250.77 CURVE SMOOTH",
"308.14 250.77 OFFCURVE",
"308.66 300.15 OFFCURVE",
"322 310 CURVE SMOOTH",
"331.54 317.05 OFFCURVE",
"362.96 336.42 OFFCURVE",
"384.96 336.42 CURVE SMOOTH",
"404.96 336.42 OFFCURVE",
"416.48 295.25 OFFCURVE",
"416.48 270.9 CURVE SMOOTH",
"416.48 257.55 OFFCURVE",
"415 244 OFFCURVE",
"392 225 CURVE SMOOTH",
"350.64 190.83 OFFCURVE",
"242 132 OFFCURVE",
"184 123 CURVE",
"184 123 OFFCURVE",
"187.04 149.97 OFFCURVE",
"188.88 170 CURVE SMOOTH",
"208 377 OFFCURVE",
"220 541 OFFCURVE",
"220 541 CURVE",
"82.44 539.86 LINE",
"82.44 539.86 OFFCURVE",
"72 361 OFFCURVE",
"51 174 CURVE SMOOTH",
"45.74 127.2 OFFCURVE",
"72.85 76.23 OFFCURVE",
"91 48 CURVE SMOOTH",
"109 20 OFFCURVE",
"142 -21 OFFCURVE",
"183 -21 CURVE SMOOTH",
"213.27 -21 OFFCURVE",
"300.8 7.3 OFFCURVE",
"368 51.69 CURVE SMOOTH",
"426 90 OFFCURVE",
"475.9 126.57 OFFCURVE",
"507 183 CURVE SMOOTH"
);
}
);
};
hints = (
{
horizontal = 1;
place = "{336.42, 125.58}";
type = Stem;
},
{
horizontal = 1;
place = "{511, 119}";
type = Stem;
},
{
place = "{416.48, 122.55}";
type = Stem;
}
);
layerId = "555B79C6-6D98-46E7-9307-77C37975E414";
paths = (
{
closed = 1;
nodes = (
"0 630 LINE",
"-15 630 OFFCURVE",
"-26 628 OFFCURVE",
"-31 611 CURVE SMOOTH",
"-56 533 LINE SMOOTH",
"-61.33 518.33 OFFCURVE",
"-54.33 511 OFFCURVE",
"-35 511 CURVE SMOOTH",
"600 511 LINE",
"632 511 OFFCURVE",
"642 509 OFFCURVE",
"649 530 CURVE SMOOTH",
"674 608 LINE SMOOTH",
"679 623 OFFCURVE",
"672 630 OFFCURVE",
"653 630 CURVE SMOOTH"
);
},
{
closed = 1;
nodes = (
"300 -21 OFFCURVE",
"539 134 OFFCURVE",
"539 281 CURVE SMOOTH",
"539 366 OFFCURVE",
"511 462 OFFCURVE",
"431 462 CURVE SMOOTH",
"391 462 OFFCURVE",
"326 453 OFFCURVE",
"305 440 CURVE SMOOTH",
"272 420 OFFCURVE",
"267 348 OFFCURVE",
"267 322 CURVE SMOOTH",
"267 302 OFFCURVE",
"280 251 OFFCURVE",
"295 251 CURVE SMOOTH",
"308 251 OFFCURVE",
"309 301 OFFCURVE",
"322 310 CURVE SMOOTH",
"332 317 OFFCURVE",
"363 336 OFFCURVE",
"385 336 CURVE SMOOTH",
"405 336 OFFCURVE",
"416 295 OFFCURVE",
"416 266 CURVE SMOOTH",
"416 212 OFFCURVE",
"251 138 OFFCURVE",
"184 123 CURVE",
"184 123 OFFCURVE",
"187 150 OFFCURVE",
"189 170 CURVE SMOOTH",
"210 377 OFFCURVE",
"220 541 OFFCURVE",
"220 541 CURVE",
"82 540 LINE",
"82 540 OFFCURVE",
"73 361 OFFCURVE",
"51 174 CURVE SMOOTH",
"43 106 OFFCURVE",
"115 -21 OFFCURVE",
"183 -21 CURVE SMOOTH"
);
}
);
width = 600;
},
{
layerId = "9F2BC935-6AE7-4E60-84C9-D3B586669EA4";
width = 600;
}
);
leftKerningGroup = VowelA.bn;
note = Ddha.bn;
rightKerningGroup = VowelA.bn;
unicode = 09A2;
},
{
glyphname = Nna.bn;
lastChange = "2020-07-15 14:37:54 +0000";
layers = (
{
background = {
paths = (
{
closed = 1;
nodes = (
"497 505 LINE",
"484.35 533.75 OFFCURVE",
"395.25 633.55 OFFCURVE",
"286.1 633.55 CURVE SMOOTH",
"214.3 633.55 OFFCURVE",
"176.85 616.3 OFFCURVE",
"141.2 589.85 CURVE SMOOTH",
"101.24 560.2 OFFCURVE",
"82.54 536.36 OFFCURVE",
"59.55 493.25 CURVE SMOOTH",
"41.15 458.75 OFFCURVE",
"35.4 419.65 OFFCURVE",
"35.4 392.05 CURVE SMOOTH",
"35.4 335.7 OFFCURVE",
"61.89 288.5 OFFCURVE",
"83.7 263.25 CURVE SMOOTH",
"123.12 217.61 OFFCURVE",
"189.5 177 OFFCURVE",
"224 177 CURVE SMOOTH",
"257.35 177 OFFCURVE",
"316.9 254.98 OFFCURVE",
"330.95 283.95 CURVE SMOOTH",
"341.53 305.78 OFFCURVE",
"345.7 345 OFFCURVE",
"345.7 349.65 CURVE SMOOTH",
"345.7 354.3 OFFCURVE",
"344.18 358.2 OFFCURVE",
"337.67 358.2 CURVE SMOOTH",
"326.95 358.2 OFFCURVE",
"298.52 311 OFFCURVE",
"285.44 311 CURVE SMOOTH",
"249.47 311 OFFCURVE",
"168 379.2 OFFCURVE",
"168 421 CURVE SMOOTH",
"168 450.1 OFFCURVE",
"175.36 466.3 OFFCURVE",
"191 485 CURVE SMOOTH",
"209.73 507.41 OFFCURVE",
"241.07 518.4 OFFCURVE",
"259.38 518.4 CURVE SMOOTH",
"292 518.4 OFFCURVE",
"317 499 OFFCURVE",
"344 472 CURVE SMOOTH",
"358.99 457.01 OFFCURVE",
"390.03 417.64 OFFCURVE",
"407 389 CURVE SMOOTH",
"439 335 OFFCURVE",
"480 241 OFFCURVE",
"480 241 CURVE"
);
},
{
closed = 1;
nodes = (
"425 389 OFFCURVE",
"428.12 366.71 OFFCURVE",
"416 197 CURVE SMOOTH",
"411 127 OFFCURVE",
"407 98 OFFCURVE",
"401 53 CURVE SMOOTH",
"396.18 16.82 OFFCURVE",
"383.71 -31 OFFCURVE",
"420 -31 CURVE SMOOTH",
"464.82 -31 OFFCURVE",
"491 12 OFFCURVE",
"509 40 CURVE SMOOTH",
"527.15 68.23 OFFCURVE",
"549 117 OFFCURVE",
"552 164 CURVE SMOOTH",
"563.93 350.94 OFFCURVE",
"582 511 OFFCURVE",
"582 511 CURVE",
"630 511 LINE",
"655 511 LINE SMOOTH",
"666.91 511 OFFCURVE",
"674.91 517.33 OFFCURVE",
"679 530 CURVE SMOOTH",
"693.86 576 LINE",
"704 608 LINE SMOOTH",
"709.24 622.67 OFFCURVE",
"702 630 OFFCURVE",
"682.86 630 CURVE SMOOTH",
"631 630 LINE",
"577 630 LINE SMOOTH",
"568.26 630 OFFCURVE",
"550.29 628.98 OFFCURVE",
"541 626.94 CURVE SMOOTH",
"523 623 OFFCURVE",
"511 618 OFFCURVE",
"496 608 CURVE SMOOTH",
"488.33 602.89 OFFCURVE",
"476 592 OFFCURVE",
"467 579 CURVE SMOOTH",
"452.3 557.77 OFFCURVE",
"446.53 543.5 OFFCURVE",
"442 511 CURVE SMOOTH"
);
}
);
};
hints = (
{
horizontal = 1;
place = "{177, 134}";
type = Stem;
},
{
horizontal = 1;
place = "{518.4, 115.15}";
type = Stem;
},
{
place = "{35.4, 132.6}";
type = Stem;
},
{
horizontal = 1;
place = "{511, 119}";
type = Stem;
}
);
layerId = "555B79C6-6D98-46E7-9307-77C37975E414";
paths = (
{
closed = 1;
nodes = (
"497 505 LINE",
"484.35 533.75 OFFCURVE",
"395.25 633.55 OFFCURVE",
"286.1 633.55 CURVE SMOOTH",
"146 634 OFFCURVE",
"36 526 OFFCURVE",
"35.4 392.05 CURVE SMOOTH",
"35 278 OFFCURVE",
"153 177 OFFCURVE",
"224 177 CURVE SMOOTH",
"257.35 177 OFFCURVE",
"316.9 254.98 OFFCURVE",
"330.95 283.95 CURVE SMOOTH",
"341.53 305.78 OFFCURVE",
"345.7 345 OFFCURVE",
"345.7 349.65 CURVE SMOOTH",
"345.7 354.3 OFFCURVE",
"344.18 358.2 OFFCURVE",
"337.67 358.2 CURVE SMOOTH",
"326.95 358.2 OFFCURVE",
"298.52 311 OFFCURVE",
"283 311 CURVE SMOOTH",
"250 311 OFFCURVE",
"168 379 OFFCURVE",
"168 424 CURVE SMOOTH",
"168 475 OFFCURVE",
"211 519 OFFCURVE",
"259.38 518.4 CURVE SMOOTH",
"344 518 OFFCURVE",
"424 360 OFFCURVE",
"480 241 CURVE"
);
},
{
closed = 1;
nodes = (
"416 316 OFFCURVE",
"429 254 OFFCURVE",
"401 53 CURVE SMOOTH",
"396 17 OFFCURVE",
"384 -31 OFFCURVE",
"420 -31 CURVE SMOOTH",
"482 -31 OFFCURVE",
"547 82 OFFCURVE",
"552 164 CURVE SMOOTH",
"563 351 OFFCURVE",
"582 511 OFFCURVE",
"582 511 CURVE",
"630 511 LINE",
"662 511 OFFCURVE",
"672 509 OFFCURVE",
"679 530 CURVE SMOOTH",
"704 608 LINE SMOOTH",
"709 623 OFFCURVE",
"702 630 OFFCURVE",
"683 630 CURVE SMOOTH",
"577 630 LINE SMOOTH",
"500 630 OFFCURVE",
"452 586 OFFCURVE",
"442 511 CURVE SMOOTH"
);
}
);
width = 630;
},
{
layerId = "9F2BC935-6AE7-4E60-84C9-D3B586669EA4";
width = 600;
}
);
leftKerningGroup = Nna.bn;
note = Nna.bn;
rightKerningGroup = VowelA.bn;
unicode = 09A3;
},
{
glyphname = Ta.bn;
lastChange = "2020-07-15 14:37:54 +0000";
layers = (
{
background = {
paths = (
{
closed = 1;
nodes = (
"18.71 212.03 OFFCURVE",
"30.22 119.42 OFFCURVE",
"103.79 51.15 CURVE SMOOTH",
"148.05 10.08 OFFCURVE",
"196.48 -4.51 OFFCURVE",
"250.65 -4.51 CURVE SMOOTH",
"315.19 -4.51 OFFCURVE",
"384.03 26.49 OFFCURVE",
"428.37 62.75 CURVE SMOOTH",
"456.53 85.79 OFFCURVE",
"490.08 125.3 OFFCURVE",
"505.45 160.53 CURVE SMOOTH",
"518.97 191.51 OFFCURVE",
"523.82 208.63 OFFCURVE",
"527.1 236.98 CURVE SMOOTH",
"529.72 259.58 OFFCURVE",
"528.43 300.51 OFFCURVE",
"524.04 322.84 CURVE SMOOTH",
"511.55 386.31 OFFCURVE",
"476.37 457.51 OFFCURVE",
"432.07 484.4 CURVE SMOOTH",
"421.92 490.56 OFFCURVE",
"408.69 493.5 OFFCURVE",
"396.66 493.5 CURVE SMOOTH",
"365.19 493.5 OFFCURVE",
"302.24 465.48 OFFCURVE",
"269.1 439.67 CURVE SMOOTH",
"249.25 424.21 OFFCURVE",
"236.12 409.48 OFFCURVE",
"223.36 387.22 CURVE SMOOTH",
"219.54 380.55 OFFCURVE",
"215.13 369.02 OFFCURVE",
"215.13 364.36 CURVE SMOOTH",
"215.13 360.62 OFFCURVE",
"215.89 354.12 OFFCURVE",
"224.6 354.12 CURVE SMOOTH",
"237.16 354.12 OFFCURVE",
"290.97 377.3 OFFCURVE",
"304.96 377.3 CURVE SMOOTH",
"331.28 377.3 OFFCURVE",
"396.42 232.4 OFFCURVE",
"366.42 180.07 CURVE SMOOTH",
"348.61 149 OFFCURVE",
"299.61 108.33 OFFCURVE",
"258.19 108.33 CURVE SMOOTH",
"237.18 108.33 OFFCURVE",
"213.54 123.28 OFFCURVE",
"200.69 138.72 CURVE SMOOTH",
"183 160 OFFCURVE",
"176 174 OFFCURVE",
"168 198 CURVE SMOOTH",
"161 218 OFFCURVE",
"152 251 OFFCURVE",
"152.47 299.61 CURVE SMOOTH",
"152 315 OFFCURVE",
"153 336 OFFCURVE",
"154 349 CURVE SMOOTH",
"158 394 OFFCURVE",
"170 434 OFFCURVE",
"169.96 462.26 CURVE SMOOTH",
"169.96 468.47 OFFCURVE",
"169.68 475.92 OFFCURVE",
"157.14 475.92 CURVE SMOOTH",
"145 476 OFFCURVE",
"106 443 OFFCURVE",
"73 398 CURVE SMOOTH",
"43 356 OFFCURVE",
"19 303 OFFCURVE",
"18.73 246.8 CURVE SMOOTH"
);
}
);
};
hints = (
{
horizontal = 1;
place = "{-4.51, 112.84}";
type = Stem;
},
{
horizontal = 1;
place = "{377.3, 116.2}";
type = Stem;
},
{
horizontal = 1;
place = "{511, 119}";
type = Stem;
},
{
place = "{18.71, 133.75}";
type = Stem;
}
);
layerId = "555B79C6-6D98-46E7-9307-77C37975E414";
paths = (
{
closed = 1;
nodes = (
"18 118 OFFCURVE",
"112 -5 OFFCURVE",
"250.65 -4.51 CURVE SMOOTH",
"391 -5 OFFCURVE",
"529 118 OFFCURVE",
"529 267 CURVE SMOOTH",
"528 368 OFFCURVE",
"471 494 OFFCURVE",
"396.66 493.5 CURVE SMOOTH",
"365.19 493.5 OFFCURVE",
"302.24 465.48 OFFCURVE",
"269.1 439.67 CURVE SMOOTH",
"246 422 OFFCURVE",
"215 384 OFFCURVE",
"215.13 364.36 CURVE SMOOTH",
"215.13 360.62 OFFCURVE",
"215.89 354.12 OFFCURVE",
"224.6 354.12 CURVE SMOOTH",
"237.16 354.12 OFFCURVE",
"291 377 OFFCURVE",
"305 377 CURVE SMOOTH",
"326 377 OFFCURVE",
"373 281 OFFCURVE",
"374 217 CURVE SMOOTH",
"374 163 OFFCURVE",
"309 108 OFFCURVE",
"258.19 108.33 CURVE SMOOTH",
"191 108 OFFCURVE",
"152 212 OFFCURVE",
"152.47 299.61 CURVE SMOOTH",
"150 370 OFFCURVE",
"170 415 OFFCURVE",
"170 453 CURVE SMOOTH",
"169.96 468.47 OFFCURVE",
"168 476 OFFCURVE",
"157.14 475.92 CURVE SMOOTH",
"131 476 OFFCURVE",
"19 361 OFFCURVE",
"18.73 246.8 CURVE SMOOTH"
);
},
{
closed = 1;
nodes = (
"0.02 630 LINE",
"-15 630 OFFCURVE",
"-25 628 OFFCURVE",
"-29.98 611 CURVE SMOOTH",
"-54.98 533 LINE SMOOTH",
"-60.31 518.33 OFFCURVE",
"-53.31 511 OFFCURVE",
"-33.98 511 CURVE SMOOTH",
"600.02 511 LINE",
"632 511 OFFCURVE",
"643 509 OFFCURVE",
"649.02 530 CURVE SMOOTH",
"674.02 608 LINE SMOOTH",
"679.26 622.67 OFFCURVE",
"672.21 630 OFFCURVE",
"652.88 630 CURVE SMOOTH"
);
}
);
width = 600;
},
{
layerId = "9F2BC935-6AE7-4E60-84C9-D3B586669EA4";
width = 600;
}
);
leftKerningGroup = VowelA.bn;
note = Ta.bn;
rightKerningGroup = VowelA.bn;
unicode = 09A4;
},
{
glyphname = Tha.bn;
lastChange = "2020-07-15 14:37:54 +0000";
layers = (
{
background = {
paths = (
{
closed = 1;
nodes = (
"270.84 637.41 OFFCURVE",
"259 641.86 OFFCURVE",
"238 641.86 CURVE SMOOTH",
"204.25 641.86 OFFCURVE",
"149 604 OFFCURVE",
"120.94 575.05 CURVE SMOOTH",
"105.7 559.33 OFFCURVE",
"93.28 534.27 OFFCURVE",
"89 522.99 CURVE SMOOTH",
"86.61 516.7 OFFCURVE",
"83.92 509.31 OFFCURVE",
"83.92 502.76 CURVE SMOOTH",
"83.92 494.75 OFFCURVE",
"88.31 489.99 OFFCURVE",
"96 489.99 CURVE SMOOTH",
"111.64 489.99 OFFCURVE",
"166.38 520.45 OFFCURVE",
"183.99 520.45 CURVE SMOOTH",
"204.98 520.45 OFFCURVE",
"261.84 478.74 OFFCURVE",
"261.84 451.78 CURVE SMOOTH",
"261.84 422.66 OFFCURVE",
"217 377.31 OFFCURVE",
"177 377.31 CURVE SMOOTH",
"152 377.31 OFFCURVE",
"138 382.31 OFFCURVE",
"98 382.31 CURVE SMOOTH",
"54.99 382.31 OFFCURVE",
"36 378.31 OFFCURVE",
"25 349.31 CURVE SMOOTH",
"16.6 327.15 OFFCURVE",
"13 316.31 OFFCURVE",
"6 293.31 CURVE SMOOTH",
"0.28 274.51 OFFCURVE",
"1.38 263.25 OFFCURVE",
"24 255.31 CURVE SMOOTH",
"42 248.99 OFFCURVE",
"59 239.99 OFFCURVE",
"74 217.31 CURVE SMOOTH",
"102.55 174.14 OFFCURVE",
"145 118.99 OFFCURVE",
"194 79.99 CURVE SMOOTH",
"285.42 7.22 OFFCURVE",
"394 -21.01 OFFCURVE",
"434 -21.01 CURVE SMOOTH",
"461 -21.01 OFFCURVE",
"515 21.99 OFFCURVE",
"533 49.99 CURVE SMOOTH",
"551.15 78.22 OFFCURVE",
"573 126.99 OFFCURVE",
"576 173.99 CURVE SMOOTH",
"585.84 328.13 OFFCURVE",
"607 510.99 OFFCURVE",
"607 510.99 CURVE",
"655 510.99 LINE",
"680 510.99 LINE SMOOTH",
"691.91 510.99 OFFCURVE",
"699.91 517.32 OFFCURVE",
"704 529.99 CURVE SMOOTH",
"718.86 575.99 LINE",
"729 607.99 LINE SMOOTH",
"734.24 622.66 OFFCURVE",
"727 629.99 OFFCURVE",
"707.86 629.99 CURVE SMOOTH",
"656 629.99 LINE",
"602 629.99 LINE SMOOTH",
"593.26 629.99 OFFCURVE",
"575.29 628.97 OFFCURVE",
"566 626.93 CURVE SMOOTH",
"548 622.99 OFFCURVE",
"536 617.99 OFFCURVE",
"521 607.99 CURVE SMOOTH",
"513.33 602.88 OFFCURVE",
"501 591.99 OFFCURVE",
"492 578.99 CURVE SMOOTH",
"477.3 557.76 OFFCURVE",
"470.82 539.02 OFFCURVE",
"467 510.99 CURVE",
"467 510.99 OFFCURVE",
"445 339.99 OFFCURVE",
"438.12 169.99 CURVE SMOOTH",
"437.31 149.9 OFFCURVE",
"437 111.99 OFFCURVE",
"437 111.99 CURVE",
"401 111.99 OFFCURVE",
"329.14 145.31 OFFCURVE",
"291 176.99 CURVE SMOOTH",
"232 225.99 OFFCURVE",
"206 269.99 OFFCURVE",
"206 269.99 CURVE",
"230.72 270.01 OFFCURVE",
"308.05 290.31 OFFCURVE",
"362 355.99 CURVE SMOOTH",
"385 383.99 OFFCURVE",
"398.37 430.72 OFFCURVE",
"398.37 462.72 CURVE SMOOTH",
"398.37 499.73 OFFCURVE",
"385.85 532.17 OFFCURVE",
"365 562.99 CURVE SMOOTH",
"342 596.99 OFFCURVE",
"309.78 620.94 OFFCURVE",
"286 630.99 CURVE SMOOTH"
);
}
);
};
hints = (
{
horizontal = 1;
place = "{-21, 133}";
type = Stem;
},
{
horizontal = 1;
place = "{490, 21}";
target = up;
type = BottomGhost;
},
{
horizontal = 1;
place = "{520.46, 121.4}";
type = Stem;
},
{
place = "{261.84, 136.53}";
type = Stem;
},
{
horizontal = 1;
place = "{511, 119}";
type = Stem;
}
);
layerId = "555B79C6-6D98-46E7-9307-77C37975E414";
paths = (
{
closed = 1;
nodes = (
"318 642 OFFCURVE",
"238 641.86 CURVE SMOOTH",
"186 642 OFFCURVE",
"84 559 OFFCURVE",
"83.92 502.76 CURVE SMOOTH",
"83.92 494.75 OFFCURVE",
"88.31 489.99 OFFCURVE",
"96 489.99 CURVE SMOOTH",
"111.64 489.99 OFFCURVE",
"166.38 520.45 OFFCURVE",
"183.99 520.45 CURVE SMOOTH",
"204.98 520.45 OFFCURVE",
"261.84 478.74 OFFCURVE",
"261.84 451.78 CURVE SMOOTH",
"261.84 422.66 OFFCURVE",
"217 377.31 OFFCURVE",
"177 377.31 CURVE SMOOTH",
"152 377.31 OFFCURVE",
"138 382.31 OFFCURVE",
"98 382.31 CURVE SMOOTH",
"54.99 382.31 OFFCURVE",
"36 378.31 OFFCURVE",
"25 349.31 CURVE SMOOTH",
"17 329 OFFCURVE",
"3 289 OFFCURVE",
"3 278 CURVE SMOOTH",
"3 267 OFFCURVE",
"9 260 OFFCURVE",
"24 255 CURVE SMOOTH",
"42 249 OFFCURVE",
"61 240 OFFCURVE",
"74 217.31 CURVE SMOOTH",
"146 95 OFFCURVE",
"309 -21 OFFCURVE",
"434 -21.01 CURVE SMOOTH",
"500 -21 OFFCURVE",
"571 91 OFFCURVE",
"576 173.99 CURVE SMOOTH",
"585.84 328.13 OFFCURVE",
"607 510.99 OFFCURVE",
"607 510.99 CURVE",
"655 510.99 LINE",
"687 511 OFFCURVE",
"697 509 OFFCURVE",
"704 529.99 CURVE SMOOTH",
"729 607.99 LINE SMOOTH",
"734.24 622.66 OFFCURVE",
"727 629.99 OFFCURVE",
"707.86 629.99 CURVE SMOOTH",
"602 629.99 LINE SMOOTH",
"525 630 OFFCURVE",
"478 587 OFFCURVE",
"467 510.99 CURVE",
"467 510.99 OFFCURVE",
"445 339.99 OFFCURVE",
"438.12 169.99 CURVE SMOOTH",
"437.31 149.9 OFFCURVE",
"437 111.99 OFFCURVE",
"437 111.99 CURVE",
"373 112 OFFCURVE",
"258 187 OFFCURVE",
"206 269.99 CURVE",
"283 270 OFFCURVE",
"398 350 OFFCURVE",
"398.37 462.72 CURVE SMOOTH",
"399 549 OFFCURVE"
);
}
);
width = 655;
},
{
layerId = "9F2BC935-6AE7-4E60-84C9-D3B586669EA4";
width = 600;
}
);
leftKerningGroup = Tha.bn;
note = Tha.bn;
rightKerningGroup = VowelA.bn;
unicode = 09A5;
},
{
glyphname = Da.bn;
lastChange = "2020-07-15 14:37:54 +0000";
layers = (
{
background = {
paths = (
{
closed = 1;
nodes = (
"494 368 OFFCURVE",
"464 463 OFFCURVE",
"438 463 CURVE SMOOTH",
"306 463 OFFCURVE",
"149 360 OFFCURVE",
"149 360 CURVE",
"115 160 LINE",
"185.11 227.8 OFFCURVE",
"347 321 OFFCURVE",
"347 321 CURVE",
"347 321 OFFCURVE",
"274.82 219.72 OFFCURVE",
"274.82 142.72 CURVE SMOOTH",
"275 79 OFFCURVE",
"298 42 OFFCURVE",
"318 16 CURVE SMOOTH",
"328 3 OFFCURVE",
"347 -13 OFFCURVE",
"366 -21 CURVE SMOOTH",
"397 -34 OFFCURVE",
"457 -18 OFFCURVE",
"494 -2 CURVE SMOOTH",
"514 7 OFFCURVE",
"529 22 OFFCURVE",
"536.87 30.63 CURVE SMOOTH",
"541.45 35.57 OFFCURVE",
"550 45 OFFCURVE",
"552 51 CURVE SMOOTH",
"555 59 OFFCURVE",
"553 64 OFFCURVE",
"546 67 CURVE SMOOTH",
"531 73 OFFCURVE",
"472.09 61.98 OFFCURVE",
"455.76 68.59 CURVE SMOOTH",
"436.3 76.46 OFFCURVE",
"415.33 106 OFFCURVE",
"415.33 161.43 CURVE SMOOTH",
"415.33 223 OFFCURVE",
"494.01 368 OFFCURVE",
"494.01 368 CURVE"
);
},
{
closed = 1;
nodes = (
"47.05 518 LINE",
"47.05 518 OFFCURVE",
"31.01 389 OFFCURVE",
"16.01 302 CURVE SMOOTH",
"10 267 OFFCURVE",
"24 233 OFFCURVE",
"36 210 CURVE SMOOTH",
"53 179 OFFCURVE",
"76 142 OFFCURVE",
"96.85 142.16 CURVE SMOOTH",
"127 142.16 OFFCURVE",
"126.98 192.23 OFFCURVE",
"134.65 228 CURVE SMOOTH",
"143 267 OFFCURVE",
"146 296 OFFCURVE",
"153 344 CURVE SMOOTH",
"167 442 OFFCURVE",
"179 518 OFFCURVE",
"178.61 518.14 CURVE"
);
},
{
closed = 1;
nodes = (
"-0.12 630 LINE",
"-7 630 LINE SMOOTH",
"-19 630 OFFCURVE",
"-27 624 OFFCURVE",
"-31.12 611 CURVE SMOOTH",
"-46 565 LINE",
"-56.12 533 LINE SMOOTH",
"-61.45 518.33 OFFCURVE",
"-54.45 511 OFFCURVE",
"-35.12 511 CURVE SMOOTH",
"570.02 511 LINE",
"595 511 LINE SMOOTH",
"607 511 OFFCURVE",
"615 517 OFFCURVE",
"619.02 530 CURVE SMOOTH",
"634 575 LINE",
"644.02 608 LINE SMOOTH",
"649.26 622.67 OFFCURVE",
"642.21 630 OFFCURVE",
"622.88 630 CURVE SMOOTH"
);
}
);
};
hints = (
{
horizontal = 1;
place = "{511, 119}";
type = Stem;
},
{
place = "{274.82, 140.5}";
type = Stem;
}
);
layerId = "555B79C6-6D98-46E7-9307-77C37975E414";
paths = (
{
closed = 1;
nodes = (
"494 368 OFFCURVE",
"464 463 OFFCURVE",
"438 463 CURVE SMOOTH",
"306 463 OFFCURVE",
"149 360 OFFCURVE",
"149 360 CURVE",
"115 160 LINE",
"185.11 227.8 OFFCURVE",
"347 321 OFFCURVE",
"347 321 CURVE",
"348 321 OFFCURVE",
"274.82 219.72 OFFCURVE",
"274.82 142.72 CURVE SMOOTH",
"275 64 OFFCURVE",
"324 -26 OFFCURVE",
"395 -26 CURVE SMOOTH",
"472 -26 OFFCURVE",
"553 30 OFFCURVE",
"553 57 CURVE SMOOTH",
"553 65 OFFCURVE",
"548 69 OFFCURVE",
"532 69 CURVE SMOOTH",
"515 69 OFFCURVE",
"491 67 OFFCURVE",
"473 67 CURVE SMOOTH",
"433 67 OFFCURVE",
"415 111 OFFCURVE",
"415.33 161.43 CURVE SMOOTH",
"415.33 223 OFFCURVE",
"494.01 368 OFFCURVE",
"494.01 368 CURVE"
);
},
{
closed = 1;
nodes = (
"47.05 518 LINE",
"48 521 OFFCURVE",
"32 389 OFFCURVE",
"16.01 302 CURVE SMOOTH",
"5 244 OFFCURVE",
"66 142 OFFCURVE",
"96.85 142.16 CURVE SMOOTH",
"127 142 OFFCURVE",
"126.98 192.23 OFFCURVE",
"134.65 228 CURVE SMOOTH",
"139 249 OFFCURVE",
"179 518 OFFCURVE",
"178.61 518.14 CURVE"
);
},
{
closed = 1;
nodes = (
"-0.12 630 LINE",
"-16 630 OFFCURVE",
"-26 628 OFFCURVE",
"-31.12 611 CURVE SMOOTH",
"-56.12 533 LINE SMOOTH",
"-61.45 518.33 OFFCURVE",
"-54.45 511 OFFCURVE",
"-35.12 511 CURVE SMOOTH",
"570.02 511 LINE",
"602 511 OFFCURVE",
"613 509 OFFCURVE",
"619.02 530 CURVE SMOOTH",
"644.02 608 LINE SMOOTH",
"649.26 622.67 OFFCURVE",
"642.21 630 OFFCURVE",
"622.88 630 CURVE SMOOTH"
);
}
);
width = 570;
},
{
layerId = "9F2BC935-6AE7-4E60-84C9-D3B586669EA4";
width = 600;
}
);
leftKerningGroup = VowelA.bn;
note = Da.bn;
rightKerningGroup = VowelA.bn;
unicode = 09A6;
},
{
glyphname = Dha.bn;
lastChange = "2020-07-15 14:37:54 +0000";
layers = (
{
background = {
paths = (
{
closed = 1;
nodes = (
"292 385 LINE",
"292 385 OFFCURVE",
"269.08 403.99 OFFCURVE",
"250.31 425.72 CURVE SMOOTH",
"239.96 437.7 OFFCURVE",
"224.44 457.72 OFFCURVE",
"224.44 478.09 CURVE SMOOTH",
"224.44 491.01 OFFCURVE",
"227 501 OFFCURVE",
"236 513 CURVE SMOOTH",
"241.53 520.38 OFFCURVE",
"249.04 527.67 OFFCURVE",
"254.43 532.21 CURVE SMOOTH",
"259.82 536.75 OFFCURVE",
"266.3 541.31 OFFCURVE",
"274 541.51 CURVE SMOOTH",
"281.73 541.71 OFFCURVE",
"287.61 538.03 OFFCURVE",
"290.63 536.43 CURVE SMOOTH",
"308.47 526.98 OFFCURVE",
"323.88 515.55 OFFCURVE",
"330.47 515.72 CURVE SMOOTH",
"336.03 515.86 OFFCURVE",
"338.08 519.22 OFFCURVE",
"337.94 524.71 CURVE SMOOTH",
"337.83 529.11 OFFCURVE",
"336.81 532.17 OFFCURVE",
"335.3 536.75 CURVE SMOOTH",
"328.99 555.84 OFFCURVE",
"319.48 576.12 OFFCURVE",
"308.81 588.89 CURVE SMOOTH",
"295.24 605.14 OFFCURVE",
"276.83 620.6 OFFCURVE",
"243.8 635.66 CURVE SMOOTH",
"229.77 642.06 OFFCURVE",
"214.66 644.53 OFFCURVE",
"202.25 644.21 CURVE SMOOTH",
"188.81 643.87 OFFCURVE",
"174.88 638.58 OFFCURVE",
"163.79 632.42 CURVE SMOOTH",
"149.46 624.46 OFFCURVE",
"129.36 605.27 OFFCURVE",
"114.21 577.4 CURVE SMOOTH",
"98.74 548.93 OFFCURVE",
"92.69 520.8 OFFCURVE",
"92.69 483.04 CURVE SMOOTH",
"92.69 413.01 OFFCURVE",
"210 342.01 OFFCURVE",
"210 342.01 CURVE"
);
},
{
closed = 1;
nodes = (
"600.14 511.01 LINE",
"625.14 511.01 LINE SMOOTH",
"637.05 511.01 OFFCURVE",
"645.05 517.34 OFFCURVE",
"649.14 530.01 CURVE SMOOTH",
"664 576.01 LINE",
"674.14 608.01 LINE SMOOTH",
"679.38 622.68 OFFCURVE",
"672.14 630.01 OFFCURVE",
"653 630.01 CURVE SMOOTH",
"601.14 630.01 LINE",
"546.14 630.01 LINE SMOOTH",
"537.4 630.01 OFFCURVE",
"519.43 628.99 OFFCURVE",
"510.14 626.95 CURVE SMOOTH",
"492.14 623.01 OFFCURVE",
"480.14 618.01 OFFCURVE",
"465.14 608.01 CURVE SMOOTH",
"457.47 602.9 OFFCURVE",
"445.14 592.01 OFFCURVE",
"436.14 579.01 CURVE SMOOTH",
"421.44 557.78 OFFCURVE",
"415.67 543.51 OFFCURVE",
"411.14 511.01 CURVE",
"411.14 511.01 OFFCURVE",
"387.44 301.44 OFFCURVE",
"382.11 170.01 CURVE SMOOTH",
"381.3 149.92 OFFCURVE",
"380.99 115.01 OFFCURVE",
"380.99 115.01 CURVE",
"358.99 122.01 OFFCURVE",
"310.99 141.01 OFFCURVE",
"263.99 184.01 CURVE SMOOTH",
"223.79 220.79 OFFCURVE",
"196.99 276.01 OFFCURVE",
"196.99 276.01 CURVE",
"196.99 276.01 OFFCURVE",
"255.99 272.69 OFFCURVE",
"301.99 272.69 CURVE SMOOTH",
"328.99 272.69 OFFCURVE",
"423.55 274.58 OFFCURVE",
"441.13 277.01 CURVE",
"456.99 401.01 LINE",
"456.99 401.01 OFFCURVE",
"417.99 397.01 OFFCURVE",
"269.99 397.01 CURVE SMOOTH",
"193.99 397.01 OFFCURVE",
"146.99 400.01 OFFCURVE",
"89.99 400.01 CURVE SMOOTH",
"46.98 400.01 OFFCURVE",
"23.99 396.01 OFFCURVE",
"12.99 367.01 CURVE SMOOTH",
"4.59 344.85 OFFCURVE",
"0.99 334.01 OFFCURVE",
"-6.01 311.01 CURVE SMOOTH",
"-11.73 292.21 OFFCURVE",
"-10.46 281.43 OFFCURVE",
"11.99 273.01 CURVE SMOOTH",
"35.99 264.01 OFFCURVE",
"49.06 257.61 OFFCURVE",
"55.99 244.01 CURVE SMOOTH",
"82.99 191.01 OFFCURVE",
"108.75 142.72 OFFCURVE",
"167.99 87.01 CURVE SMOOTH",
"234.99 24.01 OFFCURVE",
"353.99 -20.99 OFFCURVE",
"387.99 -20.99 CURVE SMOOTH",
"414.99 -20.99 OFFCURVE",
"458.99 22.01 OFFCURVE",
"476.99 50.01 CURVE SMOOTH",
"495.14 78.24 OFFCURVE",
"516.99 127.01 OFFCURVE",
"519.99 174.01 CURVE SMOOTH",
"529.83 328.15 OFFCURVE",
"550.13 511.01 OFFCURVE",
"550.13 511.01 CURVE"
);
}
);
};
hints = (
{
horizontal = 1;
place = "{272.68, 124.32}";
type = Stem;
},
{
horizontal = 1;
place = "{511, 119}";
type = Stem;
},
{
place = "{92.69, 131.75}";
type = Stem;
}
);
layerId = "555B79C6-6D98-46E7-9307-77C37975E414";
paths = (
{
closed = 1;
nodes = (
"292 385 LINE",
"253 422 OFFCURVE",
"224 447 OFFCURVE",
"224 478 CURVE SMOOTH",
"224 506 OFFCURVE",
"253 542 OFFCURVE",
"274 542 CURVE SMOOTH",
"293 542 OFFCURVE",
"318 515 OFFCURVE",
"330.47 515.72 CURVE SMOOTH",
"336.03 515.86 OFFCURVE",
"338 519 OFFCURVE",
"337.94 524.71 CURVE SMOOTH",
"337 572 OFFCURVE",
"272 644 OFFCURVE",
"202.25 644.21 CURVE SMOOTH",
"139 644 OFFCURVE",
"93 562 OFFCURVE",
"92.69 483.04 CURVE SMOOTH",
"92.69 413.01 OFFCURVE",
"210 342.01 OFFCURVE",
"210 342.01 CURVE"
);
},
{
closed = 1;
nodes = (
"600.14 511.01 LINE",
"632 511 OFFCURVE",
"642 509 OFFCURVE",
"649.14 530.01 CURVE SMOOTH",
"674.14 608.01 LINE SMOOTH",
"679.38 622.68 OFFCURVE",
"672.14 630.01 OFFCURVE",
"653 630.01 CURVE SMOOTH",
"546.14 630.01 LINE SMOOTH",
"471 630 OFFCURVE",
"422 590 OFFCURVE",
"411.14 511.01 CURVE",
"411.14 511.01 OFFCURVE",
"387.44 301.44 OFFCURVE",
"382.11 170.01 CURVE SMOOTH",
"381.3 149.92 OFFCURVE",
"380.99 115.01 OFFCURVE",
"380.99 115.01 CURVE",
"365 115 OFFCURVE",
"243 169 OFFCURVE",
"196.99 276.01 CURVE",
"196.99 276.01 OFFCURVE",
"255.99 272.69 OFFCURVE",
"301.99 272.69 CURVE SMOOTH",
"328.99 272.69 OFFCURVE",
"423.55 274.58 OFFCURVE",
"441.13 277.01 CURVE",
"456.99 401.01 LINE",
"456.99 401.01 OFFCURVE",
"417.99 397.01 OFFCURVE",
"269.99 397.01 CURVE SMOOTH",
"193.99 397.01 OFFCURVE",
"146.99 400.01 OFFCURVE",
"89.99 400.01 CURVE SMOOTH",
"46.98 400.01 OFFCURVE",
"23.99 396.01 OFFCURVE",
"12.99 367.01 CURVE SMOOTH",
"5 347 OFFCURVE",
"-9 307 OFFCURVE",
"-9 296 CURVE SMOOTH",
"-9 286 OFFCURVE",
"-3 279 OFFCURVE",
"12 273 CURVE SMOOTH",
"36 264 OFFCURVE",
"50 258 OFFCURVE",
"56 244 CURVE SMOOTH",
"116 101 OFFCURVE",
"282 -21 OFFCURVE",
"387.99 -20.99 CURVE SMOOTH",
"445 -21 OFFCURVE",
"515 95 OFFCURVE",
"519.99 174.01 CURVE SMOOTH",
"529.83 328.15 OFFCURVE",
"550.13 511.01 OFFCURVE",
"550.13 511.01 CURVE"
);
}
);
width = 600;
},
{
layerId = "9F2BC935-6AE7-4E60-84C9-D3B586669EA4";
width = 600;
}
);
leftKerningGroup = Dha.bn;
note = Dha.bn;
rightKerningGroup = VowelA.bn;
unicode = 09A7;
},
{
glyphname = Na.bn;
lastChange = "2020-07-15 14:37:54 +0000";
layers = (
{
background = {
paths = (
{
closed = 1;
nodes = (
"382 358 LINE",
"371 383 OFFCURVE",
"291 452 OFFCURVE",
"210 452 CURVE SMOOTH",
"158 452 OFFCURVE",
"115 437 OFFCURVE",
"84 414 CURVE SMOOTH",
"49.25 388.22 OFFCURVE",
"32.99 367.49 OFFCURVE",
"13 330 CURVE SMOOTH",
"-3 300 OFFCURVE",
"-8 266 OFFCURVE",
"-8 242 CURVE SMOOTH",
"-8 193 OFFCURVE",
"15.04 151.96 OFFCURVE",
"34 130 CURVE SMOOTH",
"68.28 90.31 OFFCURVE",
"126 55 OFFCURVE",
"156 55 CURVE SMOOTH",
"185 55 OFFCURVE",
"236.78 122.81 OFFCURVE",
"249 148 CURVE SMOOTH",
"258.2 166.98 OFFCURVE",
"261.83 185 OFFCURVE",
"261.83 206 CURVE SMOOTH",
"261.83 214.08 OFFCURVE",
"258.98 226 OFFCURVE",
"253 226 CURVE SMOOTH",
"243.17 226 OFFCURVE",
"218 184 OFFCURVE",
"206 184 CURVE SMOOTH",
"173 184 OFFCURVE",
"110 238.85 OFFCURVE",
"110 276.85 CURVE SMOOTH",
"110 297.85 OFFCURVE",
"127 324.66 OFFCURVE",
"147 338 CURVE SMOOTH",
"162 348 OFFCURVE",
"176.95 352.85 OFFCURVE",
"191 352.85 CURVE SMOOTH",
"209 352.85 OFFCURVE",
"227 343 OFFCURVE",
"243 327 CURVE SMOOTH",
"256.69 313.31 OFFCURVE",
"259.4 309.36 OFFCURVE",
"290 263 CURVE SMOOTH",
"323 213 OFFCURVE",
"352 133 OFFCURVE",
"352 133 CURVE"
);
},
{
closed = 1;
nodes = (
"379 541.14 LINE",
"379 541.14 OFFCURVE",
"361.53 376.52 OFFCURVE",
"347 207 CURVE SMOOTH",
"341 137 OFFCURVE",
"338 108 OFFCURVE",
"332 63 CURVE SMOOTH",
"327.18 26.82 OFFCURVE",
"317.76 -22.84 OFFCURVE",
"356.91 -22.84 CURVE SMOOTH",
"405.26 -22.84 OFFCURVE",
"422 22 OFFCURVE",
"440 50 CURVE SMOOTH",
"458.15 78.23 OFFCURVE",
"480 127 OFFCURVE",
"483 174 CURVE SMOOTH",
"494.93 360.94 OFFCURVE",
"503 396 OFFCURVE",
"516 538 CURVE"
);
},
{
closed = 1;
nodes = (
"-0.14 630 LINE",
"-5.14 630 LINE SMOOTH",
"-17.14 630 OFFCURVE",
"-25.14 623.67 OFFCURVE",
"-29.14 611 CURVE SMOOTH",
"-44 565 LINE",
"-54.14 533 LINE SMOOTH",
"-59.47 518.33 OFFCURVE",
"-52.47 511 OFFCURVE",
"-33.14 511 CURVE SMOOTH",
"570 511 LINE",
"595 511 LINE SMOOTH",
"606.91 511 OFFCURVE",
"614.91 517.33 OFFCURVE",
"619 530 CURVE SMOOTH",
"633.86 575 LINE",
"644 608 LINE SMOOTH",
"649.24 622.67 OFFCURVE",
"642.19 630 OFFCURVE",
"622.86 630 CURVE SMOOTH"
);
}
);
};
hints = (
{
horizontal = 1;
place = "{55, 129}";
type = Stem;
},
{
horizontal = 1;
place = "{352.85, 99.15}";
type = Stem;
},
{
horizontal = 1;
place = "{511, 119}";
type = Stem;
},
{
place = "{-8, 118}";
type = Stem;
}
);
layerId = "555B79C6-6D98-46E7-9307-77C37975E414";
paths = (
{
closed = 1;
nodes = (
"382 358 LINE",
"371 383 OFFCURVE",
"291 452 OFFCURVE",
"210 452 CURVE SMOOTH",
"89 452 OFFCURVE",
"-8 358 OFFCURVE",
"-8 242 CURVE SMOOTH",
"-8 140 OFFCURVE",
"95 55 OFFCURVE",
"156 55 CURVE SMOOTH",
"194 55 OFFCURVE",
"262 149 OFFCURVE",
"262 195 CURVE SMOOTH",
"261.83 214.08 OFFCURVE",
"258.98 226 OFFCURVE",
"253 226 CURVE SMOOTH",
"243.17 226 OFFCURVE",
"218 184 OFFCURVE",
"206 184 CURVE SMOOTH",
"173 184 OFFCURVE",
"110 238.85 OFFCURVE",
"110 276.85 CURVE SMOOTH",
"110 311 OFFCURVE",
"149 353 OFFCURVE",
"191 352.85 CURVE SMOOTH",
"248 353 OFFCURVE",
"303 251 OFFCURVE",
"352 133 CURVE"
);
},
{
closed = 1;
nodes = (
"379 541.14 LINE",
"356 295 OFFCURVE",
"339 117 OFFCURVE",
"332 63 CURVE SMOOTH",
"327.18 26.82 OFFCURVE",
"318 -23 OFFCURVE",
"356.91 -22.84 CURVE SMOOTH",
"421 -23 OFFCURVE",
"478 107 OFFCURVE",
"483 174 CURVE SMOOTH",
"497 361 OFFCURVE",
"503 396 OFFCURVE",
"516 538 CURVE"
);
},
{
closed = 1;
nodes = (
"-0.14 630 LINE",
"-14 630 OFFCURVE",
"-24 628 OFFCURVE",
"-29.14 611 CURVE SMOOTH",
"-54.14 533 LINE SMOOTH",
"-59.47 518.33 OFFCURVE",
"-52.47 511 OFFCURVE",
"-33.14 511 CURVE SMOOTH",
"570 511 LINE",
"602 511 OFFCURVE",
"612 509 OFFCURVE",
"619 530 CURVE SMOOTH",
"644 608 LINE SMOOTH",
"649.24 622.67 OFFCURVE",
"642.19 630 OFFCURVE",
"622.86 630 CURVE SMOOTH"
);
}
);
width = 570;
},
{
layerId = "9F2BC935-6AE7-4E60-84C9-D3B586669EA4";
width = 600;
}
);
leftKerningGroup = VowelA.bn;
note = Na.bn;
rightKerningGroup = VowelA.bn;
unicode = 09A8;
},
{
glyphname = Pa.bn;
lastChange = "2020-07-15 14:37:54 +0000";
layers = (
{
background = {
paths = (
{
closed = 1;
nodes = (
"218 514 OFFCURVE",
"246.07 520.4 OFFCURVE",
"264.38 520.4 CURVE SMOOTH",
"294 520.4 OFFCURVE",
"319 511 OFFCURVE",
"350 483 CURVE SMOOTH",
"365.73 468.79 OFFCURVE",
"391 438 OFFCURVE",
"409 405 CURVE SMOOTH",
"439.06 349.89 OFFCURVE",
"482 257 OFFCURVE",
"482 257 CURVE",
"499 505 LINE",
"486.35 533.75 OFFCURVE",
"385 633.55 OFFCURVE",
"275.1 633.55 CURVE SMOOTH",
"207.3 633.55 OFFCURVE",
"178.85 616.3 OFFCURVE",
"143.2 589.85 CURVE SMOOTH",
"98.29 556.53 OFFCURVE",
"47.4 482.83 OFFCURVE",
"47.4 441.05 CURVE SMOOTH",
"47.4 413 OFFCURVE",
"102 356 OFFCURVE",
"129 356 CURVE SMOOTH",
"133.36 356 OFFCURVE",
"141.85 368 OFFCURVE",
"141.85 368 CURVE",
"211 368 OFFCURVE",
"244 246 OFFCURVE",
"244 246 CURVE",
"327 302 LINE",
"266 467 OFFCURVE",
"195 482 OFFCURVE",
"195 482 CURVE"
);
},
{
closed = 1;
nodes = (
"439 410 LINE",
"439 410 OFFCURVE",
"225 234.87 OFFCURVE",
"180.49 234.87 CURVE SMOOTH",
"167.41 234.87 OFFCURVE",
"149 280.82 OFFCURVE",
"138.9 280.82 CURVE SMOOTH",
"132.39 280.82 OFFCURVE",
"131.3 275.42 OFFCURVE",
"130.47 270.85 CURVE SMOOTH",
"129.64 266.27 OFFCURVE",
"126.42 232.28 OFFCURVE",
"132.93 208.91 CURVE SMOOTH",
"141.57 177.89 OFFCURVE",
"209.01 113.47 OFFCURVE",
"242.02 113.47 CURVE SMOOTH",
"265.52 113.47 OFFCURVE",
"283.56 122.97 OFFCURVE",
"331.73 159.26 CURVE SMOOTH",
"411.01 218.99 OFFCURVE",
"506.01 322.99 OFFCURVE",
"506.01 322.99 CURVE"
);
},
{
closed = 1;
nodes = (
"425.01 388.99 OFFCURVE",
"423.13 366.7 OFFCURVE",
"411.01 196.99 CURVE SMOOTH",
"406.01 126.99 OFFCURVE",
"402.01 97.99 OFFCURVE",
"396.01 52.99 CURVE SMOOTH",
"391.19 16.81 OFFCURVE",
"378.72 -31.01 OFFCURVE",
"415.01 -31.01 CURVE SMOOTH",
"459.83 -31.01 OFFCURVE",
"486.01 11.99 OFFCURVE",
"504.01 39.99 CURVE SMOOTH",
"522.16 68.22 OFFCURVE",
"544.01 116.99 OFFCURVE",
"547.01 163.99 CURVE SMOOTH",
"558.94 350.93 OFFCURVE",
"577.01 510.99 OFFCURVE",
"577.01 510.99 CURVE",
"635.01 510.99 LINE",
"660.01 510.99 LINE SMOOTH",
"671.92 510.99 OFFCURVE",
"679.92 517.32 OFFCURVE",
"684.01 529.99 CURVE SMOOTH",
"698.87 575.99 LINE",
"709.01 607.99 LINE SMOOTH",
"714.25 622.66 OFFCURVE",
"707.01 629.99 OFFCURVE",
"687.87 629.99 CURVE SMOOTH",
"636.01 629.99 LINE",
"572.01 629.99 LINE SMOOTH",
"563.27 629.99 OFFCURVE",
"545.3 628.97 OFFCURVE",
"536.01 626.93 CURVE SMOOTH",
"518.01 622.99 OFFCURVE",
"506.01 617.99 OFFCURVE",
"491.01 607.99 CURVE SMOOTH",
"483.34 602.88 OFFCURVE",
"471.01 591.99 OFFCURVE",
"462.01 578.99 CURVE SMOOTH",
"447.31 557.76 OFFCURVE",
"440.22 543.65 OFFCURVE",
"437.01 510.99 CURVE SMOOTH"
);
}
);
};
hints = (
{
horizontal = 1;
place = "{113.47, 121.4}";
type = Stem;
},
{
horizontal = 1;
place = "{520.4, 113.15}";
type = Stem;
},
{
horizontal = 1;
place = "{511, 119}";
type = Stem;
}
);
layerId = "555B79C6-6D98-46E7-9307-77C37975E414";
paths = (
{
closed = 1;
nodes = (
"218 514 OFFCURVE",
"246 520 OFFCURVE",
"264.38 520.4 CURVE SMOOTH",
"359 520 OFFCURVE",
"412 413 OFFCURVE",
"482 257 CURVE",
"499 505 LINE",
"481 534 OFFCURVE",
"395 634 OFFCURVE",
"267 634 CURVE SMOOTH",
"153 634 OFFCURVE",
"46 513 OFFCURVE",
"47 440 CURVE SMOOTH",
"47 413 OFFCURVE",
"102 356 OFFCURVE",
"129 356 CURVE SMOOTH",
"133 356 OFFCURVE",
"142 368 OFFCURVE",
"141.85 368 CURVE",
"211 368 OFFCURVE",
"244 246 OFFCURVE",
"244 246 CURVE",
"327 302 LINE",
"266 467 OFFCURVE",
"195 482 OFFCURVE",
"195 482 CURVE"
);
},
{
closed = 1;
nodes = (
"439 410 LINE",
"439 410 OFFCURVE",
"225 234.87 OFFCURVE",
"180.49 234.87 CURVE SMOOTH",
"167.41 234.87 OFFCURVE",
"149 280.82 OFFCURVE",
"138.9 280.82 CURVE SMOOTH",
"132.39 280.82 OFFCURVE",
"131.3 275.42 OFFCURVE",
"130.47 270.85 CURVE SMOOTH",
"129.64 266.27 OFFCURVE",
"126.42 232.28 OFFCURVE",
"132.93 208.91 CURVE SMOOTH",
"141.57 177.89 OFFCURVE",
"209.01 113.47 OFFCURVE",
"242.02 113.47 CURVE SMOOTH",
"265.52 113.47 OFFCURVE",
"283.56 122.97 OFFCURVE",
"331.73 159.26 CURVE SMOOTH",
"411.01 218.99 OFFCURVE",
"506.01 322.99 OFFCURVE",
"506.01 322.99 CURVE"
);
},
{
closed = 1;
nodes = (
"411 316 OFFCURVE",
"424 254 OFFCURVE",
"396 53 CURVE SMOOTH",
"391 17 OFFCURVE",
"379 -31 OFFCURVE",
"415 -31 CURVE SMOOTH",
"477 -31 OFFCURVE",
"542 82 OFFCURVE",
"547 164 CURVE SMOOTH",
"558 351 OFFCURVE",
"577 511 OFFCURVE",
"577 511 CURVE",
"635 511 LINE",
"667 511 OFFCURVE",
"677 509 OFFCURVE",
"684 530 CURVE SMOOTH",
"709 608 LINE SMOOTH",
"714 623 OFFCURVE",
"707 630 OFFCURVE",
"688 630 CURVE SMOOTH",
"572 630 LINE SMOOTH",
"495 630 OFFCURVE",
"447 586 OFFCURVE",
"437 511 CURVE SMOOTH"
);
}
);
width = 635;
},
{
layerId = "9F2BC935-6AE7-4E60-84C9-D3B586669EA4";
width = 600;
}
);
leftKerningGroup = Pa.bn;
note = Pa.bn;
rightKerningGroup = VowelA.bn;
unicode = 09AA;
},
{
glyphname = Pha.bn;
lastChange = "2020-07-15 14:37:54 +0000";
layers = (
{
background = {
paths = (
{
closed = 1;
nodes = (
"-0.14 630 LINE",
"-7.14 630 LINE SMOOTH",
"-19.14 630 OFFCURVE",
"-27.14 623.67 OFFCURVE",
"-31.14 611 CURVE SMOOTH",
"-46 565 LINE",
"-56.14 533 LINE SMOOTH",
"-61.47 518.33 OFFCURVE",
"-54.47 511 OFFCURVE",
"-35.14 511 CURVE SMOOTH",
"830 511 LINE",
"855 511 LINE SMOOTH",
"866.91 511 OFFCURVE",
"874.91 517.33 OFFCURVE",
"879 530 CURVE SMOOTH",
"893.86 575 LINE",
"904 608 LINE SMOOTH",
"909.24 622.67 OFFCURVE",
"902.19 630 OFFCURVE",
"882.86 630 CURVE SMOOTH"
);
},
{
closed = 1;
nodes = (
"675.79 75.58 OFFCURVE",
"757.62 160.12 OFFCURVE",
"774.79 203.58 CURVE SMOOTH",
"784.49 228.14 OFFCURVE",
"787.62 242 OFFCURVE",
"787.62 265 CURVE SMOOTH",
"787.62 289.01 OFFCURVE",
"778.24 313.04 OFFCURVE",
"772 326 CURVE SMOOTH",
"759 353 OFFCURVE",
"741.61 372.65 OFFCURVE",
"729 384 CURVE SMOOTH",
"709 402 OFFCURVE",
"694.39 412.86 OFFCURVE",
"664 426 CURVE SMOOTH",
"627 442 OFFCURVE",
"577 445 OFFCURVE",
"531 445 CURVE SMOOTH",
"496.91 445 OFFCURVE",
"430.21 438.91 OFFCURVE",
"430.21 438.91 CURVE",
"468 312 LINE",
"468 312 OFFCURVE",
"468.34 313.52 OFFCURVE",
"512 318 CURVE SMOOTH",
"557.91 322.71 OFFCURVE",
"570.72 325.3 OFFCURVE",
"586 327 CURVE SMOOTH",
"595.87 328.1 OFFCURVE",
"607 328.8 OFFCURVE",
"618 328.8 CURVE SMOOTH",
"627 328.8 OFFCURVE",
"637.36 328.75 OFFCURVE",
"645.69 326.09 CURVE SMOOTH",
"656.94 322.51 OFFCURVE",
"663.23 317.42 OFFCURVE",
"671.21 303.64 CURVE SMOOTH",
"675.56 296.13 OFFCURVE",
"679.64 284 OFFCURVE",
"679.64 273 CURVE SMOOTH",
"679.64 263.9 OFFCURVE",
"678.8 256.63 OFFCURVE",
"675.99 250 CURVE SMOOTH",
"667.27 229.42 OFFCURVE",
"614.07 202 OFFCURVE",
"599.99 202 CURVE SMOOTH",
"587.07 202 OFFCURVE",
"566.07 244.03 OFFCURVE",
"554.07 244.03 CURVE SMOOTH",
"549.29 244.03 OFFCURVE",
"546.53 232.17 OFFCURVE",
"546.53 225.86 CURVE SMOOTH",
"546.53 209.67 OFFCURVE",
"549.95 186.55 OFFCURVE",
"555.78 170.58 CURVE SMOOTH",
"567.06 139.67 OFFCURVE",
"602.78 75.58 OFFCURVE",
"639.78 75.58 CURVE SMOOTH"
);
},
{
closed = 1;
nodes = (
"49.99 516.19 LINE",
"49.99 516.19 OFFCURVE",
"121.99 489.01 OFFCURVE",
"187.99 384.01 CURVE",
"173.99 374.01 OFFCURVE",
"129.99 358.01 OFFCURVE",
"76.99 341.01 CURVE SMOOTH",
"46.73 331.3 OFFCURVE",
"12.07 327.57 OFFCURVE",
"1.99 301.01 CURVE SMOOTH",
"-6.41 278.85 OFFCURVE",
"-9.01 272.01 OFFCURVE",
"-16.01 249.01 CURVE SMOOTH",
"-21.73 230.21 OFFCURVE",
"-20.63 218.95 OFFCURVE",
"1.99 211.01 CURVE SMOOTH",
"19.99 204.69 OFFCURVE",
"37.58 197.9 OFFCURVE",
"54.99 177.01 CURVE SMOOTH",
"74.99 153.01 OFFCURVE",
"120.18 85.87 OFFCURVE",
"178.99 47.01 CURVE SMOOTH",
"234.99 10.01 OFFCURVE",
"316.95 -20.99 OFFCURVE",
"364.95 -20.99 CURVE SMOOTH",
"391.95 -20.99 OFFCURVE",
"445.95 22.01 OFFCURVE",
"463.95 50.01 CURVE SMOOTH",
"482.1 78.24 OFFCURVE",
"503.95 127.01 OFFCURVE",
"506.95 174.01 CURVE SMOOTH",
"516.79 328.15 OFFCURVE",
"530.99 444.01 OFFCURVE",
"530.99 444.01 CURVE",
"390.99 444.01 LINE",
"390.99 444.01 OFFCURVE",
"375.95 340.01 OFFCURVE",
"369.07 170.01 CURVE SMOOTH",
"368.26 149.92 OFFCURVE",
"367.95 112.01 OFFCURVE",
"367.95 112.01 CURVE",
"245.99 135.01 OFFCURVE",
"173.99 241.01 OFFCURVE",
"173.99 241.01 CURVE",
"173.99 241.01 OFFCURVE",
"314.99 326.01 OFFCURVE",
"314.99 370.01 CURVE SMOOTH",
"314.99 433.47 OFFCURVE",
"247.99 516.01 OFFCURVE",
"247.99 516.01 CURVE"
);
}
);
};
hints = (
{
horizontal = 1;
place = "{75.58, 126.42}";
type = Stem;
},
{
horizontal = 1;
place = "{328.8, 116.2}";
type = Stem;
},
{
horizontal = 1;
place = "{511, 119}";
type = Stem;
},
{
place = "{679.65, 107.97}";
type = Stem;
},
{
horizontal = 1;
place = "{511, 5}";
type = Stem;
}
);
layerId = "555B79C6-6D98-46E7-9307-77C37975E414";
paths = (
{
closed = 1;
nodes = (
"-0.14 630 LINE",
"-16 630 OFFCURVE",
"-26 628 OFFCURVE",
"-31.14 611 CURVE SMOOTH",
"-56.14 533 LINE SMOOTH",
"-61.47 518.33 OFFCURVE",
"-54.47 511 OFFCURVE",
"-35.14 511 CURVE SMOOTH",
"830 511 LINE",
"862 511 OFFCURVE",
"872 509 OFFCURVE",
"879 530 CURVE SMOOTH",
"904 608 LINE SMOOTH",
"909.24 622.67 OFFCURVE",
"902.19 630 OFFCURVE",
"882.86 630 CURVE SMOOTH"
);
},
{
closed = 1;
nodes = (
"682 76 OFFCURVE",
"788 180 OFFCURVE",
"788 253 CURVE SMOOTH",
"787 383 OFFCURVE",
"667 445 OFFCURVE",
"562 445 CURVE SMOOTH",
"496.91 445 OFFCURVE",
"430.21 438.91 OFFCURVE",
"430.21 438.91 CURVE",
"468 312 LINE",
"540 322 OFFCURVE",
"599 329 OFFCURVE",
"626 329 CURVE SMOOTH",
"660 329 OFFCURVE",
"680 306 OFFCURVE",
"680 266 CURVE SMOOTH",
"680 231 OFFCURVE",
"616 202 OFFCURVE",
"599.99 202 CURVE SMOOTH",
"587.07 202 OFFCURVE",
"566.07 244.03 OFFCURVE",
"554.07 244.03 CURVE SMOOTH",
"549.29 244.03 OFFCURVE",
"546.53 232.17 OFFCURVE",
"546.53 225.86 CURVE SMOOTH",
"547 166 OFFCURVE",
"595 75 OFFCURVE",
"639.78 75.58 CURVE SMOOTH"
);
},
{
closed = 1;
nodes = (
"49.99 516.19 LINE",
"49.99 516.19 OFFCURVE",
"121.99 489.01 OFFCURVE",
"187.99 384.01 CURVE",
"174 374 OFFCURVE",
"130 358 OFFCURVE",
"77 341 CURVE SMOOTH",
"47 331 OFFCURVE",
"12 328 OFFCURVE",
"1.99 301.01 CURVE SMOOTH",
"-7 279 OFFCURVE",
"-19 245 OFFCURVE",
"-19 233 CURVE SMOOTH",
"-19 223 OFFCURVE",
"-14 217 OFFCURVE",
"2 211 CURVE SMOOTH",
"20 205 OFFCURVE",
"41 200 OFFCURVE",
"55 177 CURVE SMOOTH",
"128 58 OFFCURVE",
"265 -21 OFFCURVE",
"364.95 -20.99 CURVE SMOOTH",
"426 -21 OFFCURVE",
"502 81 OFFCURVE",
"506.95 174.01 CURVE SMOOTH",
"515 328 OFFCURVE",
"530.99 444.01 OFFCURVE",
"530.99 444.01 CURVE",
"390.99 444.01 LINE",
"390.99 444.01 OFFCURVE",
"375.95 340.01 OFFCURVE",
"369.07 170.01 CURVE SMOOTH",
"368.26 149.92 OFFCURVE",
"367.95 112.01 OFFCURVE",
"367.95 112.01 CURVE",
"331 112 OFFCURVE",
"229 164 OFFCURVE",
"173.99 241.01 CURVE",
"173.99 241.01 OFFCURVE",
"314.99 326.01 OFFCURVE",
"314.99 370.01 CURVE SMOOTH",
"314.99 433.47 OFFCURVE",
"247.99 516.01 OFFCURVE",
"247.99 516.01 CURVE"
);
}
);
width = 830;
},
{
layerId = "9F2BC935-6AE7-4E60-84C9-D3B586669EA4";
width = 600;
}
);
leftKerningGroup = VowelA.bn;
note = Pha.bn;
rightKerningGroup = VowelA.bn;
unicode = 09AB;
},
{
glyphname = Ba.bn;
lastChange = "2020-07-15 14:37:54 +0000";
layers = (
{
background = {
paths = (
{
closed = 1;
nodes = (
"418 541.14 LINE",
"418 541.14 OFFCURVE",
"391 340 OFFCURVE",
"384.12 170 CURVE SMOOTH",
"383.31 149.91 OFFCURVE",
"384 124 OFFCURVE",
"384 124 CURVE",
"334 141 OFFCURVE",
"275.81 178.24 OFFCURVE",
"241 219 CURVE SMOOTH",
"200 267 OFFCURVE",
"180 319 OFFCURVE",
"180 319 CURVE",
"180 319 OFFCURVE",
"258 314.68 OFFCURVE",
"304 314.68 CURVE SMOOTH",
"331 314.68 OFFCURVE",
"425.56 316.57 OFFCURVE",
"443.14 319 CURVE",
"459 443 LINE",
"459 443 OFFCURVE",
"420 439 OFFCURVE",
"272 439 CURVE SMOOTH",
"196 439 OFFCURVE",
"149 442 OFFCURVE",
"92 442 CURVE SMOOTH",
"48.99 442 OFFCURVE",
"26 438 OFFCURVE",
"15 409 CURVE SMOOTH",
"6.6 386.84 OFFCURVE",
"3 376 OFFCURVE",
"-4 353 CURVE SMOOTH",
"-9.72 334.2 OFFCURVE",
"-8.45 323.42 OFFCURVE",
"14 315 CURVE SMOOTH",
"38 306 OFFCURVE",
"51.07 299.6 OFFCURVE",
"58 286 CURVE SMOOTH",
"85 233 OFFCURVE",
"104.93 177.01 OFFCURVE",
"176 105 CURVE SMOOTH",
"252 28 OFFCURVE",
"356 -21 OFFCURVE",
"390 -21 CURVE SMOOTH",
"417 -21 OFFCURVE",
"461 22 OFFCURVE",
"479 50 CURVE SMOOTH",
"497.15 78.23 OFFCURVE",
"519 127 OFFCURVE",
"522 174 CURVE SMOOTH",
"533.93 360.94 OFFCURVE",
"555 538 OFFCURVE",
"555 538 CURVE"
);
},
{
closed = 1;
nodes = (
"0 630 LINE",
"-7 630 LINE SMOOTH",
"-19 630 OFFCURVE",
"-27 623.67 OFFCURVE",
"-31 611 CURVE SMOOTH",
"-45.86 565 LINE",
"-56 533 LINE SMOOTH",
"-61.33 518.33 OFFCURVE",
"-54.33 511 OFFCURVE",
"-35 511 CURVE SMOOTH",
"620.14 511 LINE",
"645.14 511 LINE SMOOTH",
"657.05 511 OFFCURVE",
"665.05 517.33 OFFCURVE",
"669.14 530 CURVE SMOOTH",
"684 575 LINE",
"694.14 608 LINE SMOOTH",
"699.38 622.67 OFFCURVE",
"692.33 630 OFFCURVE",
"673 630 CURVE SMOOTH"
);
}
);
};
hints = (
{
horizontal = 1;
place = "{314.68, 124.32}";
type = Stem;
},
{
horizontal = 1;
place = "{511, 119}";
type = Stem;
}
);
layerId = "555B79C6-6D98-46E7-9307-77C37975E414";
paths = (
{
closed = 1;
nodes = (
"0 630 LINE",
"-15 630 OFFCURVE",
"-26 628 OFFCURVE",
"-31 611 CURVE SMOOTH",
"-56 533 LINE SMOOTH",
"-61.33 518.33 OFFCURVE",
"-54.33 511 OFFCURVE",
"-35 511 CURVE SMOOTH",
"620.14 511 LINE",
"652 511 OFFCURVE",
"662 509 OFFCURVE",
"669.14 530 CURVE SMOOTH",
"694.14 608 LINE SMOOTH",
"699.38 622.67 OFFCURVE",
"692.33 630 OFFCURVE",
"673 630 CURVE SMOOTH"
);
},
{
closed = 1;
nodes = (
"418 541 LINE",
"418 541 OFFCURVE",
"392 340 OFFCURVE",
"384 170 CURVE SMOOTH",
"383 150 OFFCURVE",
"384 124 OFFCURVE",
"384 124 CURVE",
"370 124 OFFCURVE",
"228 184 OFFCURVE",
"181 319 CURVE",
"181 319 OFFCURVE",
"267 314 OFFCURVE",
"304 314 CURVE SMOOTH",
"334 314 OFFCURVE",
"400 316 OFFCURVE",
"443 319 CURVE",
"459 443 LINE",
"459 443 OFFCURVE",
"325 439 OFFCURVE",
"252 439 CURVE SMOOTH",
"200 439 OFFCURVE",
"143 442 OFFCURVE",
"92 442 CURVE SMOOTH",
"49 442 OFFCURVE",
"26 438 OFFCURVE",
"15 409 CURVE SMOOTH",
"9 393 OFFCURVE",
"-7 344 OFFCURVE",
"-7 334 CURVE SMOOTH",
"-7 326 OFFCURVE",
"-1 321 OFFCURVE",
"14 315 CURVE SMOOTH",
"38 305 OFFCURVE",
"53 300 OFFCURVE",
"58 286 CURVE SMOOTH",
"120 111 OFFCURVE",
"302 -21 OFFCURVE",
"390 -21 CURVE SMOOTH",
"447 -21 OFFCURVE",
"517 95 OFFCURVE",
"522 174 CURVE SMOOTH",
"534 361 OFFCURVE",
"555 538 OFFCURVE",
"555 538 CURVE"
);
}
);
width = 620;
},
{
layerId = "9F2BC935-6AE7-4E60-84C9-D3B586669EA4";
width = 600;
}
);
leftKerningGroup = VowelA.bn;
note = Ba.bn;
rightKerningGroup = VowelA.bn;
unicode = 09AC;
},
{
glyphname = Bha.bn;
lastChange = "2020-07-15 14:37:54 +0000";
layers = (
{
background = {
paths = (
{
closed = 1;
nodes = (
"31 285 OFFCURVE",
"34 210 OFFCURVE",
"56 161 CURVE SMOOTH",
"61 150 OFFCURVE",
"70 136 OFFCURVE",
"82 132 CURVE SMOOTH",
"122 119 OFFCURVE",
"220 183 OFFCURVE",
"262 183 CURVE SMOOTH",
"284 183 OFFCURVE",
"270 110 OFFCURVE",
"257 97 CURVE SMOOTH",
"246 86 OFFCURVE",
"202 106 OFFCURVE",
"189 102 CURVE SMOOTH",
"180 99 OFFCURVE",
"179 92 OFFCURVE",
"180 88 CURVE SMOOTH",
"181 84 OFFCURVE",
"185 78 OFFCURVE",
"190 72 CURVE SMOOTH",
"202 58 OFFCURVE",
"216 44 OFFCURVE",
"240 33 CURVE SMOOTH",
"257 25 OFFCURVE",
"286 18 OFFCURVE",
"304 18 CURVE SMOOTH",
"323 18 OFFCURVE",
"338 21 OFFCURVE",
"350 28 CURVE SMOOTH",
"361 34 OFFCURVE",
"370 41 OFFCURVE",
"381 60 CURVE SMOOTH",
"407 105 OFFCURVE",
"419 226 OFFCURVE",
"391 268 CURVE SMOOTH",
"377 289 OFFCURVE",
"354 304 OFFCURVE",
"324 304 CURVE SMOOTH",
"280 304 OFFCURVE",
"219 270 OFFCURVE",
"205 270 CURVE SMOOTH",
"191 270 OFFCURVE",
"184 331 OFFCURVE",
"204 355 CURVE SMOOTH",
"245 404 OFFCURVE",
"305 416 OFFCURVE",
"354 416 CURVE SMOOTH",
"412 416 OFFCURVE",
"445 376 OFFCURVE",
"462 328 CURVE SMOOTH",
"469 308 OFFCURVE",
"477 273 OFFCURVE",
"477 222 CURVE SMOOTH",
"477 206 OFFCURVE",
"476 184 OFFCURVE",
"475 170 CURVE SMOOTH",
"472 122 OFFCURVE",
"459 81 OFFCURVE",
"459 51 CURVE SMOOTH",
"459 45 OFFCURVE",
"459 37 OFFCURVE",
"472 37 CURVE SMOOTH",
"486 37 OFFCURVE",
"526 71 OFFCURVE",
"561 119 CURVE SMOOTH",
"593 163 OFFCURVE",
"618 219 OFFCURVE",
"618 277 CURVE SMOOTH",
"618 314 OFFCURVE",
"606 411 OFFCURVE",
"528 483 CURVE SMOOTH",
"482 526 OFFCURVE",
"420 543 OFFCURVE",
"363 543 CURVE SMOOTH",
"274 543 OFFCURVE",
"201 516 OFFCURVE",
"149 474 CURVE SMOOTH",
"115 447 OFFCURVE",
"80 404 OFFCURVE",
"62 360 CURVE SMOOTH"
);
}
);
};
hints = (
{
horizontal = 1;
place = "{-30.54, 127.48}";
type = Stem;
},
{
horizontal = 1;
place = "{242.3, 87.1}";
type = Stem;
},
{
horizontal = 1;
place = "{511, 119}";
type = Stem;
},
{
place = "{33.33, 140.44}";
type = Stem;
},
{
horizontal = 1;
place = "{209, 285.63}";
type = Stem;
}
);
layerId = "555B79C6-6D98-46E7-9307-77C37975E414";
paths = (
{
closed = 1;
nodes = (
"619.2 227.41 OFFCURVE",
"617.08 302.2 OFFCURVE",
"594.63 351.76 CURVE SMOOTH",
"589.49 363.12 OFFCURVE",
"581.16 376.18 OFFCURVE",
"569.34 380.64 CURVE SMOOTH",
"530.49 395.34 OFFCURVE",
"431.59 329.39 OFFCURVE",
"388.94 329.39 CURVE SMOOTH",
"380 329 OFFCURVE",
"378 341 OFFCURVE",
"378 356 CURVE SMOOTH",
"378 371 OFFCURVE",
"383 419 OFFCURVE",
"403 419 CURVE SMOOTH",
"424 419 OFFCURVE",
"448 410 OFFCURVE",
"459 410 CURVE SMOOTH",
"469 410 OFFCURVE",
"471 415 OFFCURVE",
"471 423 CURVE SMOOTH",
"471 442 OFFCURVE",
"414 495 OFFCURVE",
"347 495 CURVE SMOOTH",
"266 495 OFFCURVE",
"244 408 OFFCURVE",
"244 319 CURVE SMOOTH",
"244 257 OFFCURVE",
"264 209 OFFCURVE",
"327 209 CURVE SMOOTH",
"371.6 209 OFFCURVE",
"431.82 242.3 OFFCURVE",
"446.5 242.3 CURVE SMOOTH",
"454 242 OFFCURVE",
"459 224 OFFCURVE",
"460 204 CURVE SMOOTH",
"460 129 OFFCURVE",
"372 97 OFFCURVE",
"297.07 96.95 CURVE SMOOTH",
"213 97 OFFCURVE",
"174 180 OFFCURVE",
"173.76 290.8 CURVE SMOOTH",
"174 372 OFFCURVE",
"192 416 OFFCURVE",
"192.11 461.57 CURVE SMOOTH",
"192.11 468.09 OFFCURVE",
"192 476 OFFCURVE",
"178.65 475.91 CURVE SMOOTH",
"147 476 OFFCURVE",
"33 354 OFFCURVE",
"33 231 CURVE SMOOTH",
"33 89 OFFCURVE",
"136 -31 OFFCURVE",
"287.87 -30.53 CURVE SMOOTH",
"376.64 -30.53 OFFCURVE",
"449.99 -3.62 OFFCURVE",
"502.37 38.55 CURVE SMOOTH",
"535.85 65.5 OFFCURVE",
"571.17 108.59 OFFCURVE",
"588.8 152.21 CURVE SMOOTH"
);
},
{
closed = 1;
nodes = (
"0 630 LINE",
"-13 630 OFFCURVE",
"-21 626 OFFCURVE",
"-26 611 CURVE SMOOTH",
"-51 533 LINE SMOOTH",
"-56 518 OFFCURVE",
"-49 511 OFFCURVE",
"-30 511 CURVE SMOOTH",
"670 511.01 LINE",
"702 511 OFFCURVE",
"712 509 OFFCURVE",
"719 530.01 CURVE SMOOTH",
"744 608.01 LINE SMOOTH",
"749.24 622.68 OFFCURVE",
"742.19 630.01 OFFCURVE",
"722.86 630.01 CURVE SMOOTH"
);
}
);
width = 670;
},
{
layerId = "9F2BC935-6AE7-4E60-84C9-D3B586669EA4";
width = 600;
}
);
leftKerningGroup = VowelA.bn;
note = Bha.bn;
rightKerningGroup = VowelA.bn;
unicode = 09AD;
},
{
glyphname = Ma.bn;
lastChange = "2020-07-15 14:37:54 +0000";
layers = (
{
background = {
paths = (
{
closed = 1;
nodes = (
"333 370 LINE",
"333 444 OFFCURVE",
"281 516 OFFCURVE",
"281 516 CURVE",
"107 516.18 LINE",
"107 516.18 OFFCURVE",
"186 470 OFFCURVE",
"218 393 CURVE"
);
},
{
closed = 1;
nodes = (
"420 307 LINE",
"420 307 OFFCURVE",
"321.05 411.53 OFFCURVE",
"229.81 411.53 CURVE SMOOTH",
"181.19 411.53 OFFCURVE",
"140.98 397.5 OFFCURVE",
"112 376 CURVE SMOOTH",
"79.51 351.89 OFFCURVE",
"64.31 332.51 OFFCURVE",
"45.62 297.46 CURVE SMOOTH",
"30.66 269.41 OFFCURVE",
"25.98 237.62 OFFCURVE",
"25.98 215.18 CURVE SMOOTH",
"25.98 169.36 OFFCURVE",
"47.52 130.99 OFFCURVE",
"65.25 110.46 CURVE SMOOTH",
"97.3 73.35 OFFCURVE",
"156.84 34.97 OFFCURVE",
"184.89 34.97 CURVE SMOOTH",
"212.01 34.97 OFFCURVE",
"260.42 98.37 OFFCURVE",
"271.85 121.92 CURVE SMOOTH",
"280.45 139.67 OFFCURVE",
"283.85 156.51 OFFCURVE",
"283.85 176.15 CURVE SMOOTH",
"283.85 183.71 OFFCURVE",
"281.18 194.85 OFFCURVE",
"275.59 194.85 CURVE SMOOTH",
"266.4 194.85 OFFCURVE",
"242.86 155.58 OFFCURVE",
"231.64 155.58 CURVE SMOOTH",
"200.79 155.58 OFFCURVE",
"149.83 198.54 OFFCURVE",
"149.83 234.07 CURVE SMOOTH",
"149.83 253.7 OFFCURVE",
"165.72 278.77 OFFCURVE",
"184.42 291.24 CURVE SMOOTH",
"198.45 300.59 OFFCURVE",
"211.3 303 OFFCURVE",
"224.43 303 CURVE SMOOTH",
"241.26 303 OFFCURVE",
"257.37 295.12 OFFCURVE",
"276.05 277.83 CURVE SMOOTH",
"291 264 OFFCURVE",
"306.11 248.73 OFFCURVE",
"332.05 212.83 CURVE SMOOTH",
"361.45 172.15 OFFCURVE",
"394.53 113.25 OFFCURVE",
"394.53 113.25 CURVE"
);
},
{
closed = 1;
nodes = (
"427 541.14 LINE",
"427 541.14 OFFCURVE",
"409.53 376.52 OFFCURVE",
"395 207 CURVE SMOOTH",
"389 137 OFFCURVE",
"386 108 OFFCURVE",
"380 63 CURVE SMOOTH",
"375.18 26.82 OFFCURVE",
"365.76 -22.84 OFFCURVE",
"404.91 -22.84 CURVE SMOOTH",
"453.26 -22.84 OFFCURVE",
"470 22 OFFCURVE",
"488 50 CURVE SMOOTH",
"506.15 78.23 OFFCURVE",
"528 127 OFFCURVE",
"531 174 CURVE SMOOTH",
"542.93 360.94 OFFCURVE",
"551 396 OFFCURVE",
"564 538 CURVE"
);
},
{
closed = 1;
nodes = (
"-0.14 630 LINE",
"-7.14 630 LINE SMOOTH",
"-19.14 630 OFFCURVE",
"-27.14 623.67 OFFCURVE",
"-31.14 611 CURVE SMOOTH",
"-46 565 LINE",
"-56.14 533 LINE SMOOTH",
"-61.47 518.33 OFFCURVE",
"-54.47 511 OFFCURVE",
"-35.14 511 CURVE SMOOTH",
"620 511 LINE",
"645 511 LINE SMOOTH",
"656.91 511 OFFCURVE",
"664.91 517.33 OFFCURVE",
"669 530 CURVE SMOOTH",
"683.86 575 LINE",
"694 608 LINE SMOOTH",
"699.24 622.67 OFFCURVE",
"692.19 630 OFFCURVE",
"672.86 630 CURVE SMOOTH"
);
}
);
};
hints = (
{
horizontal = 1;
place = "{34.97, 120.61}";
type = Stem;
},
{
horizontal = 1;
place = "{511, 5}";
type = Stem;
},
{
place = "{25.98, 123.85}";
type = Stem;
},
{
horizontal = 1;
place = "{511, 119}";
type = Stem;
}
);
layerId = "555B79C6-6D98-46E7-9307-77C37975E414";
paths = (
{
closed = 1;
nodes = (
"333 370 LINE",
"333 444 OFFCURVE",
"281 516 OFFCURVE",
"281 516 CURVE",
"107 516.18 LINE",
"107 516.18 OFFCURVE",
"186 470 OFFCURVE",
"218 393 CURVE"
);
},
{
closed = 1;
nodes = (
"420 307 LINE",
"420 307 OFFCURVE",
"321.05 411.53 OFFCURVE",
"229.81 411.53 CURVE SMOOTH",
"116 412 OFFCURVE",
"26 324 OFFCURVE",
"25.98 215.18 CURVE SMOOTH",
"26 111 OFFCURVE",
"141 35 OFFCURVE",
"184.89 34.97 CURVE SMOOTH",
"219 35 OFFCURVE",
"284 123 OFFCURVE",
"284 168 CURVE SMOOTH",
"283.85 183.71 OFFCURVE",
"281.18 194.85 OFFCURVE",
"275.59 194.85 CURVE SMOOTH",
"266.4 194.85 OFFCURVE",
"243 156 OFFCURVE",
"232 156 CURVE SMOOTH",
"201 156 OFFCURVE",
"150 199 OFFCURVE",
"150 234 CURVE SMOOTH",
"150 266 OFFCURVE",
"183 303 OFFCURVE",
"224.43 303 CURVE SMOOTH",
"277 303 OFFCURVE",
"333 217 OFFCURVE",
"394.53 113.25 CURVE"
);
},
{
closed = 1;
nodes = (
"427 541.14 LINE",
"403 294 OFFCURVE",
"387 117 OFFCURVE",
"380 63 CURVE SMOOTH",
"375.18 26.82 OFFCURVE",
"365.76 -22.84 OFFCURVE",
"404.91 -22.84 CURVE SMOOTH",
"462 -23 OFFCURVE",
"526 95 OFFCURVE",
"531 174 CURVE SMOOTH",
"542.93 360.94 OFFCURVE",
"551 396 OFFCURVE",
"564 538 CURVE"
);
},
{
closed = 1;
nodes = (
"-0.14 630 LINE",
"-16 630 OFFCURVE",
"-26 628 OFFCURVE",
"-31.14 611 CURVE SMOOTH",
"-56.14 533 LINE SMOOTH",
"-61.47 518.33 OFFCURVE",
"-54.47 511 OFFCURVE",
"-35.14 511 CURVE SMOOTH",
"620 511 LINE",
"652 511 OFFCURVE",
"662 509 OFFCURVE",
"669 530 CURVE SMOOTH",
"694 608 LINE SMOOTH",
"699.24 622.67 OFFCURVE",
"692.19 630 OFFCURVE",
"672.86 630 CURVE SMOOTH"
);
}
);
width = 620;
},
{
layerId = "9F2BC935-6AE7-4E60-84C9-D3B586669EA4";
width = 600;
}
);
leftKerningGroup = VowelA.bn;
note = Ma.bn;
rightKerningGroup = VowelA.bn;
unicode = 09AE;
},
{
glyphname = Ya.bn;
lastChange = "2020-07-15 14:37:54 +0000";
layers = (
{
background = {
paths = (
{
closed = 1;
nodes = (
"0 630 LINE",
"-7 630 LINE SMOOTH",
"-19 630 OFFCURVE",
"-27 623.67 OFFCURVE",
"-31 611 CURVE SMOOTH",
"-45.86 565 LINE",
"-56 533 LINE SMOOTH",
"-61.33 518.33 OFFCURVE",
"-54.33 511 OFFCURVE",
"-35 511 CURVE SMOOTH",
"610.14 511 LINE",
"635.14 511 LINE SMOOTH",
"647.05 511 OFFCURVE",
"655.05 517.33 OFFCURVE",
"659.14 530 CURVE SMOOTH",
"674 575 LINE",
"684.14 608 LINE SMOOTH",
"689.38 622.67 OFFCURVE",
"682.33 630 OFFCURVE",
"663 630 CURVE SMOOTH"
);
},
{
closed = 1;
nodes = (
"80 516.18 LINE",
"80 516.18 OFFCURVE",
"152 489 OFFCURVE",
"218 384 CURVE",
"204 374 OFFCURVE",
"160 358 OFFCURVE",
"107 341 CURVE SMOOTH",
"76.74 331.29 OFFCURVE",
"42.08 327.56 OFFCURVE",
"32 301 CURVE SMOOTH",
"23.6 278.84 OFFCURVE",
"21 272 OFFCURVE",
"14 249 CURVE SMOOTH",
"8.28 230.2 OFFCURVE",
"9.38 218.94 OFFCURVE",
"32 211 CURVE SMOOTH",
"50 204.68 OFFCURVE",
"67.59 197.89 OFFCURVE",
"85 177 CURVE SMOOTH",
"105 153 OFFCURVE",
"150.19 85.86 OFFCURVE",
"209 47 CURVE SMOOTH",
"265 10 OFFCURVE",
"346.96 -21 OFFCURVE",
"394.96 -21 CURVE SMOOTH",
"421.96 -21 OFFCURVE",
"475.96 22 OFFCURVE",
"493.96 50 CURVE SMOOTH",
"512.11 78.23 OFFCURVE",
"533.96 127 OFFCURVE",
"536.96 174 CURVE SMOOTH",
"546.8 328.14 OFFCURVE",
"567.96 516 OFFCURVE",
"567.96 516 CURVE",
"427.96 516 LINE",
"427.96 516 OFFCURVE",
"405.96 340 OFFCURVE",
"399.08 170 CURVE SMOOTH",
"398.27 149.91 OFFCURVE",
"397.96 112 OFFCURVE",
"397.96 112 CURVE",
"276 135 OFFCURVE",
"204 241 OFFCURVE",
"204 241 CURVE",
"204 241 OFFCURVE",
"319 289 OFFCURVE",
"345 370 CURVE",
"345 414 OFFCURVE",
"278 516 OFFCURVE",
"278 516 CURVE"
);
}
);
};
hints = (
{
horizontal = 1;
place = "{511, 119}";
type = Stem;
},
{
horizontal = 1;
place = "{511, 5}";
type = Stem;
}
);
layerId = "555B79C6-6D98-46E7-9307-77C37975E414";
paths = (
{
closed = 1;
nodes = (
"0 630 LINE",
"-15 630 OFFCURVE",
"-26 628 OFFCURVE",
"-31 611 CURVE SMOOTH",
"-56 533 LINE SMOOTH",
"-61.33 518.33 OFFCURVE",
"-54.33 511 OFFCURVE",
"-35 511 CURVE SMOOTH",
"610.14 511 LINE",
"642 511 OFFCURVE",
"652 509 OFFCURVE",
"659.14 530 CURVE SMOOTH",
"684.14 608 LINE SMOOTH",
"689.38 622.67 OFFCURVE",
"682.33 630 OFFCURVE",
"663 630 CURVE SMOOTH"
);
},
{
closed = 1;
nodes = (
"80 516 LINE",
"80 516 OFFCURVE",
"152 489 OFFCURVE",
"218 384 CURVE",
"204 374 OFFCURVE",
"160 359 OFFCURVE",
"107 341 CURVE SMOOTH",
"77 331 OFFCURVE",
"42 328 OFFCURVE",
"32 301 CURVE SMOOTH",
"24 279 OFFCURVE",
"11 245 OFFCURVE",
"11 233 CURVE SMOOTH",
"11 223 OFFCURVE",
"16 217 OFFCURVE",
"32 211 CURVE SMOOTH",
"50 204 OFFCURVE",
"72 198 OFFCURVE",
"85 177 CURVE SMOOTH",
"162 53 OFFCURVE",
"303 -21 OFFCURVE",
"395 -21 CURVE SMOOTH",
"456 -21 OFFCURVE",
"532 81 OFFCURVE",
"537 174 CURVE SMOOTH",
"545 328 OFFCURVE",
"568 516 OFFCURVE",
"568 516 CURVE",
"428 516 LINE",
"428 516 OFFCURVE",
"407 340 OFFCURVE",
"399 170 CURVE SMOOTH",
"398 150 OFFCURVE",
"398 112 OFFCURVE",
"398 112 CURVE",
"363 112 OFFCURVE",
"246 173 OFFCURVE",
"204 241 CURVE",
"221 241 OFFCURVE",
"345 323 OFFCURVE",
"345 370 CURVE SMOOTH",
"345 433 OFFCURVE",
"278 516 OFFCURVE",
"278 516 CURVE"
);
}
);
width = 610;
},
{
layerId = "9F2BC935-6AE7-4E60-84C9-D3B586669EA4";
width = 600;
}
);
leftKerningGroup = VowelA.bn;
note = Ya.bn;
rightKerningGroup = VowelA.bn;
unicode = 09AF;
},
{
glyphname = Ra.bn;
lastChange = "2020-07-15 14:37:54 +0000";
layers = (
{
background = {
paths = (
{
closed = 1;
nodes = (
"196.48 51.69 OFFCURVE",
"189 69 OFFCURVE",
"174.04 83.08 CURVE SMOOTH",
"159.08 97.16 OFFCURVE",
"141.33 104.2 OFFCURVE",
"120.8 104.2 CURVE SMOOTH",
"99.68 104.2 OFFCURVE",
"81.49 97.6 OFFCURVE",
"66.24 84.4 CURVE SMOOTH",
"50.99 71.2 OFFCURVE",
"43.36 53.45 OFFCURVE",
"43.36 31.16 CURVE SMOOTH",
"43.36 20.01 OFFCURVE",
"45.41 9.89 OFFCURVE",
"49.52 0.8 CURVE SMOOTH",
"53.63 -8.29 OFFCURVE",
"59.2 -16.21 OFFCURVE",
"66.24 -22.96 CURVE SMOOTH",
"73.28 -29.71 OFFCURVE",
"81.49 -34.84 OFFCURVE",
"90.88 -38.36 CURVE SMOOTH",
"100.27 -41.88 OFFCURVE",
"109.95 -43.64 OFFCURVE",
"119.92 -43.64 CURVE SMOOTH",
"141.04 -43.64 OFFCURVE",
"159.08 -36.89 OFFCURVE",
"174.04 -23.4 CURVE SMOOTH",
"189 -9.91 OFFCURVE",
"196.48 8.28 OFFCURVE",
"196.48 31.16 CURVE SMOOTH"
);
},
{
closed = 1;
nodes = (
"458 541.14 LINE",
"458 541.14 OFFCURVE",
"431 340 OFFCURVE",
"424.12 170 CURVE SMOOTH",
"423.31 149.91 OFFCURVE",
"424 124 OFFCURVE",
"424 124 CURVE",
"374 141 OFFCURVE",
"315.81 178.24 OFFCURVE",
"281 219 CURVE SMOOTH",
"240 267 OFFCURVE",
"220 319 OFFCURVE",
"220 319 CURVE",
"220 319 OFFCURVE",
"298 314.68 OFFCURVE",
"344 314.68 CURVE SMOOTH",
"371 314.68 OFFCURVE",
"465.56 316.57 OFFCURVE",
"483.14 319 CURVE",
"499 443 LINE",
"499 443 OFFCURVE",
"460 439 OFFCURVE",
"312 439 CURVE SMOOTH",
"236 439 OFFCURVE",
"189 442 OFFCURVE",
"132 442 CURVE SMOOTH",
"88.99 442 OFFCURVE",
"66 438 OFFCURVE",
"55 409 CURVE SMOOTH",
"46.6 386.84 OFFCURVE",
"43 376 OFFCURVE",
"36 353 CURVE SMOOTH",
"30.28 334.2 OFFCURVE",
"31.55 323.42 OFFCURVE",
"54 315 CURVE SMOOTH",
"78 306 OFFCURVE",
"91.07 299.6 OFFCURVE",
"98 286 CURVE SMOOTH",
"125 233 OFFCURVE",
"144.93 177.01 OFFCURVE",
"216 105 CURVE SMOOTH",
"292 28 OFFCURVE",
"396 -21 OFFCURVE",
"430 -21 CURVE SMOOTH",
"457 -21 OFFCURVE",
"501 22 OFFCURVE",
"519 50 CURVE SMOOTH",
"537.15 78.23 OFFCURVE",
"559 127 OFFCURVE",
"562 174 CURVE SMOOTH",
"573.93 360.94 OFFCURVE",
"595 538 OFFCURVE",
"595 538 CURVE"
);
},
{
closed = 1;
nodes = (
"0 630 LINE",
"-6 630 LINE SMOOTH",
"-18 630 OFFCURVE",
"-26 623.67 OFFCURVE",
"-30 611 CURVE SMOOTH",
"-44.86 565 LINE",
"-55 533 LINE SMOOTH",
"-60.33 518.33 OFFCURVE",
"-53.33 511 OFFCURVE",
"-34 511 CURVE SMOOTH",
"655.14 511 LINE",
"680.14 511 LINE SMOOTH",
"692.05 511 OFFCURVE",
"700.05 517.33 OFFCURVE",
"704.14 530 CURVE SMOOTH",
"719 575 LINE",
"729.14 608 LINE SMOOTH",
"734.38 622.67 OFFCURVE",
"727.33 630 OFFCURVE",
"708 630 CURVE SMOOTH"
);
}
);
};
hints = (
{
horizontal = 1;
place = "{-43.64, 147.84}";
type = Stem;
},
{
horizontal = 1;
place = "{314.68, 124.32}";
type = Stem;
},
{
horizontal = 1;
place = "{511, 119}";
type = Stem;
},
{
place = "{43.36, 153.12}";
type = Stem;
}
);
layerId = "555B79C6-6D98-46E7-9307-77C37975E414";
paths = (
{
closed = 1;
nodes = (
"196 73 OFFCURVE",
"162 104 OFFCURVE",
"120.8 104.2 CURVE SMOOTH",
"80 104 OFFCURVE",
"43 78 OFFCURVE",
"43.36 31.16 CURVE SMOOTH",
"43 -11 OFFCURVE",
"77 -44 OFFCURVE",
"119.92 -43.64 CURVE SMOOTH",
"161 -44 OFFCURVE",
"196 -16 OFFCURVE",
"196.48 31.16 CURVE SMOOTH"
);
},
{
closed = 1;
nodes = (
"0 630 LINE",
"-15 630 OFFCURVE",
"-26 628 OFFCURVE",
"-31 611 CURVE SMOOTH",
"-56 533 LINE SMOOTH",
"-61.33 518.33 OFFCURVE",
"-54.33 511 OFFCURVE",
"-35 511 CURVE SMOOTH",
"655 511 LINE",
"687 511 OFFCURVE",
"697 509 OFFCURVE",
"704 530 CURVE SMOOTH",
"729 608 LINE SMOOTH",
"734 623 OFFCURVE",
"727 630 OFFCURVE",
"708 630 CURVE SMOOTH"
);
},
{
closed = 1;
nodes = (
"458 541 LINE",
"458 541 OFFCURVE",
"432 340 OFFCURVE",
"424 170 CURVE SMOOTH",
"423 150 OFFCURVE",
"424 124 OFFCURVE",
"424 124 CURVE",
"410 124 OFFCURVE",
"268 184 OFFCURVE",
"221 319 CURVE",
"221 319 OFFCURVE",
"307 314 OFFCURVE",
"344 314 CURVE SMOOTH",
"374 314 OFFCURVE",
"440 316 OFFCURVE",
"483 319 CURVE",
"499 443 LINE",
"499 443 OFFCURVE",
"365 439 OFFCURVE",
"292 439 CURVE SMOOTH",
"240 439 OFFCURVE",
"183 442 OFFCURVE",
"132 442 CURVE SMOOTH",
"89 442 OFFCURVE",
"66 438 OFFCURVE",
"55 409 CURVE SMOOTH",
"49 393 OFFCURVE",
"33 344 OFFCURVE",
"33 334 CURVE SMOOTH",
"33 326 OFFCURVE",
"39 321 OFFCURVE",
"54 315 CURVE SMOOTH",
"78 305 OFFCURVE",
"93 300 OFFCURVE",
"98 286 CURVE SMOOTH",
"160 111 OFFCURVE",
"342 -21 OFFCURVE",
"430 -21 CURVE SMOOTH",
"487 -21 OFFCURVE",
"557 95 OFFCURVE",
"562 174 CURVE SMOOTH",
"574 361 OFFCURVE",
"595 538 OFFCURVE",
"595 538 CURVE"
);
}
);
width = 655;
},
{
layerId = "9F2BC935-6AE7-4E60-84C9-D3B586669EA4";
width = 600;
}
);
leftKerningGroup = VowelA.bn;
note = Ra.bn;
rightKerningGroup = VowelA.bn;
unicode = 09B0;
},
